<?xml version="1.0" encoding="utf-8" standalone="no"?>
<!DOCTYPE svg PUBLIC "-//W3C//DTD SVG 1.1//EN"
  "http://www.w3.org/Graphics/SVG/1.1/DTD/svg11.dtd">
<svg xmlns:xlink="http://www.w3.org/1999/xlink" width="460.8pt" height="345.6pt" viewBox="0 0 460.8 345.6" xmlns="http://www.w3.org/2000/svg" version="1.1">
 <metadata>
  <rdf:RDF xmlns:dc="http://purl.org/dc/elements/1.1/" xmlns:cc="http://creativecommons.org/ns#" xmlns:rdf="http://www.w3.org/1999/02/22-rdf-syntax-ns#">
   <cc:Work>
    <dc:type rdf:resource="http://purl.org/dc/dcmitype/StillImage"/>
    <dc:date>2023-11-06T13:33:48.126168</dc:date>
    <dc:format>image/svg+xml</dc:format>
    <dc:creator>
     <cc:Agent>
      <dc:title>Matplotlib v3.8.1, https://matplotlib.org/</dc:title>
     </cc:Agent>
    </dc:creator>
   </cc:Work>
  </rdf:RDF>
 </metadata>
 <defs>
  <style type="text/css">*{stroke-linejoin: round; stroke-linecap: butt}</style>
 </defs>
 <g id="figure_1">
  <g id="patch_1">
   <path d="M 0 345.6 
L 460.8 345.6 
L 460.8 0 
L 0 0 
z
" style="fill: #ffffff"/>
  </g>
  <g id="axes_1">
   <g id="patch_2">
    <path d="M 57.6 307.584 
L 414.72 307.584 
L 414.72 41.472 
L 57.6 41.472 
z
" style="fill: #ffffff"/>
   </g>
   <g id="matplotlib.axis_1">
    <g id="xtick_1">
     <g id="line2d_1">
      <defs>
       <path id="m007cd09c49" d="M 0 0 
L 0 3.5 
" style="stroke: #000000; stroke-width: 0.8"/>
      </defs>
      <g>
       <use xlink:href="#m007cd09c49" x="73.832727" y="307.584" style="stroke: #000000; stroke-width: 0.8"/>
      </g>
     </g>
     <g id="text_1">
      <!-- 0 -->
      <g transform="translate(70.651477 322.182437) scale(0.1 -0.1)">
       <defs>
        <path id="DejaVuSans-30" d="M 2034 4250 
Q 1547 4250 1301 3770 
Q 1056 3291 1056 2328 
Q 1056 1369 1301 889 
Q 1547 409 2034 409 
Q 2525 409 2770 889 
Q 3016 1369 3016 2328 
Q 3016 3291 2770 3770 
Q 2525 4250 2034 4250 
z
M 2034 4750 
Q 2819 4750 3233 4129 
Q 3647 3509 3647 2328 
Q 3647 1150 3233 529 
Q 2819 -91 2034 -91 
Q 1250 -91 836 529 
Q 422 1150 422 2328 
Q 422 3509 836 4129 
Q 1250 4750 2034 4750 
z
" transform="scale(0.015625)"/>
       </defs>
       <use xlink:href="#DejaVuSans-30"/>
      </g>
     </g>
    </g>
    <g id="xtick_2">
     <g id="line2d_2">
      <g>
       <use xlink:href="#m007cd09c49" x="138.828632" y="307.584" style="stroke: #000000; stroke-width: 0.8"/>
      </g>
     </g>
     <g id="text_2">
      <!-- 200 -->
      <g transform="translate(129.284882 322.182437) scale(0.1 -0.1)">
       <defs>
        <path id="DejaVuSans-32" d="M 1228 531 
L 3431 531 
L 3431 0 
L 469 0 
L 469 531 
Q 828 903 1448 1529 
Q 2069 2156 2228 2338 
Q 2531 2678 2651 2914 
Q 2772 3150 2772 3378 
Q 2772 3750 2511 3984 
Q 2250 4219 1831 4219 
Q 1534 4219 1204 4116 
Q 875 4013 500 3803 
L 500 4441 
Q 881 4594 1212 4672 
Q 1544 4750 1819 4750 
Q 2544 4750 2975 4387 
Q 3406 4025 3406 3419 
Q 3406 3131 3298 2873 
Q 3191 2616 2906 2266 
Q 2828 2175 2409 1742 
Q 1991 1309 1228 531 
z
" transform="scale(0.015625)"/>
       </defs>
       <use xlink:href="#DejaVuSans-32"/>
       <use xlink:href="#DejaVuSans-30" x="63.623047"/>
       <use xlink:href="#DejaVuSans-30" x="127.246094"/>
      </g>
     </g>
    </g>
    <g id="xtick_3">
     <g id="line2d_3">
      <g>
       <use xlink:href="#m007cd09c49" x="203.824537" y="307.584" style="stroke: #000000; stroke-width: 0.8"/>
      </g>
     </g>
     <g id="text_3">
      <!-- 400 -->
      <g transform="translate(194.280787 322.182437) scale(0.1 -0.1)">
       <defs>
        <path id="DejaVuSans-34" d="M 2419 4116 
L 825 1625 
L 2419 1625 
L 2419 4116 
z
M 2253 4666 
L 3047 4666 
L 3047 1625 
L 3713 1625 
L 3713 1100 
L 3047 1100 
L 3047 0 
L 2419 0 
L 2419 1100 
L 313 1100 
L 313 1709 
L 2253 4666 
z
" transform="scale(0.015625)"/>
       </defs>
       <use xlink:href="#DejaVuSans-34"/>
       <use xlink:href="#DejaVuSans-30" x="63.623047"/>
       <use xlink:href="#DejaVuSans-30" x="127.246094"/>
      </g>
     </g>
    </g>
    <g id="xtick_4">
     <g id="line2d_4">
      <g>
       <use xlink:href="#m007cd09c49" x="268.820442" y="307.584" style="stroke: #000000; stroke-width: 0.8"/>
      </g>
     </g>
     <g id="text_4">
      <!-- 600 -->
      <g transform="translate(259.276692 322.182437) scale(0.1 -0.1)">
       <defs>
        <path id="DejaVuSans-36" d="M 2113 2584 
Q 1688 2584 1439 2293 
Q 1191 2003 1191 1497 
Q 1191 994 1439 701 
Q 1688 409 2113 409 
Q 2538 409 2786 701 
Q 3034 994 3034 1497 
Q 3034 2003 2786 2293 
Q 2538 2584 2113 2584 
z
M 3366 4563 
L 3366 3988 
Q 3128 4100 2886 4159 
Q 2644 4219 2406 4219 
Q 1781 4219 1451 3797 
Q 1122 3375 1075 2522 
Q 1259 2794 1537 2939 
Q 1816 3084 2150 3084 
Q 2853 3084 3261 2657 
Q 3669 2231 3669 1497 
Q 3669 778 3244 343 
Q 2819 -91 2113 -91 
Q 1303 -91 875 529 
Q 447 1150 447 2328 
Q 447 3434 972 4092 
Q 1497 4750 2381 4750 
Q 2619 4750 2861 4703 
Q 3103 4656 3366 4563 
z
" transform="scale(0.015625)"/>
       </defs>
       <use xlink:href="#DejaVuSans-36"/>
       <use xlink:href="#DejaVuSans-30" x="63.623047"/>
       <use xlink:href="#DejaVuSans-30" x="127.246094"/>
      </g>
     </g>
    </g>
    <g id="xtick_5">
     <g id="line2d_5">
      <g>
       <use xlink:href="#m007cd09c49" x="333.816347" y="307.584" style="stroke: #000000; stroke-width: 0.8"/>
      </g>
     </g>
     <g id="text_5">
      <!-- 800 -->
      <g transform="translate(324.272597 322.182437) scale(0.1 -0.1)">
       <defs>
        <path id="DejaVuSans-38" d="M 2034 2216 
Q 1584 2216 1326 1975 
Q 1069 1734 1069 1313 
Q 1069 891 1326 650 
Q 1584 409 2034 409 
Q 2484 409 2743 651 
Q 3003 894 3003 1313 
Q 3003 1734 2745 1975 
Q 2488 2216 2034 2216 
z
M 1403 2484 
Q 997 2584 770 2862 
Q 544 3141 544 3541 
Q 544 4100 942 4425 
Q 1341 4750 2034 4750 
Q 2731 4750 3128 4425 
Q 3525 4100 3525 3541 
Q 3525 3141 3298 2862 
Q 3072 2584 2669 2484 
Q 3125 2378 3379 2068 
Q 3634 1759 3634 1313 
Q 3634 634 3220 271 
Q 2806 -91 2034 -91 
Q 1263 -91 848 271 
Q 434 634 434 1313 
Q 434 1759 690 2068 
Q 947 2378 1403 2484 
z
M 1172 3481 
Q 1172 3119 1398 2916 
Q 1625 2713 2034 2713 
Q 2441 2713 2670 2916 
Q 2900 3119 2900 3481 
Q 2900 3844 2670 4047 
Q 2441 4250 2034 4250 
Q 1625 4250 1398 4047 
Q 1172 3844 1172 3481 
z
" transform="scale(0.015625)"/>
       </defs>
       <use xlink:href="#DejaVuSans-38"/>
       <use xlink:href="#DejaVuSans-30" x="63.623047"/>
       <use xlink:href="#DejaVuSans-30" x="127.246094"/>
      </g>
     </g>
    </g>
    <g id="xtick_6">
     <g id="line2d_6">
      <g>
       <use xlink:href="#m007cd09c49" x="398.812252" y="307.584" style="stroke: #000000; stroke-width: 0.8"/>
      </g>
     </g>
     <g id="text_6">
      <!-- 1000 -->
      <g transform="translate(386.087252 322.182437) scale(0.1 -0.1)">
       <defs>
        <path id="DejaVuSans-31" d="M 794 531 
L 1825 531 
L 1825 4091 
L 703 3866 
L 703 4441 
L 1819 4666 
L 2450 4666 
L 2450 531 
L 3481 531 
L 3481 0 
L 794 0 
L 794 531 
z
" transform="scale(0.015625)"/>
       </defs>
       <use xlink:href="#DejaVuSans-31"/>
       <use xlink:href="#DejaVuSans-30" x="63.623047"/>
       <use xlink:href="#DejaVuSans-30" x="127.246094"/>
       <use xlink:href="#DejaVuSans-30" x="190.869141"/>
      </g>
     </g>
    </g>
   </g>
   <g id="matplotlib.axis_2">
    <g id="ytick_1">
     <g id="line2d_7">
      <defs>
       <path id="mcc17491b6c" d="M 0 0 
L -3.5 0 
" style="stroke: #000000; stroke-width: 0.8"/>
      </defs>
      <g>
       <use xlink:href="#mcc17491b6c" x="57.6" y="294.120148" style="stroke: #000000; stroke-width: 0.8"/>
      </g>
     </g>
     <g id="text_7">
      <!-- −20 -->
      <g transform="translate(29.495313 297.919367) scale(0.1 -0.1)">
       <defs>
        <path id="DejaVuSans-2212" d="M 678 2272 
L 4684 2272 
L 4684 1741 
L 678 1741 
L 678 2272 
z
" transform="scale(0.015625)"/>
       </defs>
       <use xlink:href="#DejaVuSans-2212"/>
       <use xlink:href="#DejaVuSans-32" x="83.789062"/>
       <use xlink:href="#DejaVuSans-30" x="147.412109"/>
      </g>
     </g>
    </g>
    <g id="ytick_2">
     <g id="line2d_8">
      <g>
       <use xlink:href="#mcc17491b6c" x="57.6" y="257.215981" style="stroke: #000000; stroke-width: 0.8"/>
      </g>
     </g>
     <g id="text_8">
      <!-- −15 -->
      <g transform="translate(29.495313 261.015199) scale(0.1 -0.1)">
       <defs>
        <path id="DejaVuSans-35" d="M 691 4666 
L 3169 4666 
L 3169 4134 
L 1269 4134 
L 1269 2991 
Q 1406 3038 1543 3061 
Q 1681 3084 1819 3084 
Q 2600 3084 3056 2656 
Q 3513 2228 3513 1497 
Q 3513 744 3044 326 
Q 2575 -91 1722 -91 
Q 1428 -91 1123 -41 
Q 819 9 494 109 
L 494 744 
Q 775 591 1075 516 
Q 1375 441 1709 441 
Q 2250 441 2565 725 
Q 2881 1009 2881 1497 
Q 2881 1984 2565 2268 
Q 2250 2553 1709 2553 
Q 1456 2553 1204 2497 
Q 953 2441 691 2322 
L 691 4666 
z
" transform="scale(0.015625)"/>
       </defs>
       <use xlink:href="#DejaVuSans-2212"/>
       <use xlink:href="#DejaVuSans-31" x="83.789062"/>
       <use xlink:href="#DejaVuSans-35" x="147.412109"/>
      </g>
     </g>
    </g>
    <g id="ytick_3">
     <g id="line2d_9">
      <g>
       <use xlink:href="#mcc17491b6c" x="57.6" y="220.311813" style="stroke: #000000; stroke-width: 0.8"/>
      </g>
     </g>
     <g id="text_9">
      <!-- −10 -->
      <g transform="translate(29.495313 224.111032) scale(0.1 -0.1)">
       <use xlink:href="#DejaVuSans-2212"/>
       <use xlink:href="#DejaVuSans-31" x="83.789062"/>
       <use xlink:href="#DejaVuSans-30" x="147.412109"/>
      </g>
     </g>
    </g>
    <g id="ytick_4">
     <g id="line2d_10">
      <g>
       <use xlink:href="#mcc17491b6c" x="57.6" y="183.407646" style="stroke: #000000; stroke-width: 0.8"/>
      </g>
     </g>
     <g id="text_10">
      <!-- −5 -->
      <g transform="translate(35.857813 187.206864) scale(0.1 -0.1)">
       <use xlink:href="#DejaVuSans-2212"/>
       <use xlink:href="#DejaVuSans-35" x="83.789062"/>
      </g>
     </g>
    </g>
    <g id="ytick_5">
     <g id="line2d_11">
      <g>
       <use xlink:href="#mcc17491b6c" x="57.6" y="146.503478" style="stroke: #000000; stroke-width: 0.8"/>
      </g>
     </g>
     <g id="text_11">
      <!-- 0 -->
      <g transform="translate(44.2375 150.302697) scale(0.1 -0.1)">
       <use xlink:href="#DejaVuSans-30"/>
      </g>
     </g>
    </g>
    <g id="ytick_6">
     <g id="line2d_12">
      <g>
       <use xlink:href="#mcc17491b6c" x="57.6" y="109.59931" style="stroke: #000000; stroke-width: 0.8"/>
      </g>
     </g>
     <g id="text_12">
      <!-- 5 -->
      <g transform="translate(44.2375 113.398529) scale(0.1 -0.1)">
       <use xlink:href="#DejaVuSans-35"/>
      </g>
     </g>
    </g>
    <g id="ytick_7">
     <g id="line2d_13">
      <g>
       <use xlink:href="#mcc17491b6c" x="57.6" y="72.695143" style="stroke: #000000; stroke-width: 0.8"/>
      </g>
     </g>
     <g id="text_13">
      <!-- 10 -->
      <g transform="translate(37.875 76.494362) scale(0.1 -0.1)">
       <use xlink:href="#DejaVuSans-31"/>
       <use xlink:href="#DejaVuSans-30" x="63.623047"/>
      </g>
     </g>
    </g>
   </g>
   <g id="line2d_14">
    <path d="M 73.832727 146.503478 
L 74.157707 135.609645 
L 74.482686 152.489394 
L 74.807666 146.199012 
L 75.132645 146.915529 
L 75.457625 156.909949 
L 75.782604 145.830234 
L 76.107584 140.35215 
L 76.432563 139.611003 
L 76.757543 145.285202 
L 77.082523 140.337584 
L 77.732482 154.522465 
L 78.382441 119.352548 
L 78.70742 119.540819 
L 79.0324 117.80192 
L 79.357379 126.876106 
L 79.682359 122.75745 
L 80.007338 111.960172 
L 80.332318 111.493327 
L 80.657297 104.258407 
L 80.982277 111.632306 
L 81.307256 109.138382 
L 81.632236 101.410932 
L 81.957215 111.69555 
L 82.282195 111.812369 
L 82.607174 124.968763 
L 83.257133 128.123814 
L 83.582113 136.005442 
L 83.907093 137.550773 
L 84.232072 136.698316 
L 84.557052 148.058452 
L 84.882031 141.543895 
L 85.207011 142.863913 
L 85.53199 156.875327 
L 86.181949 172.855504 
L 86.506929 166.245457 
L 86.831908 163.6453 
L 87.156888 154.417386 
L 87.481867 154.550857 
L 87.806847 152.470397 
L 88.131826 155.440708 
L 88.456806 146.779562 
L 88.781785 156.481603 
L 89.106765 156.037226 
L 89.756724 171.38132 
L 90.406683 179.183794 
L 90.731663 174.226328 
L 91.056642 164.700492 
L 91.381622 162.514108 
L 91.706601 158.540734 
L 92.031581 157.121602 
L 92.35656 145.778191 
L 92.68154 145.875167 
L 93.006519 133.524759 
L 93.331499 128.876394 
L 93.656478 127.169272 
L 93.981458 132.271798 
L 94.306437 129.343527 
L 94.631417 131.016508 
L 94.956396 134.001984 
L 95.281376 123.528055 
L 95.606355 123.895118 
L 95.931335 125.690381 
L 96.256314 111.664158 
L 96.581294 116.333588 
L 96.906274 111.43238 
L 97.231253 108.563409 
L 97.556233 112.582552 
L 97.881212 118.036467 
L 98.206192 115.762841 
L 98.531171 115.976234 
L 98.856151 115.321742 
L 99.831089 138.574456 
L 100.156069 137.684296 
L 100.481048 145.486192 
L 101.131007 155.380712 
L 101.455987 148.092073 
L 101.780966 169.26448 
L 102.105946 161.281741 
L 102.430925 174.529281 
L 102.755905 166.845947 
L 103.080885 152.527795 
L 103.405864 147.96383 
L 103.730844 136.627192 
L 104.055823 138.060772 
L 105.030762 149.824051 
L 105.355741 157.60074 
L 105.680721 146.571758 
L 106.0057 153.406033 
L 106.33068 151.936595 
L 106.655659 154.289159 
L 106.980639 160.4796 
L 107.305618 164.254293 
L 107.955577 155.23905 
L 108.280557 170.613674 
L 108.605536 159.51049 
L 108.930516 162.008714 
L 109.255495 162.278195 
L 109.580475 157.183274 
L 109.905455 161.695355 
L 110.230434 159.023908 
L 110.555414 162.577295 
L 110.880393 155.938495 
L 111.205373 158.789624 
L 111.855332 169.438879 
L 112.180311 166.672497 
L 112.505291 162.131025 
L 112.83027 164.806529 
L 113.15525 165.199637 
L 113.480229 164.235376 
L 114.130188 150.421888 
L 114.455168 145.562393 
L 114.780147 160.90181 
L 115.105127 157.245883 
L 115.430106 158.131597 
L 115.755086 156.404891 
L 116.080066 156.696137 
L 116.405045 169.7921 
L 116.730025 169.650745 
L 117.055004 163.815109 
L 117.379984 164.980082 
L 118.029943 171.750489 
L 118.354922 167.537998 
L 118.679902 181.800998 
L 119.004881 169.878618 
L 119.329861 171.578592 
L 119.65484 175.977555 
L 119.97982 168.55395 
L 120.304799 172.857168 
L 120.629779 172.075996 
L 120.954758 184.437918 
L 121.279738 190.34743 
L 121.604717 191.740491 
L 121.929697 201.490666 
L 122.254676 202.744133 
L 122.904636 216.125238 
L 123.229615 231.760098 
L 123.554595 234.191091 
L 124.204554 217.834964 
L 124.529533 228.277196 
L 124.854513 230.662677 
L 125.179492 228.691812 
L 125.829451 212.621774 
L 126.154431 208.508172 
L 126.47941 208.24294 
L 126.80439 213.830921 
L 127.129369 201.157685 
L 127.454349 195.930068 
L 127.779328 198.340408 
L 128.104308 198.45322 
L 128.429287 189.208192 
L 128.754267 188.870226 
L 129.404226 180.237652 
L 129.729206 174.106138 
L 130.054185 174.353099 
L 130.379165 162.680968 
L 130.704144 156.663212 
L 131.354103 167.308238 
L 131.679083 165.456272 
L 132.004062 173.97191 
L 132.329042 176.013919 
L 132.654021 157.625364 
L 132.979001 171.035015 
L 133.30398 167.805119 
L 133.62896 176.961941 
L 134.278919 165.360218 
L 134.603898 165.652168 
L 134.928878 169.147243 
L 135.253857 177.425548 
L 135.578837 170.718815 
L 135.903817 175.494028 
L 136.228796 178.124145 
L 136.553776 185.84524 
L 136.878755 189.596799 
L 137.203735 191.123489 
L 137.528714 188.276788 
L 137.853694 191.323764 
L 138.178673 182.415332 
L 138.503653 178.293122 
L 138.828632 176.873485 
L 139.478591 194.470237 
L 139.803571 214.902397 
L 140.12855 208.969325 
L 140.45353 207.094982 
L 140.778509 206.607186 
L 141.103489 210.89472 
L 141.428468 206.23092 
L 141.753448 198.387977 
L 142.078428 196.796083 
L 142.403407 193.488756 
L 143.378346 171.146765 
L 143.703325 178.862624 
L 144.028305 170.164657 
L 144.353284 168.840582 
L 144.678264 161.447208 
L 145.003243 171.493606 
L 145.328223 169.175257 
L 145.653202 163.390248 
L 145.978182 153.972018 
L 146.303161 154.552636 
L 146.628141 163.444124 
L 146.95312 165.509972 
L 147.2781 156.483452 
L 147.603079 143.983931 
L 147.928059 139.47879 
L 148.253038 146.55361 
L 148.578018 148.439645 
L 149.227977 155.446627 
L 149.877936 138.508492 
L 150.202916 149.065537 
L 150.852875 155.497899 
L 151.177854 143.159176 
L 151.502834 146.909313 
L 151.827813 153.695133 
L 152.802752 132.467016 
L 153.127731 139.547821 
L 153.452711 141.687023 
L 153.77769 136.351843 
L 154.10267 133.129233 
L 154.427649 138.101171 
L 154.752629 132.065199 
L 155.077609 115.978695 
L 155.402588 124.263372 
L 155.727568 110.774503 
L 156.052547 103.868379 
L 156.377527 113.635178 
L 156.702506 119.025068 
L 157.027486 132.672275 
L 157.677445 129.277048 
L 158.002424 136.482846 
L 158.652383 128.350976 
L 158.977363 129.042316 
L 159.302342 130.500848 
L 159.627322 127.454086 
L 159.952301 139.432419 
L 160.277281 138.832012 
L 160.60226 141.714833 
L 160.92724 155.995579 
L 161.252219 156.071255 
L 161.902179 169.404416 
L 162.227158 170.947158 
L 162.552138 173.362085 
L 162.877117 167.785023 
L 163.527076 189.420644 
L 163.852056 189.742362 
L 164.177035 187.154306 
L 164.826994 178.358628 
L 165.151974 185.095783 
L 165.476953 180.616024 
L 165.801933 189.303495 
L 166.126912 182.745128 
L 166.451892 187.36326 
L 166.776871 188.177818 
L 167.42683 179.585804 
L 167.75181 171.69179 
L 168.07679 177.102408 
L 168.401769 179.054352 
L 169.051728 189.239883 
L 169.376708 187.423554 
L 169.701687 188.137575 
L 170.026667 189.159423 
L 170.676626 199.152057 
L 171.001605 207.044855 
L 171.326585 200.326888 
L 171.651564 214.462869 
L 171.976544 199.53829 
L 172.626503 211.880706 
L 172.951482 211.186074 
L 173.276462 213.289085 
L 173.601441 201.65415 
L 173.926421 204.810548 
L 174.2514 212.557167 
L 174.57638 199.227143 
L 174.90136 201.014125 
L 175.226339 196.13944 
L 175.551319 194.121274 
L 175.876298 197.185688 
L 176.201278 192.948901 
L 176.526257 183.94521 
L 176.851237 181.577231 
L 177.176216 193.123827 
L 177.501196 187.073718 
L 177.826175 196.87591 
L 178.151155 196.82321 
L 178.476134 198.439827 
L 178.801114 212.602628 
L 179.126093 208.197327 
L 179.451073 193.708019 
L 179.776052 200.502101 
L 180.101032 200.334119 
L 180.426011 205.521859 
L 180.750991 201.943071 
L 181.075971 200.374471 
L 181.40095 208.438447 
L 181.72593 212.405997 
L 182.050909 223.698111 
L 182.375889 220.685107 
L 183.025848 210.841215 
L 183.350827 223.002682 
L 183.675807 226.949313 
L 184.000786 227.90056 
L 184.325766 219.924543 
L 184.975725 228.422348 
L 185.300704 230.021621 
L 185.625684 215.673089 
L 185.950663 216.899608 
L 186.275643 212.363791 
L 186.600622 201.975168 
L 186.925602 198.845287 
L 187.250581 197.826808 
L 187.575561 194.388713 
L 187.900541 207.255194 
L 188.5505 182.301332 
L 188.875479 184.422466 
L 189.200459 187.290929 
L 189.525438 196.740243 
L 189.850418 198.064376 
L 190.175397 186.775932 
L 190.500377 183.704347 
L 190.825356 188.219441 
L 191.150336 182.884736 
L 191.475315 195.752471 
L 191.800295 199.308398 
L 192.125274 206.727296 
L 192.775233 203.238294 
L 193.425192 225.742355 
L 193.750172 223.914878 
L 194.075152 232.042771 
L 194.400131 229.142783 
L 194.725111 231.591274 
L 195.05009 228.763327 
L 195.700049 205.966103 
L 196.025029 205.165123 
L 196.350008 207.219118 
L 196.674988 205.129327 
L 196.999967 188.996853 
L 197.324947 191.70212 
L 197.649926 178.886876 
L 197.974906 199.524874 
L 198.299885 205.963655 
L 198.624865 196.753039 
L 198.949844 193.914307 
L 199.599803 202.964583 
L 199.924783 183.838844 
L 200.249762 184.306479 
L 200.899722 174.074028 
L 201.224701 181.906669 
L 201.549681 174.077851 
L 201.87466 174.019918 
L 202.19964 166.182159 
L 202.524619 168.196074 
L 202.849599 173.094999 
L 203.174578 180.123614 
L 203.499558 184.053447 
L 203.824537 192.910566 
L 204.149517 196.360407 
L 204.474496 194.424222 
L 204.799476 194.037407 
L 205.124455 180.654023 
L 205.449435 184.677871 
L 205.774414 176.937286 
L 206.099394 183.607576 
L 206.424373 186.816753 
L 207.074333 172.819327 
L 207.399312 178.429186 
L 207.724292 175.90783 
L 208.049271 178.298172 
L 208.374251 181.516214 
L 208.69923 190.322691 
L 209.02421 190.91122 
L 209.349189 175.764383 
L 209.674169 176.087408 
L 209.999148 175.022882 
L 210.649107 169.863124 
L 210.974087 162.031423 
L 211.624046 175.948705 
L 211.949025 192.221948 
L 212.274005 191.344181 
L 212.598984 191.455042 
L 212.923964 200.33373 
L 213.248943 193.595444 
L 213.898903 208.373159 
L 214.548862 201.509235 
L 214.873841 201.327096 
L 215.198821 199.793376 
L 215.5238 202.926064 
L 215.84878 212.502284 
L 216.173759 206.840608 
L 216.823718 226.091877 
L 217.798657 241.203568 
L 218.123636 231.581895 
L 218.448616 234.796052 
L 218.773595 239.383625 
L 219.098575 230.23738 
L 219.423554 215.588894 
L 219.748534 223.2643 
L 220.073514 227.183488 
L 220.398493 228.234303 
L 220.723473 223.830741 
L 221.048452 222.652313 
L 221.373432 216.301132 
L 221.698411 222.856827 
L 222.023391 215.052508 
L 222.34837 220.652497 
L 222.998329 226.060093 
L 223.323309 219.991036 
L 223.973268 243.846881 
L 224.298247 239.259849 
L 224.948206 257.42692 
L 225.273186 252.3975 
L 225.923145 255.762891 
L 226.248124 250.395998 
L 226.573104 250.008218 
L 226.898084 253.844553 
L 227.223063 245.514552 
L 227.548043 254.309374 
L 227.873022 242.579799 
L 228.198002 246.222351 
L 228.522981 245.099544 
L 228.847961 240.912791 
L 229.49792 246.969376 
L 229.822899 234.813401 
L 230.147879 233.048342 
L 230.472858 221.981336 
L 230.797838 218.585374 
L 231.122817 223.207385 
L 231.447797 233.21101 
L 231.772776 239.487942 
L 232.097756 236.5339 
L 232.422735 248.937525 
L 232.747715 248.207799 
L 233.072695 255.739717 
L 233.397674 255.003147 
L 233.722654 251.459709 
L 234.047633 255.800267 
L 234.372613 254.289275 
L 234.697592 251.590201 
L 235.022572 252.436803 
L 235.347551 251.584104 
L 235.672531 247.663274 
L 235.99751 246.449762 
L 236.32249 243.023721 
L 236.647469 242.022919 
L 237.622408 258.037369 
L 237.947387 259.723529 
L 238.272367 263.683003 
L 238.597346 257.586173 
L 238.922326 253.735672 
L 239.247305 255.793096 
L 239.572285 270.5726 
L 239.897265 269.8982 
L 240.547224 280.223519 
L 240.872203 272.515946 
L 241.197183 260.334998 
L 241.522162 266.935995 
L 242.172121 252.434714 
L 242.497101 262.939981 
L 242.82208 255.595073 
L 243.14706 257.054607 
L 243.472039 260.931933 
L 244.121998 265.711743 
L 244.446978 270.854021 
L 244.771957 263.988236 
L 245.096937 265.289922 
L 245.746896 276.798745 
L 246.071876 273.947258 
L 246.396855 269.545046 
L 246.721835 272.421598 
L 247.046814 268.144019 
L 247.696773 264.448728 
L 248.021753 253.066416 
L 248.346732 263.129651 
L 248.671712 263.437052 
L 248.996691 265.692383 
L 249.64665 263.624211 
L 249.97163 260.144749 
L 250.296609 250.952229 
L 250.621589 250.024338 
L 250.946568 246.261395 
L 251.271548 240.298802 
L 251.596527 240.402578 
L 251.921507 244.984854 
L 252.246486 247.075394 
L 252.571466 252.708352 
L 253.221425 227.662862 
L 253.546405 230.125573 
L 253.871384 222.633221 
L 254.521343 217.12545 
L 255.171302 228.371956 
L 255.496282 237.773979 
L 255.821261 239.278715 
L 256.47122 244.337004 
L 256.7962 242.453398 
L 257.121179 237.660823 
L 257.446159 239.231725 
L 257.771138 242.764509 
L 258.096118 233.573058 
L 259.071057 242.248215 
L 259.396036 236.272979 
L 259.721016 247.408346 
L 260.045995 243.042191 
L 260.370975 255.750414 
L 260.695954 260.746064 
L 261.345913 275.274246 
L 261.670893 267.817312 
L 261.995872 278.607133 
L 262.320852 281.85651 
L 262.645831 291.756439 
L 262.970811 295.488 
L 263.62077 282.382772 
L 263.945749 273.338322 
L 264.270729 273.987655 
L 264.595708 285.373956 
L 264.920688 281.006337 
L 265.245667 281.255721 
L 265.570647 280.520732 
L 265.895627 277.297364 
L 266.220606 272.038184 
L 266.545586 268.929171 
L 266.870565 271.238385 
L 267.195545 261.943162 
L 267.520524 266.965059 
L 267.845504 275.993303 
L 268.170483 281.854783 
L 268.495463 279.0839 
L 268.820442 274.333258 
L 269.145422 272.437546 
L 269.795381 289.447548 
L 270.44534 251.433684 
L 270.770319 247.456978 
L 271.095299 248.149123 
L 271.420278 253.730613 
L 271.745258 247.699105 
L 272.070238 235.994456 
L 272.395217 232.008957 
L 272.720197 235.236087 
L 273.045176 214.527514 
L 273.370156 206.192983 
L 273.695135 205.441321 
L 274.020115 205.534908 
L 274.345094 203.898901 
L 274.670074 196.355355 
L 274.995053 206.164724 
L 275.320033 195.343398 
L 275.645012 199.162203 
L 275.969992 201.294625 
L 276.294971 202.500821 
L 276.619951 213.210228 
L 277.594889 225.882612 
L 277.919869 219.183002 
L 278.244848 215.417444 
L 278.569828 209.8248 
L 278.894808 201.889924 
L 279.219787 208.752312 
L 279.544767 203.338249 
L 279.869746 213.592917 
L 280.194726 209.116042 
L 280.519705 221.361477 
L 280.844685 222.411319 
L 281.494644 235.735827 
L 281.819623 238.587774 
L 282.144603 248.468217 
L 282.469582 252.278618 
L 282.794562 249.806074 
L 283.119541 230.625964 
L 283.444521 231.767068 
L 283.7695 222.324303 
L 284.419459 211.212713 
L 284.744439 208.44877 
L 285.069419 209.343668 
L 285.394398 205.724631 
L 286.369337 239.07358 
L 286.694316 234.623997 
L 287.019296 246.783675 
L 287.344275 252.747612 
L 287.669255 256.291509 
L 287.994234 255.071544 
L 288.319214 248.109509 
L 288.969173 256.562048 
L 289.294152 269.320293 
L 290.269091 242.006384 
L 290.59407 243.098288 
L 291.569009 227.253461 
L 291.893989 233.470964 
L 292.543948 206.999311 
L 292.868927 208.583412 
L 293.518886 196.068211 
L 293.843866 200.190743 
L 294.168845 202.480095 
L 294.818804 188.572992 
L 295.143784 190.129881 
L 295.468763 187.003098 
L 295.793743 187.129856 
L 296.118722 189.414251 
L 296.443702 192.547358 
L 296.768681 188.692406 
L 297.093661 173.252383 
L 297.41864 170.429283 
L 298.0686 181.851129 
L 298.393579 182.463272 
L 298.718559 187.700821 
L 299.043538 181.339278 
L 299.368518 177.16313 
L 299.693497 174.597865 
L 300.018477 185.157694 
L 300.343456 200.406104 
L 300.668436 198.170546 
L 300.993415 191.926862 
L 301.318395 189.183823 
L 301.643374 181.211394 
L 301.968354 181.578942 
L 302.293333 167.684482 
L 302.618313 171.113074 
L 302.943292 183.275616 
L 303.268272 174.321369 
L 303.593251 178.426086 
L 303.918231 175.244737 
L 304.24321 167.435799 
L 304.56819 175.678555 
L 304.89317 189.248535 
L 305.543129 177.644431 
L 305.868108 176.616579 
L 306.193088 166.780717 
L 306.518067 165.037473 
L 306.843047 157.293331 
L 307.168026 164.21671 
L 307.493006 163.391024 
L 307.817985 177.033131 
L 308.142965 167.906795 
L 308.467944 171.903913 
L 308.792924 172.489213 
L 309.117903 170.688142 
L 309.442883 176.950496 
L 310.092842 169.305258 
L 310.742801 164.958585 
L 311.067781 168.963817 
L 311.39276 169.929795 
L 311.71774 179.661978 
L 312.367699 151.976091 
L 312.692678 144.822004 
L 313.017658 142.076786 
L 313.342637 149.371659 
L 313.667617 150.482288 
L 313.992596 161.299082 
L 314.317576 167.66268 
L 314.642555 179.223847 
L 314.967535 176.021726 
L 315.292514 166.609309 
L 315.617494 163.64757 
L 315.942473 155.033504 
L 316.267453 160.641938 
L 316.592432 150.818536 
L 317.567371 163.275192 
L 317.892351 165.914538 
L 318.21733 161.185589 
L 318.54231 175.422445 
L 318.867289 168.59687 
L 319.517248 137.736517 
L 319.842228 134.411895 
L 320.167207 134.061426 
L 320.492187 136.696132 
L 320.817166 136.396882 
L 321.142146 132.958602 
L 321.467125 132.323983 
L 321.792105 127.35922 
L 322.442064 114.17607 
L 322.767043 121.690686 
L 323.092023 111.773066 
L 323.417002 124.52759 
L 323.741982 109.916789 
L 324.066962 115.687177 
L 324.716921 101.280479 
L 325.0419 100.518616 
L 325.36688 87.436 
L 325.691859 102.927518 
L 326.016839 99.136007 
L 326.341818 105.170656 
L 326.666798 113.534132 
L 326.991777 110.360982 
L 327.316757 102.681791 
L 327.641736 90.768501 
L 327.966716 96.647507 
L 328.291695 95.569298 
L 328.616675 108.549691 
L 329.266634 139.141845 
L 329.591613 148.494553 
L 329.916593 154.396592 
L 330.241572 142.000834 
L 330.566552 156.543553 
L 331.216511 163.908698 
L 331.541491 168.196018 
L 331.86647 168.915971 
L 332.19145 166.503129 
L 332.516429 172.329082 
L 332.841409 185.428088 
L 333.166388 188.653521 
L 333.491368 195.710765 
L 333.816347 191.411271 
L 334.141327 190.378189 
L 334.791286 166.158058 
L 335.116265 172.677864 
L 335.441245 175.01853 
L 335.766224 174.202242 
L 336.091204 174.925039 
L 336.741163 153.053722 
L 337.066143 140.161559 
L 337.391122 133.384036 
L 337.716102 131.626302 
L 338.041081 119.1092 
L 338.366061 119.425487 
L 338.69104 116.036771 
L 339.01602 117.241424 
L 339.340999 115.112368 
L 339.665979 107.824038 
L 339.990958 92.511108 
L 340.315938 100.286079 
L 340.640917 100.002164 
L 340.965897 101.86879 
L 341.290876 98.98843 
L 341.615856 101.422959 
L 341.940835 91.157123 
L 342.265815 75.650189 
L 342.590794 72.3743 
L 342.915774 71.391993 
L 343.240753 71.599855 
L 343.890713 73.921418 
L 344.215692 73.399326 
L 344.540672 75.084462 
L 344.865651 80.51126 
L 345.190631 74.052161 
L 345.51561 73.545879 
L 346.165569 61.170237 
L 346.490549 65.110669 
L 346.815528 71.700962 
L 347.140508 63.19727 
L 347.465487 59.712243 
L 347.790467 66.393319 
L 348.440426 55.42864 
L 348.765405 56.949052 
L 349.090385 53.568 
L 349.415364 58.305681 
L 349.740344 54.7135 
L 350.065324 60.252194 
L 350.390303 58.229545 
L 350.715283 61.694361 
L 351.040262 62.669733 
L 351.365242 60.125798 
L 351.690221 74.202853 
L 352.015201 72.779435 
L 352.34018 76.092136 
L 352.66516 83.875563 
L 352.990139 98.032378 
L 353.315119 107.346241 
L 353.640098 112.426234 
L 353.965078 105.157187 
L 354.290057 111.122187 
L 354.615037 113.804158 
L 354.940016 108.772174 
L 355.264996 110.714192 
L 355.589975 108.597086 
L 355.914955 98.006335 
L 356.239934 105.598281 
L 356.564914 109.384668 
L 356.889894 109.529102 
L 357.864832 89.402128 
L 358.189812 94.045183 
L 358.514791 88.214501 
L 358.839771 94.333569 
L 359.16475 103.554399 
L 359.48973 106.278462 
L 359.814709 103.298933 
L 360.139689 103.987339 
L 360.464668 87.527502 
L 360.789648 88.3623 
L 361.439607 77.497522 
L 361.764586 86.748808 
L 362.089566 100.569307 
L 362.414545 102.534898 
L 362.739525 91.218551 
L 363.714464 117.020928 
L 364.039443 107.14746 
L 364.364423 102.929034 
L 365.014382 102.424433 
L 365.339361 98.041764 
L 365.664341 103.53121 
L 365.98932 107.034219 
L 366.3143 127.178744 
L 366.639279 130.859267 
L 366.964259 120.854343 
L 367.289238 124.245204 
L 367.614218 113.571347 
L 367.939197 115.568997 
L 368.264177 124.652017 
L 368.589156 125.822731 
L 368.914136 130.895199 
L 369.239115 119.280907 
L 369.889075 124.711641 
L 370.214054 138.075568 
L 370.539034 124.070455 
L 370.864013 118.847927 
L 371.188993 115.722363 
L 371.513972 118.290751 
L 371.838952 128.123316 
L 372.81389 122.888686 
L 373.13887 124.784187 
L 373.788829 117.338223 
L 374.113808 121.625592 
L 374.438788 129.126127 
L 374.763767 117.723531 
L 375.413726 126.285743 
L 375.738706 143.540682 
L 376.063686 141.687719 
L 376.388665 132.942869 
L 376.713645 149.282059 
L 377.038624 150.711016 
L 377.363604 150.04922 
L 377.688583 135.135888 
L 378.013563 142.822664 
L 378.338542 126.854191 
L 378.663522 124.896739 
L 378.988501 134.740798 
L 379.313481 136.03011 
L 379.63846 135.447048 
L 379.96344 124.452296 
L 380.288419 124.611066 
L 380.613399 122.153764 
L 380.938378 126.898761 
L 381.263358 128.837985 
L 381.588337 122.92518 
L 381.913317 141.741929 
L 382.238296 140.101629 
L 382.563276 140.673838 
L 382.888256 142.998739 
L 383.213235 147.655071 
L 383.538215 149.697607 
L 383.863194 138.184628 
L 384.188174 130.882691 
L 384.513153 135.34849 
L 384.838133 129.297209 
L 385.163112 125.726321 
L 385.488092 117.947717 
L 385.813071 114.292856 
L 386.138051 100.156321 
L 386.78801 120.502212 
L 387.112989 123.67462 
L 387.437969 131.478963 
L 387.762948 146.544024 
L 388.087928 136.576735 
L 388.412907 140.950376 
L 388.737887 150.869184 
L 389.062867 150.391859 
L 389.387846 150.966269 
L 389.712826 147.33917 
L 390.037805 153.724843 
L 390.362785 145.304308 
L 390.687764 151.62661 
L 391.012744 139.917961 
L 391.337723 137.426401 
L 391.662703 150.921757 
L 391.987682 150.973842 
L 392.312662 154.386676 
L 392.962621 144.644695 
L 393.2876 136.064169 
L 393.61258 131.317519 
L 393.937559 134.504352 
L 394.262539 139.37006 
L 394.587518 127.255082 
L 394.912498 125.970064 
L 395.237477 128.78517 
L 395.562457 137.488161 
L 396.212416 119.879894 
L 396.537396 123.797071 
L 396.862375 113.148921 
L 397.187355 119.09503 
L 397.512334 119.126834 
L 397.837314 125.734669 
L 398.162293 135.327173 
L 398.487273 134.728215 
L 398.487273 134.728215 
" clip-path="url(#pa33a3cfe7a)" style="fill: none; stroke: #1f77b4; stroke-width: 1.5; stroke-linecap: square"/>
   </g>
   <g id="patch_3">
    <path d="M 57.6 307.584 
L 57.6 41.472 
" style="fill: none; stroke: #000000; stroke-width: 0.8; stroke-linejoin: miter; stroke-linecap: square"/>
   </g>
   <g id="patch_4">
    <path d="M 414.72 307.584 
L 414.72 41.472 
" style="fill: none; stroke: #000000; stroke-width: 0.8; stroke-linejoin: miter; stroke-linecap: square"/>
   </g>
   <g id="patch_5">
    <path d="M 57.6 307.584 
L 414.72 307.584 
" style="fill: none; stroke: #000000; stroke-width: 0.8; stroke-linejoin: miter; stroke-linecap: square"/>
   </g>
   <g id="patch_6">
    <path d="M 57.6 41.472 
L 414.72 41.472 
" style="fill: none; stroke: #000000; stroke-width: 0.8; stroke-linejoin: miter; stroke-linecap: square"/>
   </g>
  </g>
 </g>
 <defs>
  <clipPath id="pa33a3cfe7a">
   <rect x="57.6" y="41.472" width="357.12" height="266.112"/>
  </clipPath>
 </defs>
</svg>
