<?xml version="1.0" encoding="utf-8" standalone="no"?>
<!DOCTYPE svg PUBLIC "-//W3C//DTD SVG 1.1//EN"
  "http://www.w3.org/Graphics/SVG/1.1/DTD/svg11.dtd">
<svg xmlns:xlink="http://www.w3.org/1999/xlink" width="460.8pt" height="345.6pt" viewBox="0 0 460.8 345.6" xmlns="http://www.w3.org/2000/svg" version="1.1">
 <metadata>
  <rdf:RDF xmlns:dc="http://purl.org/dc/elements/1.1/" xmlns:cc="http://creativecommons.org/ns#" xmlns:rdf="http://www.w3.org/1999/02/22-rdf-syntax-ns#">
   <cc:Work>
    <dc:type rdf:resource="http://purl.org/dc/dcmitype/StillImage"/>
    <dc:date>2023-11-06T23:09:36.678545</dc:date>
    <dc:format>image/svg+xml</dc:format>
    <dc:creator>
     <cc:Agent>
      <dc:title>Matplotlib v3.8.1, https://matplotlib.org/</dc:title>
     </cc:Agent>
    </dc:creator>
   </cc:Work>
  </rdf:RDF>
 </metadata>
 <defs>
  <style type="text/css">*{stroke-linejoin: round; stroke-linecap: butt}</style>
 </defs>
 <g id="figure_1">
  <g id="patch_1">
   <path d="M 0 345.6 
L 460.8 345.6 
L 460.8 0 
L 0 0 
z
" style="fill: #ffffff"/>
  </g>
  <g id="axes_1">
   <g id="patch_2">
    <path d="M 57.6 307.584 
L 414.72 307.584 
L 414.72 41.472 
L 57.6 41.472 
z
" style="fill: #ffffff"/>
   </g>
   <g id="matplotlib.axis_1">
    <g id="xtick_1">
     <g id="line2d_1">
      <defs>
       <path id="m56960b8e33" d="M 0 0 
L 0 3.5 
" style="stroke: #000000; stroke-width: 0.8"/>
      </defs>
      <g>
       <use xlink:href="#m56960b8e33" x="73.832727" y="307.584" style="stroke: #000000; stroke-width: 0.8"/>
      </g>
     </g>
     <g id="text_1">
      <!-- 0 -->
      <g transform="translate(70.651477 322.182437) scale(0.1 -0.1)">
       <defs>
        <path id="DejaVuSans-30" d="M 2034 4250 
Q 1547 4250 1301 3770 
Q 1056 3291 1056 2328 
Q 1056 1369 1301 889 
Q 1547 409 2034 409 
Q 2525 409 2770 889 
Q 3016 1369 3016 2328 
Q 3016 3291 2770 3770 
Q 2525 4250 2034 4250 
z
M 2034 4750 
Q 2819 4750 3233 4129 
Q 3647 3509 3647 2328 
Q 3647 1150 3233 529 
Q 2819 -91 2034 -91 
Q 1250 -91 836 529 
Q 422 1150 422 2328 
Q 422 3509 836 4129 
Q 1250 4750 2034 4750 
z
" transform="scale(0.015625)"/>
       </defs>
       <use xlink:href="#DejaVuSans-30"/>
      </g>
     </g>
    </g>
    <g id="xtick_2">
     <g id="line2d_2">
      <g>
       <use xlink:href="#m56960b8e33" x="138.828632" y="307.584" style="stroke: #000000; stroke-width: 0.8"/>
      </g>
     </g>
     <g id="text_2">
      <!-- 200 -->
      <g transform="translate(129.284882 322.182437) scale(0.1 -0.1)">
       <defs>
        <path id="DejaVuSans-32" d="M 1228 531 
L 3431 531 
L 3431 0 
L 469 0 
L 469 531 
Q 828 903 1448 1529 
Q 2069 2156 2228 2338 
Q 2531 2678 2651 2914 
Q 2772 3150 2772 3378 
Q 2772 3750 2511 3984 
Q 2250 4219 1831 4219 
Q 1534 4219 1204 4116 
Q 875 4013 500 3803 
L 500 4441 
Q 881 4594 1212 4672 
Q 1544 4750 1819 4750 
Q 2544 4750 2975 4387 
Q 3406 4025 3406 3419 
Q 3406 3131 3298 2873 
Q 3191 2616 2906 2266 
Q 2828 2175 2409 1742 
Q 1991 1309 1228 531 
z
" transform="scale(0.015625)"/>
       </defs>
       <use xlink:href="#DejaVuSans-32"/>
       <use xlink:href="#DejaVuSans-30" x="63.623047"/>
       <use xlink:href="#DejaVuSans-30" x="127.246094"/>
      </g>
     </g>
    </g>
    <g id="xtick_3">
     <g id="line2d_3">
      <g>
       <use xlink:href="#m56960b8e33" x="203.824537" y="307.584" style="stroke: #000000; stroke-width: 0.8"/>
      </g>
     </g>
     <g id="text_3">
      <!-- 400 -->
      <g transform="translate(194.280787 322.182437) scale(0.1 -0.1)">
       <defs>
        <path id="DejaVuSans-34" d="M 2419 4116 
L 825 1625 
L 2419 1625 
L 2419 4116 
z
M 2253 4666 
L 3047 4666 
L 3047 1625 
L 3713 1625 
L 3713 1100 
L 3047 1100 
L 3047 0 
L 2419 0 
L 2419 1100 
L 313 1100 
L 313 1709 
L 2253 4666 
z
" transform="scale(0.015625)"/>
       </defs>
       <use xlink:href="#DejaVuSans-34"/>
       <use xlink:href="#DejaVuSans-30" x="63.623047"/>
       <use xlink:href="#DejaVuSans-30" x="127.246094"/>
      </g>
     </g>
    </g>
    <g id="xtick_4">
     <g id="line2d_4">
      <g>
       <use xlink:href="#m56960b8e33" x="268.820442" y="307.584" style="stroke: #000000; stroke-width: 0.8"/>
      </g>
     </g>
     <g id="text_4">
      <!-- 600 -->
      <g transform="translate(259.276692 322.182437) scale(0.1 -0.1)">
       <defs>
        <path id="DejaVuSans-36" d="M 2113 2584 
Q 1688 2584 1439 2293 
Q 1191 2003 1191 1497 
Q 1191 994 1439 701 
Q 1688 409 2113 409 
Q 2538 409 2786 701 
Q 3034 994 3034 1497 
Q 3034 2003 2786 2293 
Q 2538 2584 2113 2584 
z
M 3366 4563 
L 3366 3988 
Q 3128 4100 2886 4159 
Q 2644 4219 2406 4219 
Q 1781 4219 1451 3797 
Q 1122 3375 1075 2522 
Q 1259 2794 1537 2939 
Q 1816 3084 2150 3084 
Q 2853 3084 3261 2657 
Q 3669 2231 3669 1497 
Q 3669 778 3244 343 
Q 2819 -91 2113 -91 
Q 1303 -91 875 529 
Q 447 1150 447 2328 
Q 447 3434 972 4092 
Q 1497 4750 2381 4750 
Q 2619 4750 2861 4703 
Q 3103 4656 3366 4563 
z
" transform="scale(0.015625)"/>
       </defs>
       <use xlink:href="#DejaVuSans-36"/>
       <use xlink:href="#DejaVuSans-30" x="63.623047"/>
       <use xlink:href="#DejaVuSans-30" x="127.246094"/>
      </g>
     </g>
    </g>
    <g id="xtick_5">
     <g id="line2d_5">
      <g>
       <use xlink:href="#m56960b8e33" x="333.816347" y="307.584" style="stroke: #000000; stroke-width: 0.8"/>
      </g>
     </g>
     <g id="text_5">
      <!-- 800 -->
      <g transform="translate(324.272597 322.182437) scale(0.1 -0.1)">
       <defs>
        <path id="DejaVuSans-38" d="M 2034 2216 
Q 1584 2216 1326 1975 
Q 1069 1734 1069 1313 
Q 1069 891 1326 650 
Q 1584 409 2034 409 
Q 2484 409 2743 651 
Q 3003 894 3003 1313 
Q 3003 1734 2745 1975 
Q 2488 2216 2034 2216 
z
M 1403 2484 
Q 997 2584 770 2862 
Q 544 3141 544 3541 
Q 544 4100 942 4425 
Q 1341 4750 2034 4750 
Q 2731 4750 3128 4425 
Q 3525 4100 3525 3541 
Q 3525 3141 3298 2862 
Q 3072 2584 2669 2484 
Q 3125 2378 3379 2068 
Q 3634 1759 3634 1313 
Q 3634 634 3220 271 
Q 2806 -91 2034 -91 
Q 1263 -91 848 271 
Q 434 634 434 1313 
Q 434 1759 690 2068 
Q 947 2378 1403 2484 
z
M 1172 3481 
Q 1172 3119 1398 2916 
Q 1625 2713 2034 2713 
Q 2441 2713 2670 2916 
Q 2900 3119 2900 3481 
Q 2900 3844 2670 4047 
Q 2441 4250 2034 4250 
Q 1625 4250 1398 4047 
Q 1172 3844 1172 3481 
z
" transform="scale(0.015625)"/>
       </defs>
       <use xlink:href="#DejaVuSans-38"/>
       <use xlink:href="#DejaVuSans-30" x="63.623047"/>
       <use xlink:href="#DejaVuSans-30" x="127.246094"/>
      </g>
     </g>
    </g>
    <g id="xtick_6">
     <g id="line2d_6">
      <g>
       <use xlink:href="#m56960b8e33" x="398.812252" y="307.584" style="stroke: #000000; stroke-width: 0.8"/>
      </g>
     </g>
     <g id="text_6">
      <!-- 1000 -->
      <g transform="translate(386.087252 322.182437) scale(0.1 -0.1)">
       <defs>
        <path id="DejaVuSans-31" d="M 794 531 
L 1825 531 
L 1825 4091 
L 703 3866 
L 703 4441 
L 1819 4666 
L 2450 4666 
L 2450 531 
L 3481 531 
L 3481 0 
L 794 0 
L 794 531 
z
" transform="scale(0.015625)"/>
       </defs>
       <use xlink:href="#DejaVuSans-31"/>
       <use xlink:href="#DejaVuSans-30" x="63.623047"/>
       <use xlink:href="#DejaVuSans-30" x="127.246094"/>
       <use xlink:href="#DejaVuSans-30" x="190.869141"/>
      </g>
     </g>
    </g>
   </g>
   <g id="matplotlib.axis_2">
    <g id="ytick_1">
     <g id="line2d_7">
      <defs>
       <path id="m486801660d" d="M 0 0 
L -3.5 0 
" style="stroke: #000000; stroke-width: 0.8"/>
      </defs>
      <g>
       <use xlink:href="#m486801660d" x="57.6" y="298.104964" style="stroke: #000000; stroke-width: 0.8"/>
      </g>
     </g>
     <g id="text_7">
      <!-- 0 -->
      <g transform="translate(44.2375 301.904183) scale(0.1 -0.1)">
       <use xlink:href="#DejaVuSans-30"/>
      </g>
     </g>
    </g>
    <g id="ytick_2">
     <g id="line2d_8">
      <g>
       <use xlink:href="#m486801660d" x="57.6" y="254.567486" style="stroke: #000000; stroke-width: 0.8"/>
      </g>
     </g>
     <g id="text_8">
      <!-- 10 -->
      <g transform="translate(37.875 258.366705) scale(0.1 -0.1)">
       <use xlink:href="#DejaVuSans-31"/>
       <use xlink:href="#DejaVuSans-30" x="63.623047"/>
      </g>
     </g>
    </g>
    <g id="ytick_3">
     <g id="line2d_9">
      <g>
       <use xlink:href="#m486801660d" x="57.6" y="211.030008" style="stroke: #000000; stroke-width: 0.8"/>
      </g>
     </g>
     <g id="text_9">
      <!-- 20 -->
      <g transform="translate(37.875 214.829227) scale(0.1 -0.1)">
       <use xlink:href="#DejaVuSans-32"/>
       <use xlink:href="#DejaVuSans-30" x="63.623047"/>
      </g>
     </g>
    </g>
    <g id="ytick_4">
     <g id="line2d_10">
      <g>
       <use xlink:href="#m486801660d" x="57.6" y="167.49253" style="stroke: #000000; stroke-width: 0.8"/>
      </g>
     </g>
     <g id="text_10">
      <!-- 30 -->
      <g transform="translate(37.875 171.291749) scale(0.1 -0.1)">
       <defs>
        <path id="DejaVuSans-33" d="M 2597 2516 
Q 3050 2419 3304 2112 
Q 3559 1806 3559 1356 
Q 3559 666 3084 287 
Q 2609 -91 1734 -91 
Q 1441 -91 1130 -33 
Q 819 25 488 141 
L 488 750 
Q 750 597 1062 519 
Q 1375 441 1716 441 
Q 2309 441 2620 675 
Q 2931 909 2931 1356 
Q 2931 1769 2642 2001 
Q 2353 2234 1838 2234 
L 1294 2234 
L 1294 2753 
L 1863 2753 
Q 2328 2753 2575 2939 
Q 2822 3125 2822 3475 
Q 2822 3834 2567 4026 
Q 2313 4219 1838 4219 
Q 1578 4219 1281 4162 
Q 984 4106 628 3988 
L 628 4550 
Q 988 4650 1302 4700 
Q 1616 4750 1894 4750 
Q 2613 4750 3031 4423 
Q 3450 4097 3450 3541 
Q 3450 3153 3228 2886 
Q 3006 2619 2597 2516 
z
" transform="scale(0.015625)"/>
       </defs>
       <use xlink:href="#DejaVuSans-33"/>
       <use xlink:href="#DejaVuSans-30" x="63.623047"/>
      </g>
     </g>
    </g>
    <g id="ytick_5">
     <g id="line2d_11">
      <g>
       <use xlink:href="#m486801660d" x="57.6" y="123.955052" style="stroke: #000000; stroke-width: 0.8"/>
      </g>
     </g>
     <g id="text_11">
      <!-- 40 -->
      <g transform="translate(37.875 127.754271) scale(0.1 -0.1)">
       <use xlink:href="#DejaVuSans-34"/>
       <use xlink:href="#DejaVuSans-30" x="63.623047"/>
      </g>
     </g>
    </g>
    <g id="ytick_6">
     <g id="line2d_12">
      <g>
       <use xlink:href="#m486801660d" x="57.6" y="80.417574" style="stroke: #000000; stroke-width: 0.8"/>
      </g>
     </g>
     <g id="text_12">
      <!-- 50 -->
      <g transform="translate(37.875 84.216793) scale(0.1 -0.1)">
       <defs>
        <path id="DejaVuSans-35" d="M 691 4666 
L 3169 4666 
L 3169 4134 
L 1269 4134 
L 1269 2991 
Q 1406 3038 1543 3061 
Q 1681 3084 1819 3084 
Q 2600 3084 3056 2656 
Q 3513 2228 3513 1497 
Q 3513 744 3044 326 
Q 2575 -91 1722 -91 
Q 1428 -91 1123 -41 
Q 819 9 494 109 
L 494 744 
Q 775 591 1075 516 
Q 1375 441 1709 441 
Q 2250 441 2565 725 
Q 2881 1009 2881 1497 
Q 2881 1984 2565 2268 
Q 2250 2553 1709 2553 
Q 1456 2553 1204 2497 
Q 953 2441 691 2322 
L 691 4666 
z
" transform="scale(0.015625)"/>
       </defs>
       <use xlink:href="#DejaVuSans-35"/>
       <use xlink:href="#DejaVuSans-30" x="63.623047"/>
      </g>
     </g>
    </g>
   </g>
   <g id="line2d_13">
    <path d="M 73.832727 295.488 
L 74.157707 293.492255 
L 74.807666 286.420203 
L 75.132645 284.275069 
L 75.457625 281.304443 
L 75.782604 288.298681 
L 76.107584 285.377837 
L 76.432563 285.369684 
L 77.082523 286.596824 
L 77.407502 290.299055 
L 77.732482 287.362141 
L 78.382441 277.227634 
L 78.70742 279.606481 
L 79.0324 274.360793 
L 79.357379 275.256232 
L 79.682359 274.546943 
L 80.007338 279.290303 
L 80.332318 279.299887 
L 80.657297 274.962309 
L 80.982277 273.624249 
L 81.307256 277.067455 
L 81.632236 277.300095 
L 81.957215 275.3268 
L 82.282195 276.643054 
L 82.607174 265.091788 
L 82.932154 267.051998 
L 83.257133 258.463731 
L 83.582113 261.958919 
L 83.907093 263.583059 
L 84.232072 261.699583 
L 85.207011 277.401947 
L 85.53199 273.098457 
L 85.85697 273.919279 
L 86.506929 277.680244 
L 86.831908 279.311628 
L 87.481867 263.425376 
L 87.806847 268.395081 
L 88.131826 269.644254 
L 88.456806 269.957382 
L 88.781785 272.946654 
L 89.106765 266.511776 
L 89.431744 268.878247 
L 89.756724 265.934159 
L 90.081704 266.391026 
L 90.406683 267.293753 
L 90.731663 267.52675 
L 91.381622 266.333766 
L 91.706601 268.037222 
L 92.031581 260.583659 
L 92.35656 268.266232 
L 92.68154 264.377079 
L 93.006519 263.931117 
L 93.331499 264.271007 
L 93.656478 260.354459 
L 93.981458 261.000417 
L 94.306437 257.315336 
L 94.631417 248.577849 
L 94.956396 254.352381 
L 95.281376 253.354476 
L 95.606355 253.797588 
L 95.931335 253.788879 
L 96.256314 253.642361 
L 96.581294 250.037633 
L 97.231253 248.841494 
L 97.556233 247.056521 
L 97.881212 246.031817 
L 98.531171 239.763677 
L 98.856151 240.578444 
L 99.18113 240.663543 
L 99.50611 241.597117 
L 99.831089 246.328008 
L 100.156069 243.622392 
L 100.481048 243.32385 
L 100.806028 247.225452 
L 101.131007 238.394614 
L 101.455987 243.114204 
L 101.780966 235.934088 
L 102.105946 236.893857 
L 102.430925 239.263011 
L 102.755905 240.73384 
L 103.080885 243.496705 
L 103.405864 249.438017 
L 103.730844 251.293694 
L 104.055823 246.77183 
L 105.030762 238.719583 
L 105.355741 242.357997 
L 106.0057 251.527127 
L 106.33068 247.3231 
L 106.655659 254.28908 
L 106.980639 246.866321 
L 107.305618 249.435202 
L 107.630598 250.795058 
L 107.955577 253.886471 
L 108.280557 252.877017 
L 108.930516 234.319972 
L 109.255495 239.99351 
L 109.580475 242.918543 
L 110.230434 235.158447 
L 110.555414 235.396196 
L 110.880393 238.231776 
L 111.205373 229.978458 
L 111.530352 231.222616 
L 111.855332 229.678703 
L 112.505291 224.831111 
L 112.83027 227.336573 
L 113.15525 222.800382 
L 113.480229 220.55481 
L 113.805209 222.469769 
L 114.455168 222.771385 
L 115.105127 209.753651 
L 115.430106 209.78411 
L 115.755086 207.835243 
L 116.405045 196.863203 
L 116.730025 197.32164 
L 117.055004 195.890787 
L 117.379984 196.69632 
L 117.704963 196.602125 
L 118.029943 198.934994 
L 118.354922 196.732933 
L 118.679902 191.770924 
L 119.004881 190.400457 
L 119.65484 178.952572 
L 119.97982 180.373204 
L 120.629779 185.148894 
L 120.954758 178.333687 
L 121.279738 174.632529 
L 121.604717 178.728349 
L 121.929697 176.109205 
L 122.254676 166.339794 
L 122.579656 167.203981 
L 122.904636 164.540715 
L 123.229615 160.26579 
L 123.554595 145.961184 
L 123.879574 146.404358 
L 124.529533 132.947957 
L 124.854513 130.833413 
L 125.179492 131.790494 
L 125.504472 137.232066 
L 125.829451 138.491173 
L 126.47941 129.88321 
L 126.80439 129.212962 
L 127.129369 127.234021 
L 127.454349 132.005397 
L 127.779328 133.785186 
L 128.104308 131.811112 
L 128.429287 132.26945 
L 128.754267 139.973376 
L 129.079247 143.358012 
L 129.404226 140.098415 
L 129.729206 140.55039 
L 130.054185 138.750327 
L 130.704144 143.907639 
L 131.029124 144.356357 
L 131.354103 143.518363 
L 131.679083 139.366326 
L 132.004062 148.593025 
L 132.654021 143.288412 
L 132.979001 140.982532 
L 133.30398 140.907354 
L 133.62896 142.931793 
L 133.953939 141.084013 
L 134.278919 141.194498 
L 134.603898 147.833679 
L 135.253857 135.53032 
L 135.578837 135.387218 
L 135.903817 133.676976 
L 136.228796 137.725569 
L 136.553776 138.776792 
L 136.878755 142.759954 
L 137.203735 148.978898 
L 137.528714 145.343573 
L 137.853694 144.547832 
L 138.503653 151.757895 
L 138.828632 161.308672 
L 139.153612 164.238671 
L 139.478591 158.312658 
L 140.45353 172.793524 
L 140.778509 174.024905 
L 141.428468 181.201512 
L 141.753448 188.831007 
L 142.078428 187.87533 
L 142.403407 184.956936 
L 142.728387 180.885772 
L 143.053366 173.856927 
L 143.378346 175.088313 
L 143.703325 175.679849 
L 144.353284 168.640276 
L 144.678264 161.43046 
L 145.003243 162.67481 
L 145.328223 159.113873 
L 145.978182 166.694086 
L 146.303161 175.087715 
L 146.628141 172.366311 
L 146.95312 173.599401 
L 147.2781 178.078898 
L 147.603079 179.694089 
L 147.928059 179.733621 
L 148.253038 182.007105 
L 149.227977 192.521911 
L 149.552957 192.329098 
L 149.877936 190.201143 
L 150.202916 198.68791 
L 150.527895 196.47358 
L 150.852875 195.71613 
L 151.502834 188.805557 
L 151.827813 187.556238 
L 152.152793 191.849375 
L 152.477772 192.276474 
L 152.802752 188.543013 
L 153.127731 173.330346 
L 153.77769 155.832829 
L 154.10267 153.392045 
L 154.427649 146.981272 
L 154.752629 151.139311 
L 155.077609 149.371844 
L 155.402588 150.824821 
L 155.727568 154.520902 
L 156.052547 155.103438 
L 156.377527 150.477014 
L 156.702506 151.083153 
L 157.027486 160.220945 
L 157.677445 162.955897 
L 158.002424 160.720687 
L 158.327404 160.775687 
L 158.652383 163.204613 
L 158.977363 166.601321 
L 159.302342 156.654582 
L 159.952301 164.399141 
L 160.60226 167.996772 
L 160.92724 175.47569 
L 161.252219 172.765158 
L 161.577199 174.298392 
L 161.902179 176.467933 
L 162.227158 176.923574 
L 162.552138 176.685061 
L 162.877117 171.435195 
L 163.202097 170.702081 
L 163.527076 173.221864 
L 163.852056 176.844094 
L 164.502015 169.598384 
L 164.826994 173.780064 
L 165.151974 174.530573 
L 165.801933 186.257097 
L 166.126912 186.219336 
L 166.451892 179.674649 
L 166.776871 187.460484 
L 167.42683 192.022005 
L 167.75181 190.083953 
L 168.07679 191.154207 
L 168.401769 198.431692 
L 168.726749 200.962047 
L 169.051728 194.937293 
L 169.376708 194.472164 
L 169.701687 190.316199 
L 170.026667 189.969049 
L 170.676626 197.073149 
L 171.001605 201.685973 
L 171.326585 194.673153 
L 171.651564 198.273149 
L 171.976544 203.349446 
L 172.301523 202.035915 
L 172.626503 196.926336 
L 172.951482 197.755232 
L 173.276462 195.918237 
L 173.601441 203.553217 
L 173.926421 206.494399 
L 174.2514 202.232684 
L 174.57638 207.933094 
L 174.90136 203.442133 
L 175.226339 201.395619 
L 175.551319 203.113 
L 175.876298 196.111001 
L 176.201278 197.507448 
L 176.526257 195.840648 
L 176.851237 197.686137 
L 177.501196 186.947046 
L 177.826175 188.090977 
L 178.151155 181.9469 
L 178.476134 178.716562 
L 178.801114 181.224018 
L 179.126093 175.738045 
L 179.451073 172.174649 
L 179.776052 177.117276 
L 180.101032 179.298895 
L 180.426011 180.044228 
L 180.750991 190.613424 
L 181.075971 183.591451 
L 181.40095 186.9692 
L 182.050909 190.586037 
L 182.375889 194.788135 
L 182.700868 188.436659 
L 183.350827 184.198411 
L 183.675807 179.957419 
L 184.000786 174.01198 
L 184.325766 173.745177 
L 184.650745 174.792186 
L 184.975725 169.567365 
L 185.300704 169.059079 
L 185.625684 164.724923 
L 185.950663 170.018081 
L 186.275643 168.857031 
L 186.600622 160.725959 
L 186.925602 166.245273 
L 187.575561 171.350506 
L 187.900541 174.574815 
L 188.22552 166.598297 
L 188.5505 165.606795 
L 188.875479 160.345637 
L 189.200459 158.098712 
L 189.525438 149.66146 
L 189.850418 148.715649 
L 190.500377 139.308293 
L 190.825356 136.84876 
L 191.150336 136.479573 
L 191.475315 139.52 
L 191.800295 137.161532 
L 192.125274 140.792122 
L 192.450254 137.585352 
L 192.775233 140.890859 
L 193.100213 142.152748 
L 193.425192 141.010617 
L 193.750172 140.859346 
L 194.075152 138.476769 
L 194.400131 143.315707 
L 194.725111 144.509122 
L 195.05009 145.059421 
L 195.37507 137.24592 
L 196.025029 140.950542 
L 196.350008 140.39939 
L 196.674988 142.015106 
L 196.999967 143.065581 
L 197.324947 145.527776 
L 197.649926 153.420188 
L 197.974906 149.637682 
L 198.299885 147.374408 
L 198.624865 147.754749 
L 198.949844 143.219534 
L 199.274824 140.72263 
L 199.599803 142.586017 
L 199.924783 140.157328 
L 200.249762 136.35688 
L 200.574742 144.132068 
L 200.899722 145.09913 
L 201.549681 141.17398 
L 201.87466 134.905103 
L 202.19964 135.464094 
L 202.524619 135.123332 
L 202.849599 124.476581 
L 203.174578 127.244166 
L 203.499558 125.100819 
L 203.824537 126.45255 
L 205.124455 140.276891 
L 205.449435 140.346763 
L 205.774414 138.685805 
L 206.099394 140.369944 
L 206.424373 141.089039 
L 206.749353 139.294871 
L 207.074333 141.243492 
L 207.399312 137.311794 
L 207.724292 138.055762 
L 208.049271 126.737942 
L 208.374251 128.741025 
L 208.69923 124.389602 
L 209.02421 125.62288 
L 209.349189 118.40782 
L 209.999148 117.082548 
L 210.324128 123.893226 
L 210.649107 120.375109 
L 210.974087 123.874834 
L 211.299066 126.092701 
L 211.949025 121.135032 
L 212.274005 110.809369 
L 212.598984 107.003469 
L 212.923964 106.425965 
L 213.248943 106.11293 
L 213.573923 108.097127 
L 213.898903 108.719296 
L 214.223882 107.422004 
L 214.873841 95.602635 
L 215.198821 88.035925 
L 215.5238 92.870376 
L 215.84878 91.41637 
L 216.498739 84.139568 
L 216.823718 82.59738 
L 217.148698 75.227447 
L 217.473677 79.943221 
L 217.798657 80.106146 
L 218.123636 78.616726 
L 218.448616 82.580405 
L 218.773595 79.422114 
L 219.098575 80.916298 
L 219.423554 79.814764 
L 219.748534 79.533341 
L 220.073514 74.327552 
L 220.398493 73.325443 
L 220.723473 78.445813 
L 221.048452 76.765117 
L 221.373432 73.389777 
L 221.698411 79.099742 
L 222.023391 80.245215 
L 222.34837 76.303722 
L 222.67335 81.236707 
L 223.323309 71.621376 
L 223.648288 69.595351 
L 223.973268 62.018654 
L 224.298247 59.121419 
L 224.623227 60.368084 
L 224.948206 63.407401 
L 225.273186 63.745816 
L 225.598165 64.631693 
L 225.923145 59.704716 
L 226.248124 57.147894 
L 226.898084 69.211305 
L 227.223063 65.629306 
L 227.548043 64.946651 
L 227.873022 71.065282 
L 228.522981 77.469933 
L 228.847961 73.78854 
L 229.17294 68.657822 
L 229.49792 70.243189 
L 229.822899 65.586259 
L 230.147879 66.07658 
L 230.472858 66.829635 
L 230.797838 64.961531 
L 231.122817 61.555922 
L 231.447797 65.171646 
L 231.772776 61.825072 
L 232.097756 63.169394 
L 232.422735 61.552734 
L 232.747715 58.428495 
L 233.072695 60.451828 
L 233.397674 58.950574 
L 233.722654 53.568 
L 234.372613 58.7971 
L 234.697592 59.960028 
L 235.347551 55.294544 
L 235.672531 58.209279 
L 236.32249 61.874554 
L 236.647469 67.657365 
L 236.972449 77.816754 
L 237.297428 78.535415 
L 237.622408 74.518789 
L 237.947387 77.3286 
L 238.272367 72.122127 
L 238.597346 70.199547 
L 238.922326 69.833232 
L 239.247305 64.664447 
L 239.572285 71.872351 
L 239.897265 74.21509 
L 240.222244 69.923841 
L 240.547224 70.866693 
L 240.872203 70.443277 
L 241.197183 69.127507 
L 241.522162 65.102037 
L 241.847142 73.273059 
L 242.172121 71.270046 
L 242.497101 78.346948 
L 242.82208 78.916352 
L 243.14706 70.694838 
L 243.797019 80.864818 
L 244.121998 78.916613 
L 244.446978 82.4479 
L 245.096937 91.971973 
L 245.421916 93.629368 
L 245.746896 99.319691 
L 246.071876 98.33353 
L 246.396855 105.21981 
L 247.046814 110.504322 
L 247.371794 110.284782 
L 247.696773 111.490533 
L 248.021753 111.64713 
L 248.346732 118.84608 
L 248.671712 111.40233 
L 248.996691 109.941259 
L 249.321671 106.98158 
L 249.64665 108.510835 
L 249.97163 112.556461 
L 250.296609 114.586379 
L 250.621589 113.313261 
L 250.946568 113.002599 
L 251.271548 108.81804 
L 251.921507 120.010153 
L 252.246486 121.516759 
L 252.571466 121.032115 
L 252.896446 123.641687 
L 253.546405 118.880117 
L 253.871384 117.94779 
L 254.846323 131.184989 
L 255.171302 131.695963 
L 255.496282 134.273895 
L 255.821261 144.10398 
L 256.146241 146.354771 
L 256.47122 150.754417 
L 256.7962 152.412053 
L 257.121179 152.93574 
L 257.446159 151.875377 
L 257.771138 149.642038 
L 258.096118 154.812107 
L 258.421097 154.639794 
L 258.746077 156.263082 
L 259.071057 156.135436 
L 259.396036 159.093685 
L 259.721016 164.858431 
L 260.045995 163.370534 
L 260.370975 157.843029 
L 260.695954 164.852185 
L 261.020934 167.87506 
L 261.670893 177.181609 
L 261.995872 168.224243 
L 262.320852 169.784845 
L 262.645831 163.359217 
L 262.970811 174.069137 
L 263.29579 175.128836 
L 263.945749 169.430859 
L 264.270729 165.205137 
L 264.595708 169.278287 
L 264.920688 163.462716 
L 265.245667 165.495418 
L 265.895627 150.687852 
L 266.220606 149.884365 
L 266.545586 150.590644 
L 266.870565 162.092031 
L 267.195545 167.432708 
L 267.520524 161.023439 
L 267.845504 162.712409 
L 268.170483 152.768895 
L 268.495463 153.34835 
L 269.145422 164.949125 
L 269.470401 168.723447 
L 269.795381 165.362271 
L 270.12036 167.442386 
L 270.44534 165.3116 
L 270.770319 162.085823 
L 271.095299 156.82534 
L 271.420278 160.940953 
L 271.745258 156.049328 
L 272.070238 158.380767 
L 272.395217 152.646935 
L 272.720197 154.392574 
L 273.045176 149.387107 
L 273.370156 155.590042 
L 273.695135 157.113405 
L 274.345094 151.818182 
L 274.670074 151.707337 
L 274.995053 150.106341 
L 275.320033 149.712947 
L 275.645012 154.12076 
L 275.969992 149.669103 
L 276.294971 155.485958 
L 276.619951 156.244872 
L 276.94493 165.543135 
L 277.26991 156.542175 
L 277.594889 152.567579 
L 277.919869 154.794775 
L 278.244848 155.535794 
L 278.569828 163.029545 
L 278.894808 162.658563 
L 279.219787 159.113893 
L 279.544767 165.657779 
L 279.869746 154.945209 
L 280.194726 161.699648 
L 280.519705 161.526631 
L 280.844685 155.383468 
L 281.169664 153.588547 
L 281.819623 148.262396 
L 282.144603 148.232895 
L 282.469582 150.570429 
L 282.794562 146.852605 
L 283.119541 146.207629 
L 283.7695 158.844888 
L 284.09448 153.994686 
L 284.419459 154.612083 
L 284.744439 154.004873 
L 285.069419 155.415738 
L 285.394398 148.160244 
L 285.719378 148.208803 
L 286.044357 151.700364 
L 286.369337 158.961423 
L 286.694316 159.214588 
L 287.019296 158.223626 
L 287.344275 155.893105 
L 287.669255 154.52385 
L 287.994234 157.366635 
L 288.319214 153.326746 
L 288.644193 160.795078 
L 288.969173 157.535924 
L 289.294152 163.100336 
L 289.619132 158.529489 
L 289.944111 158.005901 
L 290.269091 164.014419 
L 290.59407 163.969098 
L 290.91905 161.179235 
L 291.244029 170.606283 
L 291.569009 170.597346 
L 291.893989 171.234244 
L 292.218968 164.652026 
L 292.543948 171.054567 
L 292.868927 174.301645 
L 293.193907 173.797268 
L 293.518886 180.142622 
L 293.843866 174.228031 
L 294.168845 175.081496 
L 294.493825 184.931379 
L 294.818804 175.802668 
L 295.143784 178.740982 
L 295.468763 188.190194 
L 295.793743 181.292068 
L 296.118722 178.451815 
L 296.443702 179.166533 
L 297.093661 176.027168 
L 297.41864 180.206391 
L 297.74362 180.79771 
L 298.0686 178.387964 
L 298.393579 177.891937 
L 299.043538 176.133148 
L 299.368518 173.946702 
L 299.693497 164.908638 
L 300.343456 155.578738 
L 300.668436 145.668702 
L 300.993415 150.860071 
L 301.318395 153.796519 
L 301.643374 151.524459 
L 301.968354 144.800095 
L 302.293333 142.754847 
L 302.618313 135.211736 
L 302.943292 134.570549 
L 303.268272 136.638763 
L 303.593251 137.830805 
L 303.918231 140.484468 
L 304.24321 148.25962 
L 304.56819 145.662372 
L 304.89317 145.640286 
L 305.218149 149.040941 
L 305.868108 160.107289 
L 306.193088 160.412105 
L 306.518067 156.286603 
L 306.843047 160.838686 
L 307.168026 157.054625 
L 307.493006 158.174864 
L 307.817985 158.409235 
L 308.142965 155.654024 
L 308.467944 159.365585 
L 308.792924 157.736369 
L 309.767862 149.807804 
L 310.092842 151.034752 
L 310.417821 156.013678 
L 310.742801 155.695001 
L 311.067781 156.785784 
L 311.39276 155.585147 
L 311.71774 155.367134 
L 312.042719 155.629795 
L 312.367699 155.585433 
L 312.692678 148.629013 
L 313.017658 152.740473 
L 313.342637 154.002404 
L 313.667617 159.982239 
L 313.992596 157.550747 
L 314.317576 156.309583 
L 314.642555 158.684738 
L 314.967535 161.931285 
L 315.292514 162.247475 
L 315.617494 159.957713 
L 315.942473 160.87302 
L 316.267453 158.510842 
L 316.592432 163.920849 
L 316.917412 161.086623 
L 317.567371 165.572251 
L 317.892351 165.487901 
L 318.54231 157.388289 
L 318.867289 157.857597 
L 319.192269 164.088453 
L 319.517248 163.602687 
L 319.842228 164.501355 
L 320.167207 164.003973 
L 320.492187 159.052309 
L 320.817166 163.574617 
L 321.142146 156.978218 
L 321.467125 159.292468 
L 321.792105 164.864571 
L 322.117084 165.765293 
L 322.442064 159.711101 
L 322.767043 159.331028 
L 323.092023 159.62588 
L 323.417002 158.21645 
L 323.741982 156.303039 
L 324.066962 159.698423 
L 324.391941 160.414331 
L 324.716921 158.861673 
L 325.36688 165.25408 
L 325.691859 165.981347 
L 326.016839 164.635489 
L 326.341818 160.248722 
L 326.666798 158.971933 
L 326.991777 150.474643 
L 327.316757 152.664013 
L 327.641736 151.47083 
L 327.966716 141.863658 
L 328.291695 143.792689 
L 328.616675 142.936309 
L 329.266634 150.906541 
L 329.591613 158.91734 
L 329.916593 153.65723 
L 330.241572 153.052792 
L 330.566552 149.089979 
L 330.891532 148.333594 
L 331.216511 144.643923 
L 331.541491 148.288199 
L 331.86647 144.923169 
L 332.19145 153.691769 
L 332.516429 152.335377 
L 332.841409 154.167528 
L 333.166388 158.950857 
L 333.491368 166.994388 
L 333.816347 160.774872 
L 334.141327 158.150333 
L 334.466306 160.746798 
L 334.791286 158.91358 
L 335.116265 151.276655 
L 335.441245 152.841729 
L 335.766224 153.580854 
L 336.416183 160.548616 
L 336.741163 152.162908 
L 337.066143 161.242825 
L 337.391122 166.470739 
L 337.716102 164.902195 
L 338.041081 168.252947 
L 338.366061 164.087092 
L 338.69104 157.797044 
L 339.01602 157.704821 
L 339.340999 163.205139 
L 339.665979 163.512395 
L 339.990958 161.354952 
L 340.315938 158.382189 
L 340.965897 149.454784 
L 341.290876 148.553327 
L 341.615856 150.951115 
L 341.940835 154.844946 
L 342.265815 154.096844 
L 342.915774 170.329427 
L 343.890713 163.189081 
L 344.540672 167.802927 
L 344.865651 165.899795 
L 345.190631 165.362271 
L 345.84059 172.675879 
L 346.165569 168.324108 
L 346.490549 170.923528 
L 346.815528 170.911513 
L 347.140508 167.641297 
L 347.465487 168.290531 
L 347.790467 168.078613 
L 348.115446 164.395197 
L 348.440426 166.812775 
L 348.765405 166.069695 
L 349.415364 171.403589 
L 349.740344 168.668644 
L 350.065324 170.509255 
L 350.390303 169.95349 
L 350.715283 171.969492 
L 351.040262 173.277385 
L 351.365242 179.886332 
L 352.015201 167.660936 
L 352.34018 158.717245 
L 352.66516 162.615659 
L 352.990139 159.985388 
L 353.315119 153.421881 
L 353.640098 159.367554 
L 353.965078 159.465065 
L 354.290057 151.758994 
L 354.615037 153.101887 
L 354.940016 153.072756 
L 355.264996 160.108223 
L 355.589975 169.825816 
L 355.914955 172.279775 
L 356.564914 174.036815 
L 356.889894 169.498101 
L 357.214873 172.685455 
L 357.539853 178.069552 
L 357.864832 180.977707 
L 358.189812 178.071104 
L 358.514791 177.36944 
L 358.839771 177.555487 
L 359.16475 179.882995 
L 359.48973 191.86334 
L 359.814709 185.032632 
L 360.139689 191.348156 
L 360.464668 191.351621 
L 360.789648 182.986035 
L 361.114627 187.224325 
L 361.439607 188.755657 
L 361.764586 191.260784 
L 362.089566 195.835573 
L 362.414545 206.462194 
L 363.064505 216.970828 
L 363.389484 208.305248 
L 363.714464 208.352963 
L 364.039443 203.828889 
L 364.364423 213.533699 
L 364.689402 214.438768 
L 365.014382 222.881534 
L 365.339361 225.285316 
L 365.664341 221.783944 
L 365.98932 225.058234 
L 366.3143 225.111623 
L 366.964259 221.06223 
L 367.289238 217.092572 
L 367.614218 222.357354 
L 367.939197 210.673251 
L 368.589156 202.942697 
L 369.239115 207.04212 
L 369.564095 204.636962 
L 369.889075 200.037177 
L 370.214054 203.022476 
L 370.539034 202.964765 
L 370.864013 200.722407 
L 371.188993 196.602486 
L 371.513972 196.244693 
L 371.838952 199.146652 
L 372.163931 205.94055 
L 372.488911 206.306618 
L 372.81389 207.665736 
L 373.13887 211.889216 
L 373.463849 204.922455 
L 373.788829 205.468906 
L 374.113808 206.285136 
L 374.763767 199.746713 
L 375.088747 201.0933 
L 375.738706 200.155328 
L 376.063686 203.744607 
L 376.388665 199.259694 
L 376.713645 196.90009 
L 377.038624 198.811477 
L 377.363604 198.246387 
L 377.688583 203.406706 
L 378.013563 200.260903 
L 378.338542 195.620287 
L 378.663522 201.322143 
L 378.988501 204.607123 
L 379.313481 205.658538 
L 379.63846 211.448757 
L 379.96344 214.770704 
L 380.288419 207.148799 
L 380.613399 204.703784 
L 380.938378 204.170453 
L 381.263358 199.62773 
L 381.588337 199.643295 
L 382.238296 205.723493 
L 382.563276 211.77902 
L 382.888256 208.41662 
L 383.213235 210.163123 
L 383.538215 207.297845 
L 383.863194 212.510079 
L 384.188174 211.028499 
L 384.838133 196.834502 
L 385.163112 195.589677 
L 385.488092 190.541028 
L 385.813071 194.701866 
L 386.138051 191.828057 
L 386.46303 190.042215 
L 387.112989 201.795855 
L 387.437969 201.084432 
L 387.762948 203.216018 
L 388.087928 203.032336 
L 388.737887 215.214626 
L 389.062867 216.431517 
L 389.387846 212.926303 
L 389.712826 219.468697 
L 390.037805 217.327282 
L 390.362785 222.86125 
L 390.687764 226.109808 
L 391.012744 219.146942 
L 391.337723 224.110123 
L 391.662703 216.547983 
L 391.987682 224.502706 
L 392.312662 224.753805 
L 392.962621 233.252596 
L 393.2876 234.903325 
L 393.61258 226.482817 
L 393.937559 228.214967 
L 394.587518 226.70775 
L 394.912498 228.31442 
L 395.562457 223.701501 
L 395.887437 226.288408 
L 396.212416 223.136288 
L 397.187355 201.111774 
L 397.512334 197.05636 
L 397.837314 205.157509 
L 398.162293 207.101453 
L 398.487273 208.312008 
L 398.487273 208.312008 
" clip-path="url(#p74de137d22)" style="fill: none; stroke: #1f77b4; stroke-width: 1.5; stroke-linecap: square"/>
   </g>
   <g id="patch_3">
    <path d="M 57.6 307.584 
L 57.6 41.472 
" style="fill: none; stroke: #000000; stroke-width: 0.8; stroke-linejoin: miter; stroke-linecap: square"/>
   </g>
   <g id="patch_4">
    <path d="M 414.72 307.584 
L 414.72 41.472 
" style="fill: none; stroke: #000000; stroke-width: 0.8; stroke-linejoin: miter; stroke-linecap: square"/>
   </g>
   <g id="patch_5">
    <path d="M 57.6 307.584 
L 414.72 307.584 
" style="fill: none; stroke: #000000; stroke-width: 0.8; stroke-linejoin: miter; stroke-linecap: square"/>
   </g>
   <g id="patch_6">
    <path d="M 57.6 41.472 
L 414.72 41.472 
" style="fill: none; stroke: #000000; stroke-width: 0.8; stroke-linejoin: miter; stroke-linecap: square"/>
   </g>
   <g id="legend_1">
    <g id="patch_7">
     <path d="M 369.80125 64.150125 
L 407.72 64.150125 
Q 409.72 64.150125 409.72 62.150125 
L 409.72 48.472 
Q 409.72 46.472 407.72 46.472 
L 369.80125 46.472 
Q 367.80125 46.472 367.80125 48.472 
L 367.80125 62.150125 
Q 367.80125 64.150125 369.80125 64.150125 
z
" style="fill: #ffffff; opacity: 0.8; stroke: #cccccc; stroke-linejoin: miter"/>
    </g>
    <g id="line2d_14">
     <path d="M 371.80125 54.570438 
L 381.80125 54.570438 
L 391.80125 54.570438 
" style="fill: none; stroke: #1f77b4; stroke-width: 1.5; stroke-linecap: square"/>
    </g>
    <g id="text_13">
     <!-- y -->
     <g transform="translate(399.80125 58.070438) scale(0.1 -0.1)">
      <defs>
       <path id="DejaVuSans-79" d="M 2059 -325 
Q 1816 -950 1584 -1140 
Q 1353 -1331 966 -1331 
L 506 -1331 
L 506 -850 
L 844 -850 
Q 1081 -850 1212 -737 
Q 1344 -625 1503 -206 
L 1606 56 
L 191 3500 
L 800 3500 
L 1894 763 
L 2988 3500 
L 3597 3500 
L 2059 -325 
z
" transform="scale(0.015625)"/>
      </defs>
      <use xlink:href="#DejaVuSans-79"/>
     </g>
    </g>
   </g>
  </g>
 </g>
 <defs>
  <clipPath id="p74de137d22">
   <rect x="57.6" y="41.472" width="357.12" height="266.112"/>
  </clipPath>
 </defs>
</svg>
