<?xml version="1.0" encoding="utf-8" standalone="no"?>
<!DOCTYPE svg PUBLIC "-//W3C//DTD SVG 1.1//EN"
  "http://www.w3.org/Graphics/SVG/1.1/DTD/svg11.dtd">
<svg xmlns:xlink="http://www.w3.org/1999/xlink" width="460.8pt" height="345.6pt" viewBox="0 0 460.8 345.6" xmlns="http://www.w3.org/2000/svg" version="1.1">
 <metadata>
  <rdf:RDF xmlns:dc="http://purl.org/dc/elements/1.1/" xmlns:cc="http://creativecommons.org/ns#" xmlns:rdf="http://www.w3.org/1999/02/22-rdf-syntax-ns#">
   <cc:Work>
    <dc:type rdf:resource="http://purl.org/dc/dcmitype/StillImage"/>
    <dc:date>2023-11-06T23:25:03.605110</dc:date>
    <dc:format>image/svg+xml</dc:format>
    <dc:creator>
     <cc:Agent>
      <dc:title>Matplotlib v3.8.1, https://matplotlib.org/</dc:title>
     </cc:Agent>
    </dc:creator>
   </cc:Work>
  </rdf:RDF>
 </metadata>
 <defs>
  <style type="text/css">*{stroke-linejoin: round; stroke-linecap: butt}</style>
 </defs>
 <g id="figure_1">
  <g id="patch_1">
   <path d="M 0 345.6 
L 460.8 345.6 
L 460.8 0 
L 0 0 
z
" style="fill: #ffffff"/>
  </g>
  <g id="axes_1">
   <g id="patch_2">
    <path d="M 57.6 307.584 
L 414.72 307.584 
L 414.72 41.472 
L 57.6 41.472 
z
" style="fill: #ffffff"/>
   </g>
   <g id="matplotlib.axis_1">
    <g id="xtick_1">
     <g id="line2d_1">
      <defs>
       <path id="m131ae39af7" d="M 0 0 
L 0 3.5 
" style="stroke: #000000; stroke-width: 0.8"/>
      </defs>
      <g>
       <use xlink:href="#m131ae39af7" x="73.832727" y="307.584" style="stroke: #000000; stroke-width: 0.8"/>
      </g>
     </g>
     <g id="text_1">
      <!-- 0 -->
      <g transform="translate(70.651477 322.182437) scale(0.1 -0.1)">
       <defs>
        <path id="DejaVuSans-30" d="M 2034 4250 
Q 1547 4250 1301 3770 
Q 1056 3291 1056 2328 
Q 1056 1369 1301 889 
Q 1547 409 2034 409 
Q 2525 409 2770 889 
Q 3016 1369 3016 2328 
Q 3016 3291 2770 3770 
Q 2525 4250 2034 4250 
z
M 2034 4750 
Q 2819 4750 3233 4129 
Q 3647 3509 3647 2328 
Q 3647 1150 3233 529 
Q 2819 -91 2034 -91 
Q 1250 -91 836 529 
Q 422 1150 422 2328 
Q 422 3509 836 4129 
Q 1250 4750 2034 4750 
z
" transform="scale(0.015625)"/>
       </defs>
       <use xlink:href="#DejaVuSans-30"/>
      </g>
     </g>
    </g>
    <g id="xtick_2">
     <g id="line2d_2">
      <g>
       <use xlink:href="#m131ae39af7" x="138.828632" y="307.584" style="stroke: #000000; stroke-width: 0.8"/>
      </g>
     </g>
     <g id="text_2">
      <!-- 200 -->
      <g transform="translate(129.284882 322.182437) scale(0.1 -0.1)">
       <defs>
        <path id="DejaVuSans-32" d="M 1228 531 
L 3431 531 
L 3431 0 
L 469 0 
L 469 531 
Q 828 903 1448 1529 
Q 2069 2156 2228 2338 
Q 2531 2678 2651 2914 
Q 2772 3150 2772 3378 
Q 2772 3750 2511 3984 
Q 2250 4219 1831 4219 
Q 1534 4219 1204 4116 
Q 875 4013 500 3803 
L 500 4441 
Q 881 4594 1212 4672 
Q 1544 4750 1819 4750 
Q 2544 4750 2975 4387 
Q 3406 4025 3406 3419 
Q 3406 3131 3298 2873 
Q 3191 2616 2906 2266 
Q 2828 2175 2409 1742 
Q 1991 1309 1228 531 
z
" transform="scale(0.015625)"/>
       </defs>
       <use xlink:href="#DejaVuSans-32"/>
       <use xlink:href="#DejaVuSans-30" x="63.623047"/>
       <use xlink:href="#DejaVuSans-30" x="127.246094"/>
      </g>
     </g>
    </g>
    <g id="xtick_3">
     <g id="line2d_3">
      <g>
       <use xlink:href="#m131ae39af7" x="203.824537" y="307.584" style="stroke: #000000; stroke-width: 0.8"/>
      </g>
     </g>
     <g id="text_3">
      <!-- 400 -->
      <g transform="translate(194.280787 322.182437) scale(0.1 -0.1)">
       <defs>
        <path id="DejaVuSans-34" d="M 2419 4116 
L 825 1625 
L 2419 1625 
L 2419 4116 
z
M 2253 4666 
L 3047 4666 
L 3047 1625 
L 3713 1625 
L 3713 1100 
L 3047 1100 
L 3047 0 
L 2419 0 
L 2419 1100 
L 313 1100 
L 313 1709 
L 2253 4666 
z
" transform="scale(0.015625)"/>
       </defs>
       <use xlink:href="#DejaVuSans-34"/>
       <use xlink:href="#DejaVuSans-30" x="63.623047"/>
       <use xlink:href="#DejaVuSans-30" x="127.246094"/>
      </g>
     </g>
    </g>
    <g id="xtick_4">
     <g id="line2d_4">
      <g>
       <use xlink:href="#m131ae39af7" x="268.820442" y="307.584" style="stroke: #000000; stroke-width: 0.8"/>
      </g>
     </g>
     <g id="text_4">
      <!-- 600 -->
      <g transform="translate(259.276692 322.182437) scale(0.1 -0.1)">
       <defs>
        <path id="DejaVuSans-36" d="M 2113 2584 
Q 1688 2584 1439 2293 
Q 1191 2003 1191 1497 
Q 1191 994 1439 701 
Q 1688 409 2113 409 
Q 2538 409 2786 701 
Q 3034 994 3034 1497 
Q 3034 2003 2786 2293 
Q 2538 2584 2113 2584 
z
M 3366 4563 
L 3366 3988 
Q 3128 4100 2886 4159 
Q 2644 4219 2406 4219 
Q 1781 4219 1451 3797 
Q 1122 3375 1075 2522 
Q 1259 2794 1537 2939 
Q 1816 3084 2150 3084 
Q 2853 3084 3261 2657 
Q 3669 2231 3669 1497 
Q 3669 778 3244 343 
Q 2819 -91 2113 -91 
Q 1303 -91 875 529 
Q 447 1150 447 2328 
Q 447 3434 972 4092 
Q 1497 4750 2381 4750 
Q 2619 4750 2861 4703 
Q 3103 4656 3366 4563 
z
" transform="scale(0.015625)"/>
       </defs>
       <use xlink:href="#DejaVuSans-36"/>
       <use xlink:href="#DejaVuSans-30" x="63.623047"/>
       <use xlink:href="#DejaVuSans-30" x="127.246094"/>
      </g>
     </g>
    </g>
    <g id="xtick_5">
     <g id="line2d_5">
      <g>
       <use xlink:href="#m131ae39af7" x="333.816347" y="307.584" style="stroke: #000000; stroke-width: 0.8"/>
      </g>
     </g>
     <g id="text_5">
      <!-- 800 -->
      <g transform="translate(324.272597 322.182437) scale(0.1 -0.1)">
       <defs>
        <path id="DejaVuSans-38" d="M 2034 2216 
Q 1584 2216 1326 1975 
Q 1069 1734 1069 1313 
Q 1069 891 1326 650 
Q 1584 409 2034 409 
Q 2484 409 2743 651 
Q 3003 894 3003 1313 
Q 3003 1734 2745 1975 
Q 2488 2216 2034 2216 
z
M 1403 2484 
Q 997 2584 770 2862 
Q 544 3141 544 3541 
Q 544 4100 942 4425 
Q 1341 4750 2034 4750 
Q 2731 4750 3128 4425 
Q 3525 4100 3525 3541 
Q 3525 3141 3298 2862 
Q 3072 2584 2669 2484 
Q 3125 2378 3379 2068 
Q 3634 1759 3634 1313 
Q 3634 634 3220 271 
Q 2806 -91 2034 -91 
Q 1263 -91 848 271 
Q 434 634 434 1313 
Q 434 1759 690 2068 
Q 947 2378 1403 2484 
z
M 1172 3481 
Q 1172 3119 1398 2916 
Q 1625 2713 2034 2713 
Q 2441 2713 2670 2916 
Q 2900 3119 2900 3481 
Q 2900 3844 2670 4047 
Q 2441 4250 2034 4250 
Q 1625 4250 1398 4047 
Q 1172 3844 1172 3481 
z
" transform="scale(0.015625)"/>
       </defs>
       <use xlink:href="#DejaVuSans-38"/>
       <use xlink:href="#DejaVuSans-30" x="63.623047"/>
       <use xlink:href="#DejaVuSans-30" x="127.246094"/>
      </g>
     </g>
    </g>
    <g id="xtick_6">
     <g id="line2d_6">
      <g>
       <use xlink:href="#m131ae39af7" x="398.812252" y="307.584" style="stroke: #000000; stroke-width: 0.8"/>
      </g>
     </g>
     <g id="text_6">
      <!-- 1000 -->
      <g transform="translate(386.087252 322.182437) scale(0.1 -0.1)">
       <defs>
        <path id="DejaVuSans-31" d="M 794 531 
L 1825 531 
L 1825 4091 
L 703 3866 
L 703 4441 
L 1819 4666 
L 2450 4666 
L 2450 531 
L 3481 531 
L 3481 0 
L 794 0 
L 794 531 
z
" transform="scale(0.015625)"/>
       </defs>
       <use xlink:href="#DejaVuSans-31"/>
       <use xlink:href="#DejaVuSans-30" x="63.623047"/>
       <use xlink:href="#DejaVuSans-30" x="127.246094"/>
       <use xlink:href="#DejaVuSans-30" x="190.869141"/>
      </g>
     </g>
    </g>
   </g>
   <g id="matplotlib.axis_2">
    <g id="ytick_1">
     <g id="line2d_7">
      <defs>
       <path id="m11fc28e098" d="M 0 0 
L -3.5 0 
" style="stroke: #000000; stroke-width: 0.8"/>
      </defs>
      <g>
       <use xlink:href="#m11fc28e098" x="57.6" y="277.566851" style="stroke: #000000; stroke-width: 0.8"/>
      </g>
     </g>
     <g id="text_7">
      <!-- −50 -->
      <g transform="translate(29.495313 281.366069) scale(0.1 -0.1)">
       <defs>
        <path id="DejaVuSans-2212" d="M 678 2272 
L 4684 2272 
L 4684 1741 
L 678 1741 
L 678 2272 
z
" transform="scale(0.015625)"/>
        <path id="DejaVuSans-35" d="M 691 4666 
L 3169 4666 
L 3169 4134 
L 1269 4134 
L 1269 2991 
Q 1406 3038 1543 3061 
Q 1681 3084 1819 3084 
Q 2600 3084 3056 2656 
Q 3513 2228 3513 1497 
Q 3513 744 3044 326 
Q 2575 -91 1722 -91 
Q 1428 -91 1123 -41 
Q 819 9 494 109 
L 494 744 
Q 775 591 1075 516 
Q 1375 441 1709 441 
Q 2250 441 2565 725 
Q 2881 1009 2881 1497 
Q 2881 1984 2565 2268 
Q 2250 2553 1709 2553 
Q 1456 2553 1204 2497 
Q 953 2441 691 2322 
L 691 4666 
z
" transform="scale(0.015625)"/>
       </defs>
       <use xlink:href="#DejaVuSans-2212"/>
       <use xlink:href="#DejaVuSans-35" x="83.789062"/>
       <use xlink:href="#DejaVuSans-30" x="147.412109"/>
      </g>
     </g>
    </g>
    <g id="ytick_2">
     <g id="line2d_8">
      <g>
       <use xlink:href="#m11fc28e098" x="57.6" y="237.09195" style="stroke: #000000; stroke-width: 0.8"/>
      </g>
     </g>
     <g id="text_8">
      <!-- −40 -->
      <g transform="translate(29.495313 240.891169) scale(0.1 -0.1)">
       <use xlink:href="#DejaVuSans-2212"/>
       <use xlink:href="#DejaVuSans-34" x="83.789062"/>
       <use xlink:href="#DejaVuSans-30" x="147.412109"/>
      </g>
     </g>
    </g>
    <g id="ytick_3">
     <g id="line2d_9">
      <g>
       <use xlink:href="#m11fc28e098" x="57.6" y="196.617049" style="stroke: #000000; stroke-width: 0.8"/>
      </g>
     </g>
     <g id="text_9">
      <!-- −30 -->
      <g transform="translate(29.495313 200.416268) scale(0.1 -0.1)">
       <defs>
        <path id="DejaVuSans-33" d="M 2597 2516 
Q 3050 2419 3304 2112 
Q 3559 1806 3559 1356 
Q 3559 666 3084 287 
Q 2609 -91 1734 -91 
Q 1441 -91 1130 -33 
Q 819 25 488 141 
L 488 750 
Q 750 597 1062 519 
Q 1375 441 1716 441 
Q 2309 441 2620 675 
Q 2931 909 2931 1356 
Q 2931 1769 2642 2001 
Q 2353 2234 1838 2234 
L 1294 2234 
L 1294 2753 
L 1863 2753 
Q 2328 2753 2575 2939 
Q 2822 3125 2822 3475 
Q 2822 3834 2567 4026 
Q 2313 4219 1838 4219 
Q 1578 4219 1281 4162 
Q 984 4106 628 3988 
L 628 4550 
Q 988 4650 1302 4700 
Q 1616 4750 1894 4750 
Q 2613 4750 3031 4423 
Q 3450 4097 3450 3541 
Q 3450 3153 3228 2886 
Q 3006 2619 2597 2516 
z
" transform="scale(0.015625)"/>
       </defs>
       <use xlink:href="#DejaVuSans-2212"/>
       <use xlink:href="#DejaVuSans-33" x="83.789062"/>
       <use xlink:href="#DejaVuSans-30" x="147.412109"/>
      </g>
     </g>
    </g>
    <g id="ytick_4">
     <g id="line2d_10">
      <g>
       <use xlink:href="#m11fc28e098" x="57.6" y="156.142148" style="stroke: #000000; stroke-width: 0.8"/>
      </g>
     </g>
     <g id="text_10">
      <!-- −20 -->
      <g transform="translate(29.495313 159.941367) scale(0.1 -0.1)">
       <use xlink:href="#DejaVuSans-2212"/>
       <use xlink:href="#DejaVuSans-32" x="83.789062"/>
       <use xlink:href="#DejaVuSans-30" x="147.412109"/>
      </g>
     </g>
    </g>
    <g id="ytick_5">
     <g id="line2d_11">
      <g>
       <use xlink:href="#m11fc28e098" x="57.6" y="115.667247" style="stroke: #000000; stroke-width: 0.8"/>
      </g>
     </g>
     <g id="text_11">
      <!-- −10 -->
      <g transform="translate(29.495313 119.466466) scale(0.1 -0.1)">
       <use xlink:href="#DejaVuSans-2212"/>
       <use xlink:href="#DejaVuSans-31" x="83.789062"/>
       <use xlink:href="#DejaVuSans-30" x="147.412109"/>
      </g>
     </g>
    </g>
    <g id="ytick_6">
     <g id="line2d_12">
      <g>
       <use xlink:href="#m11fc28e098" x="57.6" y="75.192346" style="stroke: #000000; stroke-width: 0.8"/>
      </g>
     </g>
     <g id="text_12">
      <!-- 0 -->
      <g transform="translate(44.2375 78.991565) scale(0.1 -0.1)">
       <use xlink:href="#DejaVuSans-30"/>
      </g>
     </g>
    </g>
   </g>
   <g id="line2d_13">
    <path d="M 73.832727 75.175154 
L 74.482686 84.345049 
L 74.807666 78.263973 
L 75.132645 82.039521 
L 75.782604 77.840393 
L 76.107584 78.203046 
L 76.432563 83.305515 
L 76.757543 75.679078 
L 77.082523 74.908488 
L 77.407502 76.22427 
L 77.732482 83.774273 
L 78.057461 81.930252 
L 78.382441 83.823072 
L 78.70742 84.535299 
L 79.0324 86.569034 
L 79.357379 81.01306 
L 79.682359 77.501331 
L 80.332318 67.483075 
L 80.657297 65.557338 
L 80.982277 65.426292 
L 81.307256 66.104573 
L 81.632236 65.379334 
L 81.957215 72.339378 
L 82.282195 72.882649 
L 82.607174 68.363982 
L 82.932154 67.115852 
L 83.257133 73.24625 
L 83.582113 71.905516 
L 83.907093 72.040563 
L 84.232072 67.636841 
L 84.557052 71.596718 
L 84.882031 72.372174 
L 85.207011 66.499656 
L 85.53199 69.989882 
L 85.85697 66.626819 
L 86.181949 68.1783 
L 86.506929 70.791738 
L 86.831908 75.526305 
L 87.156888 74.51799 
L 87.806847 79.530201 
L 88.131826 79.481496 
L 88.456806 88.915077 
L 88.781785 85.352197 
L 89.106765 86.539002 
L 89.431744 81.007449 
L 90.081704 86.652861 
L 90.406683 78.898563 
L 90.731663 81.111132 
L 91.056642 87.651796 
L 91.381622 83.04612 
L 91.706601 83.629604 
L 92.031581 82.141971 
L 92.35656 79.734254 
L 92.68154 74.189865 
L 93.006519 75.082585 
L 93.656478 81.338554 
L 94.306437 81.488364 
L 94.631417 82.442122 
L 94.956396 79.816823 
L 95.281376 79.223359 
L 95.606355 74.697088 
L 96.256314 81.317792 
L 96.581294 73.921416 
L 96.906274 71.952984 
L 97.231253 68.823943 
L 97.556233 68.852846 
L 97.881212 65.339856 
L 98.206192 70.839698 
L 98.531171 69.616001 
L 98.856151 66.535838 
L 99.18113 74.073384 
L 99.50611 75.850013 
L 99.831089 72.236837 
L 100.156069 58.782548 
L 100.481048 55.470811 
L 100.806028 57.189796 
L 101.131007 56.951541 
L 101.455987 53.568 
L 101.780966 60.64363 
L 102.105946 61.244682 
L 102.430925 57.389273 
L 102.755905 56.665547 
L 103.080885 54.107253 
L 103.405864 59.098335 
L 103.730844 59.852266 
L 104.055823 61.405788 
L 104.380803 69.227783 
L 104.705782 69.263452 
L 105.030762 67.2906 
L 105.355741 61.015445 
L 105.680721 68.392703 
L 106.0057 68.178442 
L 106.33068 73.999377 
L 106.655659 70.050381 
L 106.980639 68.636249 
L 107.305618 68.013656 
L 107.630598 61.758245 
L 107.955577 60.39383 
L 108.280557 63.449718 
L 108.605536 62.212295 
L 108.930516 59.739355 
L 109.255495 60.577377 
L 109.580475 61.759439 
L 109.905455 63.765261 
L 110.230434 60.988126 
L 110.555414 62.903962 
L 110.880393 71.447411 
L 111.205373 71.747811 
L 111.530352 71.533504 
L 111.855332 75.800078 
L 112.180311 81.560351 
L 112.505291 81.70525 
L 112.83027 82.556519 
L 113.15525 81.700501 
L 113.805209 84.055202 
L 114.130188 75.417038 
L 114.455168 79.854655 
L 114.780147 81.589338 
L 115.105127 81.463222 
L 115.430106 72.689757 
L 115.755086 71.322125 
L 116.080066 76.996726 
L 116.730025 79.11002 
L 117.055004 82.40916 
L 117.379984 84.569505 
L 117.704963 81.553202 
L 118.354922 92.97736 
L 118.679902 88.39708 
L 119.004881 91.162911 
L 119.329861 91.105229 
L 119.65484 84.765989 
L 119.97982 85.15299 
L 120.304799 88.372556 
L 120.629779 88.609687 
L 120.954758 94.753548 
L 121.279738 94.428164 
L 121.604717 91.743772 
L 121.929697 86.498586 
L 122.254676 86.005216 
L 122.579656 84.840342 
L 123.229615 91.309275 
L 123.554595 98.54839 
L 123.879574 95.449089 
L 124.204554 97.325078 
L 126.154431 120.349019 
L 126.47941 117.886047 
L 126.80439 119.795984 
L 127.129369 118.439541 
L 127.454349 116.20667 
L 127.779328 104.338643 
L 128.104308 100.211416 
L 128.429287 100.806093 
L 128.754267 99.98147 
L 129.079247 98.833515 
L 129.404226 96.058132 
L 129.729206 101.57747 
L 130.054185 102.273107 
L 130.379165 105.393015 
L 130.704144 112.175711 
L 131.029124 111.455831 
L 131.354103 109.580136 
L 132.004062 111.412312 
L 132.329042 114.255055 
L 132.654021 109.208876 
L 132.979001 116.865997 
L 133.30398 118.559739 
L 133.62896 116.980253 
L 133.953939 120.340935 
L 134.278919 119.900103 
L 134.603898 121.532208 
L 134.928878 125.579448 
L 135.253857 125.969845 
L 135.578837 129.121132 
L 136.228796 123.225226 
L 136.878755 134.562342 
L 137.203735 129.672287 
L 137.528714 131.02498 
L 137.853694 130.695368 
L 138.178673 131.237953 
L 138.503653 128.91967 
L 138.828632 131.6311 
L 139.153612 124.91067 
L 139.478591 124.213475 
L 139.803571 121.196405 
L 140.12855 116.403399 
L 140.45353 118.610399 
L 140.778509 119.952212 
L 141.103489 122.771132 
L 141.428468 118.739792 
L 141.753448 121.562956 
L 142.403407 129.746093 
L 142.728387 131.626041 
L 143.053366 131.292612 
L 143.378346 134.503082 
L 144.028305 128.769411 
L 144.678264 133.588725 
L 145.003243 132.050916 
L 145.328223 133.837825 
L 145.653202 134.23844 
L 145.978182 128.248507 
L 146.303161 125.938398 
L 146.628141 121.278362 
L 146.95312 127.532664 
L 147.2781 128.47865 
L 147.603079 123.990442 
L 147.928059 130.11958 
L 148.253038 127.867395 
L 148.578018 124.500649 
L 148.902998 123.836626 
L 149.227977 121.974553 
L 149.552957 117.74435 
L 149.877936 117.621711 
L 150.202916 112.698101 
L 150.527895 113.857922 
L 150.852875 118.016771 
L 151.177854 116.420742 
L 151.502834 112.021729 
L 151.827813 116.802359 
L 152.152793 116.130211 
L 152.802752 119.259173 
L 153.127731 124.150236 
L 153.452711 121.241404 
L 153.77769 121.227474 
L 154.10267 116.27666 
L 154.427649 122.903547 
L 154.752629 121.103751 
L 155.077609 120.46985 
L 155.402588 128.911937 
L 155.727568 127.553474 
L 156.052547 128.678489 
L 156.377527 131.448716 
L 156.702506 136.030713 
L 157.027486 135.335244 
L 157.352465 134.236367 
L 157.677445 136.967986 
L 158.002424 140.898363 
L 158.327404 135.872321 
L 158.652383 135.776983 
L 158.977363 133.144666 
L 159.302342 129.346645 
L 159.627322 130.895743 
L 159.952301 126.531619 
L 160.277281 127.533574 
L 160.60226 126.652151 
L 160.92724 120.448621 
L 161.252219 120.791929 
L 161.577199 120.6246 
L 161.902179 122.289974 
L 162.227158 125.416446 
L 162.552138 133.411201 
L 162.877117 133.430292 
L 163.202097 134.106893 
L 163.527076 131.195608 
L 163.852056 134.207499 
L 164.502015 131.921838 
L 164.826994 131.247131 
L 165.151974 131.640345 
L 166.126912 135.755842 
L 166.451892 138.235559 
L 166.776871 142.007379 
L 167.101851 139.836802 
L 167.42683 136.347432 
L 167.75181 143.398312 
L 168.07679 147.135197 
L 168.401769 153.208841 
L 168.726749 162.332637 
L 169.376708 171.699086 
L 169.701687 166.179365 
L 170.026667 171.565356 
L 170.351646 168.776376 
L 170.676626 169.926269 
L 171.001605 164.489534 
L 171.326585 171.587822 
L 171.651564 176.124503 
L 171.976544 178.146715 
L 172.301523 186.02569 
L 172.626503 178.604471 
L 172.951482 177.111604 
L 173.276462 179.471163 
L 173.601441 177.510021 
L 173.926421 180.639851 
L 174.2514 176.474581 
L 174.57638 177.698656 
L 174.90136 177.959675 
L 175.226339 182.117045 
L 175.551319 179.613555 
L 175.876298 179.035779 
L 176.201278 178.772979 
L 176.851237 167.819534 
L 177.176216 167.854022 
L 177.501196 172.006066 
L 177.826175 169.558483 
L 178.151155 169.81008 
L 178.476134 165.069434 
L 178.801114 167.463637 
L 179.126093 166.501201 
L 179.451073 161.077271 
L 179.776052 159.263923 
L 180.101032 158.88335 
L 180.426011 165.036213 
L 180.750991 163.518172 
L 181.075971 166.163452 
L 181.40095 163.623019 
L 181.72593 165.502722 
L 182.050909 160.133923 
L 182.375889 164.029388 
L 182.700868 160.932453 
L 183.025848 166.486525 
L 183.675807 172.929377 
L 184.000786 171.025849 
L 184.650745 160.243881 
L 184.975725 154.018241 
L 185.300704 155.43518 
L 185.625684 147.57715 
L 186.275643 140.542149 
L 186.600622 145.555942 
L 186.925602 148.149013 
L 187.250581 148.992214 
L 187.900541 153.822799 
L 188.22552 154.262232 
L 188.5505 156.431724 
L 188.875479 153.324076 
L 189.200459 152.048979 
L 189.525438 153.585766 
L 190.175397 161.089665 
L 190.500377 159.666855 
L 190.825356 161.014753 
L 191.150336 161.476661 
L 191.475315 159.519341 
L 191.800295 162.775865 
L 192.450254 163.508742 
L 192.775233 158.172256 
L 193.100213 158.912876 
L 193.425192 160.296265 
L 193.750172 154.324491 
L 194.400131 151.114706 
L 194.725111 153.212633 
L 195.05009 148.713223 
L 195.37507 152.693601 
L 195.700049 153.853033 
L 196.025029 148.443179 
L 196.350008 148.989152 
L 196.674988 144.139201 
L 196.999967 146.388997 
L 197.324947 142.773144 
L 197.649926 144.998124 
L 197.974906 136.172706 
L 198.299885 137.456205 
L 198.624865 136.029117 
L 198.949844 138.172112 
L 199.274824 136.768492 
L 199.599803 134.77392 
L 199.924783 131.002483 
L 200.249762 138.683151 
L 200.574742 140.512736 
L 200.899722 140.266361 
L 201.224701 140.161698 
L 201.549681 133.989112 
L 201.87466 135.008235 
L 202.19964 141.324527 
L 202.524619 140.781749 
L 202.849599 144.084084 
L 203.174578 144.751851 
L 203.499558 150.310132 
L 203.824537 146.863869 
L 204.149517 140.706164 
L 204.474496 141.489661 
L 205.124455 139.074829 
L 205.449435 141.526465 
L 205.774414 137.3334 
L 206.099394 135.84978 
L 206.424373 139.044712 
L 206.749353 139.544109 
L 207.399312 125.032508 
L 207.724292 119.223367 
L 208.049271 121.401325 
L 208.374251 117.999144 
L 208.69923 113.01808 
L 209.02421 123.745745 
L 209.349189 125.634173 
L 209.674169 128.73455 
L 209.999148 128.950556 
L 210.324128 137.07954 
L 210.649107 139.088831 
L 210.974087 139.600206 
L 211.299066 151.201215 
L 211.624046 151.38007 
L 211.949025 148.347378 
L 212.274005 148.26804 
L 212.598984 153.508542 
L 212.923964 152.60683 
L 213.248943 160.803157 
L 213.573923 160.836564 
L 214.223882 165.527971 
L 214.548862 158.933393 
L 214.873841 162.01296 
L 215.198821 155.966328 
L 215.5238 153.110387 
L 215.84878 153.494296 
L 216.173759 148.733408 
L 216.498739 149.329337 
L 217.148698 159.128679 
L 217.473677 164.479988 
L 217.798657 165.876025 
L 218.123636 175.940013 
L 218.448616 170.821926 
L 218.773595 171.422073 
L 219.098575 171.455951 
L 219.423554 173.089105 
L 219.748534 166.631342 
L 220.073514 166.464798 
L 220.398493 168.624882 
L 221.048452 167.836671 
L 221.373432 175.684449 
L 221.698411 177.812141 
L 222.023391 174.343176 
L 222.34837 178.935985 
L 222.67335 179.475455 
L 222.998329 175.122101 
L 223.323309 168.539626 
L 223.648288 165.320067 
L 223.973268 168.747649 
L 224.298247 168.711283 
L 224.623227 167.104581 
L 224.948206 168.917178 
L 225.273186 167.88646 
L 225.598165 161.694277 
L 225.923145 164.562417 
L 226.248124 169.671165 
L 226.573104 162.076288 
L 226.898084 167.991124 
L 227.223063 168.596589 
L 227.548043 171.295171 
L 228.198002 178.571832 
L 228.522981 179.601387 
L 229.822899 199.206185 
L 230.147879 198.632894 
L 230.472858 206.494179 
L 230.797838 204.670646 
L 231.122817 208.146169 
L 231.447797 200.106594 
L 231.772776 198.467801 
L 232.097756 198.330928 
L 232.422735 200.630335 
L 232.747715 196.275153 
L 233.397674 192.014974 
L 233.722654 190.304373 
L 234.047633 186.593639 
L 234.372613 186.390406 
L 234.697592 196.513494 
L 235.022572 191.512835 
L 235.347551 194.003236 
L 235.672531 187.280883 
L 235.99751 188.452431 
L 236.32249 186.858525 
L 236.647469 183.850129 
L 236.972449 187.068855 
L 237.297428 186.428798 
L 237.622408 190.313509 
L 237.947387 190.162871 
L 238.597346 200.46247 
L 239.247305 204.267794 
L 239.572285 204.928212 
L 239.897265 203.035121 
L 240.222244 201.918516 
L 240.547224 201.75935 
L 240.872203 202.733152 
L 241.197183 204.92106 
L 241.522162 200.86258 
L 242.172121 195.806323 
L 242.497101 196.711914 
L 243.14706 187.688838 
L 243.472039 185.278455 
L 243.797019 186.07857 
L 244.121998 182.854905 
L 244.771957 189.192959 
L 245.096937 198.025709 
L 245.421916 196.294856 
L 245.746896 192.640471 
L 246.071876 201.472562 
L 246.396855 196.333912 
L 246.721835 194.776664 
L 247.046814 196.290214 
L 247.371794 203.355227 
L 247.696773 201.184878 
L 248.021753 205.781464 
L 248.346732 199.95207 
L 248.671712 197.035502 
L 248.996691 192.569897 
L 249.321671 192.53431 
L 249.64665 194.838403 
L 249.97163 199.948354 
L 250.296609 198.812822 
L 250.621589 192.171734 
L 250.946568 193.850534 
L 251.271548 189.490666 
L 251.596527 189.886163 
L 252.246486 204.654563 
L 252.571466 201.044352 
L 252.896446 207.687724 
L 253.221425 204.297077 
L 253.546405 207.047349 
L 254.196364 218.541212 
L 254.521343 213.898697 
L 254.846323 211.391101 
L 255.171302 212.399663 
L 255.496282 215.485563 
L 256.146241 216.830335 
L 256.47122 221.667356 
L 256.7962 222.075225 
L 257.121179 221.14202 
L 257.446159 219.061216 
L 257.771138 219.522177 
L 258.096118 216.913413 
L 258.421097 217.859704 
L 258.746077 217.74226 
L 259.071057 219.678223 
L 259.396036 215.30593 
L 259.721016 219.269638 
L 260.045995 209.873309 
L 260.370975 211.598607 
L 260.695954 214.627342 
L 261.020934 213.542222 
L 261.345913 213.619573 
L 261.670893 209.384451 
L 261.995872 212.670582 
L 262.320852 211.328152 
L 262.645831 210.491687 
L 262.970811 213.542837 
L 263.62077 200.853407 
L 263.945749 195.996872 
L 264.595708 189.558271 
L 264.920688 191.000787 
L 265.570647 175.382512 
L 265.895627 173.508382 
L 266.220606 169.053594 
L 266.870565 175.043373 
L 267.520524 169.962884 
L 267.845504 167.721814 
L 268.170483 168.205468 
L 269.145422 173.793232 
L 269.470401 172.880605 
L 270.12036 184.967428 
L 270.770319 181.748933 
L 271.095299 174.839933 
L 271.420278 172.674341 
L 271.745258 167.377687 
L 272.070238 172.66186 
L 272.395217 173.23809 
L 272.720197 171.985007 
L 273.045176 178.113494 
L 273.695135 170.805065 
L 274.020115 171.39077 
L 274.345094 168.742462 
L 274.670074 168.890618 
L 274.995053 166.05563 
L 275.645012 157.375609 
L 275.969992 159.184857 
L 276.294971 170.657464 
L 276.619951 166.454091 
L 277.26991 164.307038 
L 277.594889 166.324409 
L 277.919869 164.477314 
L 278.569828 156.350666 
L 278.894808 165.324258 
L 279.869746 180.477882 
L 280.194726 184.588323 
L 280.519705 184.774234 
L 280.844685 176.948599 
L 281.494644 186.902751 
L 282.144603 181.038243 
L 282.469582 180.220113 
L 282.794562 178.941562 
L 283.119541 179.169778 
L 283.444521 185.237739 
L 283.7695 185.353353 
L 284.09448 186.436192 
L 284.744439 193.649411 
L 285.069419 187.094504 
L 285.394398 193.793278 
L 285.719378 189.341758 
L 286.044357 190.892752 
L 286.369337 193.211212 
L 286.694316 202.236362 
L 287.019296 206.278404 
L 287.344275 208.876019 
L 287.994234 198.94257 
L 288.319214 200.918938 
L 288.644193 205.182022 
L 288.969173 201.745608 
L 289.294152 204.365889 
L 289.944111 218.238627 
L 290.269091 213.950282 
L 290.59407 202.995924 
L 290.91905 205.658216 
L 291.244029 206.033189 
L 291.569009 205.294529 
L 291.893989 203.955536 
L 292.543948 219.092627 
L 292.868927 218.930434 
L 293.193907 219.618282 
L 293.518886 219.212953 
L 293.843866 220.390209 
L 294.168845 217.143793 
L 294.493825 221.153667 
L 294.818804 220.37898 
L 295.143784 215.62687 
L 295.793743 225.756561 
L 296.118722 229.149363 
L 296.443702 226.194378 
L 296.768681 221.666238 
L 297.41864 232.814862 
L 297.74362 235.502761 
L 298.0686 236.934913 
L 298.718559 243.773426 
L 299.368518 234.659225 
L 299.693497 238.927315 
L 300.018477 238.539683 
L 300.343456 234.779376 
L 300.668436 234.014439 
L 300.993415 230.507995 
L 301.318395 233.161449 
L 301.643374 233.856823 
L 301.968354 233.399426 
L 302.293333 237.103454 
L 302.618313 244.619193 
L 302.943292 244.347646 
L 303.268272 249.315266 
L 303.593251 243.475516 
L 303.918231 247.39682 
L 304.24321 240.384731 
L 304.56819 244.815027 
L 304.89317 237.897459 
L 305.218149 241.39654 
L 305.543129 239.121262 
L 305.868108 240.73976 
L 306.193088 236.02935 
L 306.518067 237.067179 
L 306.843047 235.569435 
L 307.168026 232.906624 
L 307.817985 237.959528 
L 308.142965 234.938338 
L 308.467944 238.442649 
L 308.792924 238.527858 
L 309.117903 246.388634 
L 309.442883 247.089319 
L 309.767862 251.325209 
L 310.092842 263.219348 
L 310.417821 263.578057 
L 310.742801 270.277048 
L 311.067781 266.793888 
L 311.39276 264.586614 
L 311.71774 266.200637 
L 312.042719 270.67704 
L 312.367699 265.661423 
L 312.692678 268.656342 
L 313.017658 270.484697 
L 313.342637 271.460772 
L 313.667617 274.719841 
L 313.992596 269.398833 
L 314.317576 269.7842 
L 314.642555 266.824654 
L 314.967535 271.400897 
L 315.292514 268.159624 
L 315.617494 268.880935 
L 315.942473 266.932869 
L 316.267453 269.339711 
L 316.592432 261.038604 
L 316.917412 262.113493 
L 317.567371 265.829188 
L 317.892351 264.575722 
L 318.21733 260.455558 
L 318.54231 259.478773 
L 318.867289 261.943788 
L 319.192269 265.430275 
L 319.517248 264.645411 
L 319.842228 262.797844 
L 320.167207 269.43217 
L 320.492187 265.976775 
L 320.817166 267.89194 
L 321.467125 257.422394 
L 321.792105 255.171972 
L 322.117084 251.379606 
L 322.442064 251.942265 
L 322.767043 249.147598 
L 323.092023 248.319841 
L 323.417002 241.811635 
L 323.741982 241.961012 
L 324.066962 237.575767 
L 324.391941 239.491677 
L 325.0419 232.796401 
L 325.36688 232.515787 
L 326.341818 237.426734 
L 326.991777 230.845472 
L 327.316757 236.603201 
L 327.966716 237.691293 
L 328.616675 232.288737 
L 329.266634 240.046354 
L 329.591613 240.433103 
L 329.916593 242.355398 
L 330.241572 234.750569 
L 330.891532 232.107589 
L 331.216511 234.922675 
L 331.541491 235.19434 
L 332.841409 251.738224 
L 333.166388 253.299381 
L 333.491368 250.256689 
L 333.816347 245.649919 
L 334.141327 238.334906 
L 334.466306 237.023987 
L 334.791286 242.475797 
L 335.116265 242.361779 
L 335.441245 244.026867 
L 336.091204 245.79094 
L 336.416183 245.312186 
L 336.741163 250.969445 
L 337.066143 253.859035 
L 337.391122 244.607917 
L 337.716102 246.546984 
L 338.041081 253.701029 
L 338.366061 248.743895 
L 338.69104 247.172171 
L 339.01602 250.912128 
L 339.340999 250.535605 
L 339.665979 247.197 
L 340.315938 245.290929 
L 340.640917 241.945787 
L 340.965897 244.563529 
L 341.290876 241.78897 
L 341.615856 245.142363 
L 341.940835 241.662495 
L 342.265815 234.692215 
L 342.915774 241.970268 
L 343.240753 241.933798 
L 343.890713 247.604397 
L 344.215692 247.263942 
L 344.540672 249.461323 
L 344.865651 248.606867 
L 345.190631 259.282503 
L 345.51561 256.434043 
L 345.84059 259.693989 
L 346.490549 263.084032 
L 346.815528 266.230366 
L 347.140508 259.939651 
L 347.465487 256.823723 
L 347.790467 256.340232 
L 348.115446 259.106935 
L 348.440426 253.444385 
L 348.765405 256.838277 
L 349.090385 258.259551 
L 349.415364 261.812202 
L 349.740344 257.974827 
L 350.065324 259.782336 
L 350.390303 260.569157 
L 350.715283 265.684449 
L 351.040262 262.237168 
L 351.365242 254.549004 
L 351.690221 258.071738 
L 352.015201 268.187225 
L 352.34018 263.255479 
L 352.66516 262.139363 
L 352.990139 258.648521 
L 353.315119 256.942643 
L 353.640098 252.203665 
L 353.965078 251.327093 
L 354.290057 247.634358 
L 354.615037 246.898636 
L 354.940016 250.202748 
L 355.264996 252.043658 
L 355.589975 252.498377 
L 355.914955 260.447078 
L 356.239934 252.224378 
L 356.564914 252.122633 
L 356.889894 251.275869 
L 357.214873 251.813748 
L 357.539853 250.468724 
L 357.864832 247.036587 
L 358.189812 253.979438 
L 358.514791 254.824489 
L 358.839771 252.112166 
L 359.16475 251.152357 
L 359.48973 249.499557 
L 359.814709 254.139795 
L 360.139689 253.579529 
L 360.464668 247.15313 
L 360.789648 245.449499 
L 361.439607 247.776446 
L 361.764586 248.656127 
L 362.414545 262.87439 
L 362.739525 260.609092 
L 363.064505 259.273237 
L 363.389484 255.936648 
L 364.039443 266.915147 
L 364.364423 265.750643 
L 364.689402 272.902168 
L 365.014382 273.768457 
L 365.339361 272.341036 
L 365.664341 279.723528 
L 365.98932 277.748158 
L 366.3143 275.021903 
L 366.639279 275.32451 
L 366.964259 280.666182 
L 367.289238 276.703446 
L 367.614218 276.594539 
L 367.939197 275.288232 
L 368.264177 277.435862 
L 368.589156 276.957008 
L 368.914136 276.037382 
L 369.239115 272.964817 
L 369.564095 273.231715 
L 369.889075 270.144711 
L 370.214054 273.062442 
L 370.539034 280.187091 
L 370.864013 275.573236 
L 371.188993 274.661908 
L 371.513972 280.756344 
L 371.838952 278.213997 
L 372.163931 270.178447 
L 372.488911 269.598733 
L 372.81389 272.989594 
L 373.13887 278.450353 
L 373.463849 274.434296 
L 373.788829 274.111589 
L 374.113808 270.98098 
L 374.438788 274.374081 
L 374.763767 272.569267 
L 375.413726 280.013182 
L 376.063686 275.950265 
L 376.388665 272.143477 
L 376.713645 271.430024 
L 377.038624 267.975355 
L 377.363604 261.030318 
L 377.688583 260.080817 
L 378.013563 261.488163 
L 378.663522 271.542081 
L 378.988501 267.522984 
L 379.313481 273.43676 
L 379.63846 282.676985 
L 379.96344 284.928939 
L 380.288419 284.041681 
L 380.613399 282.444529 
L 380.938378 279.336717 
L 381.263358 273.183761 
L 381.588337 273.476585 
L 381.913317 279.139032 
L 382.563276 280.505638 
L 382.888256 282.700117 
L 383.213235 285.881332 
L 383.538215 282.728627 
L 383.863194 286.212477 
L 384.188174 287.876167 
L 384.513153 285.885889 
L 384.838133 288.57208 
L 385.163112 288.898313 
L 385.488092 283.023186 
L 385.813071 280.181262 
L 386.138051 283.169124 
L 386.46303 281.722212 
L 386.78801 283.161333 
L 387.112989 288.846706 
L 387.762948 295.488 
L 388.087928 293.532451 
L 388.412907 284.000429 
L 388.737887 288.242711 
L 389.062867 288.325025 
L 389.712826 281.047473 
L 390.037805 284.154738 
L 390.362785 281.827778 
L 390.687764 276.84804 
L 391.012744 275.446528 
L 391.337723 272.523463 
L 391.662703 276.800118 
L 392.312662 263.442119 
L 392.637641 262.565259 
L 392.962621 266.126426 
L 393.61258 257.404496 
L 394.262539 256.321458 
L 394.587518 260.667106 
L 394.912498 260.844461 
L 395.237477 253.161503 
L 395.562457 252.840097 
L 395.887437 248.206236 
L 396.212416 251.050693 
L 396.537396 249.438132 
L 397.187355 237.935011 
L 397.512334 233.537368 
L 397.837314 231.108327 
L 398.162293 232.162385 
L 398.487273 229.296187 
L 398.487273 229.296187 
" clip-path="url(#p494c42cdf8)" style="fill: none; stroke: #1f77b4; stroke-width: 1.5; stroke-linecap: square"/>
   </g>
   <g id="patch_3">
    <path d="M 57.6 307.584 
L 57.6 41.472 
" style="fill: none; stroke: #000000; stroke-width: 0.8; stroke-linejoin: miter; stroke-linecap: square"/>
   </g>
   <g id="patch_4">
    <path d="M 414.72 307.584 
L 414.72 41.472 
" style="fill: none; stroke: #000000; stroke-width: 0.8; stroke-linejoin: miter; stroke-linecap: square"/>
   </g>
   <g id="patch_5">
    <path d="M 57.6 307.584 
L 414.72 307.584 
" style="fill: none; stroke: #000000; stroke-width: 0.8; stroke-linejoin: miter; stroke-linecap: square"/>
   </g>
   <g id="patch_6">
    <path d="M 57.6 41.472 
L 414.72 41.472 
" style="fill: none; stroke: #000000; stroke-width: 0.8; stroke-linejoin: miter; stroke-linecap: square"/>
   </g>
   <g id="legend_1">
    <g id="patch_7">
     <path d="M 369.80125 64.150125 
L 407.72 64.150125 
Q 409.72 64.150125 409.72 62.150125 
L 409.72 48.472 
Q 409.72 46.472 407.72 46.472 
L 369.80125 46.472 
Q 367.80125 46.472 367.80125 48.472 
L 367.80125 62.150125 
Q 367.80125 64.150125 369.80125 64.150125 
z
" style="fill: #ffffff; opacity: 0.8; stroke: #cccccc; stroke-linejoin: miter"/>
    </g>
    <g id="line2d_14">
     <path d="M 371.80125 54.570438 
L 381.80125 54.570438 
L 391.80125 54.570438 
" style="fill: none; stroke: #1f77b4; stroke-width: 1.5; stroke-linecap: square"/>
    </g>
    <g id="text_13">
     <!-- y -->
     <g transform="translate(399.80125 58.070438) scale(0.1 -0.1)">
      <defs>
       <path id="DejaVuSans-79" d="M 2059 -325 
Q 1816 -950 1584 -1140 
Q 1353 -1331 966 -1331 
L 506 -1331 
L 506 -850 
L 844 -850 
Q 1081 -850 1212 -737 
Q 1344 -625 1503 -206 
L 1606 56 
L 191 3500 
L 800 3500 
L 1894 763 
L 2988 3500 
L 3597 3500 
L 2059 -325 
z
" transform="scale(0.015625)"/>
      </defs>
      <use xlink:href="#DejaVuSans-79"/>
     </g>
    </g>
   </g>
  </g>
 </g>
 <defs>
  <clipPath id="p494c42cdf8">
   <rect x="57.6" y="41.472" width="357.12" height="266.112"/>
  </clipPath>
 </defs>
</svg>
