<?xml version="1.0" encoding="utf-8" standalone="no"?>
<!DOCTYPE svg PUBLIC "-//W3C//DTD SVG 1.1//EN"
  "http://www.w3.org/Graphics/SVG/1.1/DTD/svg11.dtd">
<svg xmlns:xlink="http://www.w3.org/1999/xlink" width="460.8pt" height="345.6pt" viewBox="0 0 460.8 345.6" xmlns="http://www.w3.org/2000/svg" version="1.1">
 <metadata>
  <rdf:RDF xmlns:dc="http://purl.org/dc/elements/1.1/" xmlns:cc="http://creativecommons.org/ns#" xmlns:rdf="http://www.w3.org/1999/02/22-rdf-syntax-ns#">
   <cc:Work>
    <dc:type rdf:resource="http://purl.org/dc/dcmitype/StillImage"/>
    <dc:date>2023-11-06T19:16:46.723094</dc:date>
    <dc:format>image/svg+xml</dc:format>
    <dc:creator>
     <cc:Agent>
      <dc:title>Matplotlib v3.8.1, https://matplotlib.org/</dc:title>
     </cc:Agent>
    </dc:creator>
   </cc:Work>
  </rdf:RDF>
 </metadata>
 <defs>
  <style type="text/css">*{stroke-linejoin: round; stroke-linecap: butt}</style>
 </defs>
 <g id="figure_1">
  <g id="patch_1">
   <path d="M 0 345.6 
L 460.8 345.6 
L 460.8 0 
L 0 0 
z
" style="fill: #ffffff"/>
  </g>
  <g id="axes_1">
   <g id="patch_2">
    <path d="M 57.6 307.584 
L 414.72 307.584 
L 414.72 41.472 
L 57.6 41.472 
z
" style="fill: #ffffff"/>
   </g>
   <g id="matplotlib.axis_1">
    <g id="xtick_1">
     <g id="line2d_1">
      <defs>
       <path id="m3144661885" d="M 0 0 
L 0 3.5 
" style="stroke: #000000; stroke-width: 0.8"/>
      </defs>
      <g>
       <use xlink:href="#m3144661885" x="73.832727" y="307.584" style="stroke: #000000; stroke-width: 0.8"/>
      </g>
     </g>
     <g id="text_1">
      <!-- 0 -->
      <g transform="translate(70.651477 322.182437) scale(0.1 -0.1)">
       <defs>
        <path id="DejaVuSans-30" d="M 2034 4250 
Q 1547 4250 1301 3770 
Q 1056 3291 1056 2328 
Q 1056 1369 1301 889 
Q 1547 409 2034 409 
Q 2525 409 2770 889 
Q 3016 1369 3016 2328 
Q 3016 3291 2770 3770 
Q 2525 4250 2034 4250 
z
M 2034 4750 
Q 2819 4750 3233 4129 
Q 3647 3509 3647 2328 
Q 3647 1150 3233 529 
Q 2819 -91 2034 -91 
Q 1250 -91 836 529 
Q 422 1150 422 2328 
Q 422 3509 836 4129 
Q 1250 4750 2034 4750 
z
" transform="scale(0.015625)"/>
       </defs>
       <use xlink:href="#DejaVuSans-30"/>
      </g>
     </g>
    </g>
    <g id="xtick_2">
     <g id="line2d_2">
      <g>
       <use xlink:href="#m3144661885" x="138.828632" y="307.584" style="stroke: #000000; stroke-width: 0.8"/>
      </g>
     </g>
     <g id="text_2">
      <!-- 200 -->
      <g transform="translate(129.284882 322.182437) scale(0.1 -0.1)">
       <defs>
        <path id="DejaVuSans-32" d="M 1228 531 
L 3431 531 
L 3431 0 
L 469 0 
L 469 531 
Q 828 903 1448 1529 
Q 2069 2156 2228 2338 
Q 2531 2678 2651 2914 
Q 2772 3150 2772 3378 
Q 2772 3750 2511 3984 
Q 2250 4219 1831 4219 
Q 1534 4219 1204 4116 
Q 875 4013 500 3803 
L 500 4441 
Q 881 4594 1212 4672 
Q 1544 4750 1819 4750 
Q 2544 4750 2975 4387 
Q 3406 4025 3406 3419 
Q 3406 3131 3298 2873 
Q 3191 2616 2906 2266 
Q 2828 2175 2409 1742 
Q 1991 1309 1228 531 
z
" transform="scale(0.015625)"/>
       </defs>
       <use xlink:href="#DejaVuSans-32"/>
       <use xlink:href="#DejaVuSans-30" x="63.623047"/>
       <use xlink:href="#DejaVuSans-30" x="127.246094"/>
      </g>
     </g>
    </g>
    <g id="xtick_3">
     <g id="line2d_3">
      <g>
       <use xlink:href="#m3144661885" x="203.824537" y="307.584" style="stroke: #000000; stroke-width: 0.8"/>
      </g>
     </g>
     <g id="text_3">
      <!-- 400 -->
      <g transform="translate(194.280787 322.182437) scale(0.1 -0.1)">
       <defs>
        <path id="DejaVuSans-34" d="M 2419 4116 
L 825 1625 
L 2419 1625 
L 2419 4116 
z
M 2253 4666 
L 3047 4666 
L 3047 1625 
L 3713 1625 
L 3713 1100 
L 3047 1100 
L 3047 0 
L 2419 0 
L 2419 1100 
L 313 1100 
L 313 1709 
L 2253 4666 
z
" transform="scale(0.015625)"/>
       </defs>
       <use xlink:href="#DejaVuSans-34"/>
       <use xlink:href="#DejaVuSans-30" x="63.623047"/>
       <use xlink:href="#DejaVuSans-30" x="127.246094"/>
      </g>
     </g>
    </g>
    <g id="xtick_4">
     <g id="line2d_4">
      <g>
       <use xlink:href="#m3144661885" x="268.820442" y="307.584" style="stroke: #000000; stroke-width: 0.8"/>
      </g>
     </g>
     <g id="text_4">
      <!-- 600 -->
      <g transform="translate(259.276692 322.182437) scale(0.1 -0.1)">
       <defs>
        <path id="DejaVuSans-36" d="M 2113 2584 
Q 1688 2584 1439 2293 
Q 1191 2003 1191 1497 
Q 1191 994 1439 701 
Q 1688 409 2113 409 
Q 2538 409 2786 701 
Q 3034 994 3034 1497 
Q 3034 2003 2786 2293 
Q 2538 2584 2113 2584 
z
M 3366 4563 
L 3366 3988 
Q 3128 4100 2886 4159 
Q 2644 4219 2406 4219 
Q 1781 4219 1451 3797 
Q 1122 3375 1075 2522 
Q 1259 2794 1537 2939 
Q 1816 3084 2150 3084 
Q 2853 3084 3261 2657 
Q 3669 2231 3669 1497 
Q 3669 778 3244 343 
Q 2819 -91 2113 -91 
Q 1303 -91 875 529 
Q 447 1150 447 2328 
Q 447 3434 972 4092 
Q 1497 4750 2381 4750 
Q 2619 4750 2861 4703 
Q 3103 4656 3366 4563 
z
" transform="scale(0.015625)"/>
       </defs>
       <use xlink:href="#DejaVuSans-36"/>
       <use xlink:href="#DejaVuSans-30" x="63.623047"/>
       <use xlink:href="#DejaVuSans-30" x="127.246094"/>
      </g>
     </g>
    </g>
    <g id="xtick_5">
     <g id="line2d_5">
      <g>
       <use xlink:href="#m3144661885" x="333.816347" y="307.584" style="stroke: #000000; stroke-width: 0.8"/>
      </g>
     </g>
     <g id="text_5">
      <!-- 800 -->
      <g transform="translate(324.272597 322.182437) scale(0.1 -0.1)">
       <defs>
        <path id="DejaVuSans-38" d="M 2034 2216 
Q 1584 2216 1326 1975 
Q 1069 1734 1069 1313 
Q 1069 891 1326 650 
Q 1584 409 2034 409 
Q 2484 409 2743 651 
Q 3003 894 3003 1313 
Q 3003 1734 2745 1975 
Q 2488 2216 2034 2216 
z
M 1403 2484 
Q 997 2584 770 2862 
Q 544 3141 544 3541 
Q 544 4100 942 4425 
Q 1341 4750 2034 4750 
Q 2731 4750 3128 4425 
Q 3525 4100 3525 3541 
Q 3525 3141 3298 2862 
Q 3072 2584 2669 2484 
Q 3125 2378 3379 2068 
Q 3634 1759 3634 1313 
Q 3634 634 3220 271 
Q 2806 -91 2034 -91 
Q 1263 -91 848 271 
Q 434 634 434 1313 
Q 434 1759 690 2068 
Q 947 2378 1403 2484 
z
M 1172 3481 
Q 1172 3119 1398 2916 
Q 1625 2713 2034 2713 
Q 2441 2713 2670 2916 
Q 2900 3119 2900 3481 
Q 2900 3844 2670 4047 
Q 2441 4250 2034 4250 
Q 1625 4250 1398 4047 
Q 1172 3844 1172 3481 
z
" transform="scale(0.015625)"/>
       </defs>
       <use xlink:href="#DejaVuSans-38"/>
       <use xlink:href="#DejaVuSans-30" x="63.623047"/>
       <use xlink:href="#DejaVuSans-30" x="127.246094"/>
      </g>
     </g>
    </g>
    <g id="xtick_6">
     <g id="line2d_6">
      <g>
       <use xlink:href="#m3144661885" x="398.812252" y="307.584" style="stroke: #000000; stroke-width: 0.8"/>
      </g>
     </g>
     <g id="text_6">
      <!-- 1000 -->
      <g transform="translate(386.087252 322.182437) scale(0.1 -0.1)">
       <defs>
        <path id="DejaVuSans-31" d="M 794 531 
L 1825 531 
L 1825 4091 
L 703 3866 
L 703 4441 
L 1819 4666 
L 2450 4666 
L 2450 531 
L 3481 531 
L 3481 0 
L 794 0 
L 794 531 
z
" transform="scale(0.015625)"/>
       </defs>
       <use xlink:href="#DejaVuSans-31"/>
       <use xlink:href="#DejaVuSans-30" x="63.623047"/>
       <use xlink:href="#DejaVuSans-30" x="127.246094"/>
       <use xlink:href="#DejaVuSans-30" x="190.869141"/>
      </g>
     </g>
    </g>
   </g>
   <g id="matplotlib.axis_2">
    <g id="ytick_1">
     <g id="line2d_7">
      <defs>
       <path id="m6d268b20db" d="M 0 0 
L -3.5 0 
" style="stroke: #000000; stroke-width: 0.8"/>
      </defs>
      <g>
       <use xlink:href="#m6d268b20db" x="57.6" y="269.862755" style="stroke: #000000; stroke-width: 0.8"/>
      </g>
     </g>
     <g id="text_7">
      <!-- −40 -->
      <g transform="translate(29.495313 273.661974) scale(0.1 -0.1)">
       <defs>
        <path id="DejaVuSans-2212" d="M 678 2272 
L 4684 2272 
L 4684 1741 
L 678 1741 
L 678 2272 
z
" transform="scale(0.015625)"/>
       </defs>
       <use xlink:href="#DejaVuSans-2212"/>
       <use xlink:href="#DejaVuSans-34" x="83.789062"/>
       <use xlink:href="#DejaVuSans-30" x="147.412109"/>
      </g>
     </g>
    </g>
    <g id="ytick_2">
     <g id="line2d_8">
      <g>
       <use xlink:href="#m6d268b20db" x="57.6" y="222.592247" style="stroke: #000000; stroke-width: 0.8"/>
      </g>
     </g>
     <g id="text_8">
      <!-- −30 -->
      <g transform="translate(29.495313 226.391466) scale(0.1 -0.1)">
       <defs>
        <path id="DejaVuSans-33" d="M 2597 2516 
Q 3050 2419 3304 2112 
Q 3559 1806 3559 1356 
Q 3559 666 3084 287 
Q 2609 -91 1734 -91 
Q 1441 -91 1130 -33 
Q 819 25 488 141 
L 488 750 
Q 750 597 1062 519 
Q 1375 441 1716 441 
Q 2309 441 2620 675 
Q 2931 909 2931 1356 
Q 2931 1769 2642 2001 
Q 2353 2234 1838 2234 
L 1294 2234 
L 1294 2753 
L 1863 2753 
Q 2328 2753 2575 2939 
Q 2822 3125 2822 3475 
Q 2822 3834 2567 4026 
Q 2313 4219 1838 4219 
Q 1578 4219 1281 4162 
Q 984 4106 628 3988 
L 628 4550 
Q 988 4650 1302 4700 
Q 1616 4750 1894 4750 
Q 2613 4750 3031 4423 
Q 3450 4097 3450 3541 
Q 3450 3153 3228 2886 
Q 3006 2619 2597 2516 
z
" transform="scale(0.015625)"/>
       </defs>
       <use xlink:href="#DejaVuSans-2212"/>
       <use xlink:href="#DejaVuSans-33" x="83.789062"/>
       <use xlink:href="#DejaVuSans-30" x="147.412109"/>
      </g>
     </g>
    </g>
    <g id="ytick_3">
     <g id="line2d_9">
      <g>
       <use xlink:href="#m6d268b20db" x="57.6" y="175.321739" style="stroke: #000000; stroke-width: 0.8"/>
      </g>
     </g>
     <g id="text_9">
      <!-- −20 -->
      <g transform="translate(29.495313 179.120958) scale(0.1 -0.1)">
       <use xlink:href="#DejaVuSans-2212"/>
       <use xlink:href="#DejaVuSans-32" x="83.789062"/>
       <use xlink:href="#DejaVuSans-30" x="147.412109"/>
      </g>
     </g>
    </g>
    <g id="ytick_4">
     <g id="line2d_10">
      <g>
       <use xlink:href="#m6d268b20db" x="57.6" y="128.051232" style="stroke: #000000; stroke-width: 0.8"/>
      </g>
     </g>
     <g id="text_10">
      <!-- −10 -->
      <g transform="translate(29.495313 131.85045) scale(0.1 -0.1)">
       <use xlink:href="#DejaVuSans-2212"/>
       <use xlink:href="#DejaVuSans-31" x="83.789062"/>
       <use xlink:href="#DejaVuSans-30" x="147.412109"/>
      </g>
     </g>
    </g>
    <g id="ytick_5">
     <g id="line2d_11">
      <g>
       <use xlink:href="#m6d268b20db" x="57.6" y="80.780724" style="stroke: #000000; stroke-width: 0.8"/>
      </g>
     </g>
     <g id="text_11">
      <!-- 0 -->
      <g transform="translate(44.2375 84.579942) scale(0.1 -0.1)">
       <use xlink:href="#DejaVuSans-30"/>
      </g>
     </g>
    </g>
   </g>
   <g id="line2d_12">
    <path d="M 73.832727 85.851008 
L 74.157707 84.707649 
L 74.482686 77.985095 
L 74.807666 85.924163 
L 75.457625 83.790688 
L 75.782604 87.550871 
L 76.107584 82.491139 
L 76.432563 86.496558 
L 76.757543 86.08482 
L 77.082523 89.101108 
L 77.407502 82.735152 
L 77.732482 85.564245 
L 78.057461 82.948536 
L 78.382441 89.771689 
L 78.70742 90.973884 
L 79.0324 93.017415 
L 79.357379 95.85586 
L 79.682359 94.675398 
L 80.007338 92.352779 
L 80.332318 91.213439 
L 80.657297 87.593133 
L 80.982277 82.067072 
L 81.957215 94.948822 
L 82.282195 96.002829 
L 82.607174 92.818372 
L 82.932154 97.713744 
L 83.582113 103.841692 
L 83.907093 101.959723 
L 84.232072 106.740511 
L 84.557052 104.414417 
L 84.882031 112.453625 
L 85.207011 117.097902 
L 85.53199 116.934171 
L 85.85697 117.745498 
L 86.181949 107.482162 
L 86.831908 113.525655 
L 87.156888 105.261815 
L 87.481867 113.590781 
L 87.806847 111.461205 
L 88.131826 114.433552 
L 88.456806 113.428619 
L 88.781785 115.063242 
L 89.106765 113.569204 
L 89.431744 116.873157 
L 89.756724 116.95088 
L 90.081704 118.991373 
L 90.731663 130.879903 
L 91.056642 128.888307 
L 91.381622 132.464697 
L 91.706601 132.452515 
L 92.35656 127.077526 
L 92.68154 133.63845 
L 93.006519 133.673617 
L 93.656478 139.985827 
L 93.981458 146.53577 
L 94.306437 147.277197 
L 94.631417 156.102334 
L 94.956396 159.898637 
L 95.281376 160.788726 
L 95.606355 153.781793 
L 95.931335 155.375898 
L 96.256314 153.845388 
L 96.581294 155.0189 
L 96.906274 158.793115 
L 97.231253 158.696906 
L 97.556233 157.592473 
L 97.881212 162.354028 
L 98.206192 160.966764 
L 98.531171 163.511747 
L 98.856151 161.01856 
L 99.18113 156.036307 
L 99.50611 155.012021 
L 99.831089 152.302483 
L 100.156069 158.953997 
L 100.481048 157.889101 
L 100.806028 157.456847 
L 101.131007 155.289345 
L 101.455987 163.571636 
L 101.780966 166.909942 
L 102.105946 157.353848 
L 102.430925 156.678457 
L 102.755905 157.107988 
L 103.080885 163.009504 
L 103.405864 157.318322 
L 103.730844 161.163494 
L 104.055823 162.004517 
L 104.705782 176.622351 
L 105.355741 157.274347 
L 105.680721 155.961399 
L 106.0057 156.249382 
L 106.33068 159.560097 
L 106.980639 154.190105 
L 107.305618 153.562446 
L 107.630598 157.28331 
L 107.955577 151.630254 
L 108.280557 153.742221 
L 108.605536 152.611693 
L 108.930516 155.725333 
L 109.255495 145.500298 
L 109.580475 143.24729 
L 109.905455 143.604923 
L 110.230434 145.540343 
L 110.555414 138.693168 
L 110.880393 144.305617 
L 111.205373 140.193268 
L 111.530352 132.820058 
L 111.855332 144.968209 
L 112.180311 144.72209 
L 112.505291 145.650239 
L 112.83027 135.855196 
L 113.15525 136.650105 
L 113.480229 133.90733 
L 114.130188 147.312343 
L 114.455168 146.488583 
L 114.780147 142.780389 
L 115.105127 143.058174 
L 115.430106 142.135341 
L 115.755086 145.155981 
L 116.080066 145.981395 
L 116.405045 145.639255 
L 116.730025 134.936159 
L 117.055004 131.068251 
L 117.379984 123.324855 
L 117.704963 124.073849 
L 118.029943 125.412196 
L 118.679902 116.27253 
L 119.004881 121.104594 
L 119.65484 123.694455 
L 119.97982 112.215428 
L 120.304799 108.12926 
L 120.629779 102.619709 
L 120.954758 103.352718 
L 121.279738 110.974388 
L 121.604717 112.219742 
L 121.929697 112.719091 
L 122.254676 109.187376 
L 122.904636 119.075767 
L 123.229615 115.507614 
L 123.879574 119.491316 
L 124.204554 127.038743 
L 124.529533 128.356906 
L 124.854513 130.689565 
L 125.179492 130.324341 
L 125.504472 132.166252 
L 125.829451 135.623099 
L 126.154431 136.654179 
L 126.47941 140.876407 
L 126.80439 141.165125 
L 127.129369 148.96729 
L 127.454349 150.316797 
L 127.779328 143.947407 
L 128.429287 164.938578 
L 128.754267 164.356116 
L 129.079247 163.259484 
L 129.404226 155.69836 
L 129.729206 155.664425 
L 130.379165 168.508255 
L 130.704144 169.610664 
L 131.029124 162.110796 
L 131.354103 168.564018 
L 131.679083 163.380918 
L 132.329042 161.446687 
L 132.654021 159.930033 
L 132.979001 160.421735 
L 133.30398 166.452353 
L 133.62896 166.695638 
L 133.953939 162.465444 
L 134.278919 160.675078 
L 134.603898 167.186682 
L 134.928878 166.264633 
L 135.253857 161.575366 
L 135.903817 169.887026 
L 136.228796 172.076539 
L 136.553776 167.785535 
L 136.878755 173.668512 
L 137.203735 172.489618 
L 137.528714 170.672265 
L 137.853694 170.668575 
L 138.178673 172.42884 
L 138.503653 172.401407 
L 139.153612 162.124227 
L 139.803571 159.311996 
L 140.45353 175.391133 
L 140.778509 175.062145 
L 141.103489 171.50683 
L 141.753448 180.119452 
L 142.078428 180.376592 
L 142.403407 179.617773 
L 142.728387 191.407639 
L 143.053366 192.267853 
L 143.703325 182.683312 
L 144.028305 181.408539 
L 144.353284 187.970147 
L 144.678264 198.53604 
L 145.003243 197.085872 
L 145.328223 204.302402 
L 145.978182 207.410701 
L 146.303161 206.221721 
L 146.628141 206.198797 
L 146.95312 200.847064 
L 147.2781 200.521842 
L 147.603079 203.214094 
L 148.253038 205.523582 
L 148.578018 204.328764 
L 148.902998 192.259174 
L 149.227977 193.58654 
L 149.552957 185.150363 
L 150.202916 175.866235 
L 150.527895 180.373043 
L 150.852875 178.751853 
L 151.177854 175.787252 
L 151.502834 179.90417 
L 151.827813 180.80768 
L 152.152793 180.861059 
L 152.477772 185.886706 
L 152.802752 181.041341 
L 153.127731 178.922682 
L 153.452711 173.776381 
L 153.77769 172.359761 
L 154.10267 171.776846 
L 154.752629 163.876901 
L 155.077609 161.303415 
L 155.402588 165.682309 
L 155.727568 165.54393 
L 156.052547 173.452846 
L 156.377527 176.311773 
L 156.702506 172.430185 
L 157.027486 176.692811 
L 157.677445 164.837607 
L 158.002424 173.711524 
L 158.327404 178.09721 
L 158.652383 174.150426 
L 158.977363 179.435889 
L 159.627322 183.227143 
L 159.952301 173.922533 
L 160.277281 174.742443 
L 160.60226 173.144176 
L 160.92724 174.645589 
L 161.577199 163.873798 
L 161.902179 154.686506 
L 162.227158 157.854541 
L 162.552138 163.690856 
L 162.877117 165.370382 
L 163.202097 160.95747 
L 163.527076 168.490871 
L 163.852056 168.238349 
L 164.177035 166.053981 
L 164.502015 165.303414 
L 165.151974 153.142211 
L 165.476953 154.215434 
L 165.801933 153.518673 
L 166.126912 146.374718 
L 166.451892 147.941107 
L 166.776871 154.316019 
L 167.101851 155.948419 
L 167.42683 161.112593 
L 167.75181 163.809845 
L 168.07679 171.489038 
L 168.401769 172.221449 
L 168.726749 167.990784 
L 169.051728 167.335232 
L 169.376708 170.544967 
L 169.701687 174.939358 
L 170.026667 176.706183 
L 170.351646 180.063138 
L 170.676626 177.440516 
L 171.001605 173.546813 
L 171.326585 174.168446 
L 171.651564 170.937958 
L 171.976544 169.943707 
L 172.301523 169.322987 
L 172.626503 164.168478 
L 173.276462 170.215513 
L 173.601441 170.34564 
L 173.926421 160.606344 
L 174.2514 162.806298 
L 174.57638 166.006224 
L 174.90136 177.859437 
L 175.551319 170.202271 
L 175.876298 172.000172 
L 176.851237 183.871296 
L 177.176216 180.123181 
L 177.501196 179.616996 
L 177.826175 176.568008 
L 178.151155 175.043951 
L 178.801114 169.144952 
L 179.126093 169.836548 
L 179.451073 172.911727 
L 179.776052 180.271196 
L 180.101032 180.269062 
L 180.750991 186.079609 
L 181.40095 200.518946 
L 181.72593 199.264483 
L 182.050909 189.458222 
L 182.375889 193.498499 
L 182.700868 187.616519 
L 183.025848 186.198026 
L 183.350827 183.378227 
L 183.675807 178.293699 
L 184.000786 179.237528 
L 184.325766 180.922143 
L 184.650745 180.278877 
L 184.975725 182.705452 
L 185.300704 172.319508 
L 185.950663 164.325118 
L 186.600622 166.983743 
L 187.250581 155.960138 
L 187.900541 162.085636 
L 188.22552 159.60816 
L 188.5505 163.193725 
L 188.875479 168.194408 
L 189.200459 180.255561 
L 189.850418 168.730238 
L 190.175397 176.823136 
L 191.150336 182.817099 
L 191.475315 188.774713 
L 191.800295 185.318011 
L 192.125274 177.982181 
L 192.450254 182.578367 
L 192.775233 189.448997 
L 193.100213 192.533036 
L 193.425192 191.187217 
L 193.750172 198.268538 
L 194.075152 197.300024 
L 194.400131 209.528612 
L 194.725111 214.742246 
L 195.05009 213.222722 
L 195.37507 213.356953 
L 195.700049 215.176907 
L 196.025029 211.118727 
L 196.350008 211.688657 
L 196.674988 216.923304 
L 196.999967 225.009259 
L 197.649926 220.365229 
L 197.974906 218.66389 
L 198.299885 225.296371 
L 198.624865 226.261771 
L 198.949844 226.077083 
L 199.274824 219.323262 
L 199.599803 220.147662 
L 199.924783 224.183728 
L 200.574742 233.898142 
L 200.899722 229.773219 
L 201.224701 229.946416 
L 201.549681 235.892279 
L 201.87466 231.344496 
L 202.19964 232.696425 
L 202.849599 236.408499 
L 203.174578 236.91572 
L 203.499558 236.884498 
L 203.824537 233.321391 
L 204.149517 240.896032 
L 204.474496 240.173809 
L 204.799476 240.46707 
L 205.124455 239.684643 
L 205.449435 231.332374 
L 205.774414 228.487868 
L 206.099394 239.396706 
L 206.424373 236.64548 
L 206.749353 236.321663 
L 207.074333 237.552744 
L 207.399312 239.219311 
L 207.724292 245.002691 
L 208.049271 247.283739 
L 208.374251 243.818465 
L 208.69923 244.280568 
L 209.02421 246.088544 
L 209.349189 245.013937 
L 209.674169 237.507129 
L 209.999148 237.220707 
L 211.299066 254.918568 
L 211.624046 254.889347 
L 211.949025 257.250475 
L 212.274005 257.182501 
L 212.598984 256.282273 
L 212.923964 261.128921 
L 213.248943 263.936211 
L 213.573923 258.932503 
L 214.223882 257.308197 
L 214.548862 254.101852 
L 214.873841 258.571342 
L 215.198821 256.228812 
L 215.5238 248.887269 
L 215.84878 244.359835 
L 216.498739 239.091955 
L 216.823718 236.818554 
L 217.148698 228.202547 
L 217.473677 226.365748 
L 217.798657 225.612986 
L 218.123636 225.497681 
L 218.448616 234.181176 
L 218.773595 228.885342 
L 219.098575 230.509978 
L 219.423554 233.207119 
L 219.748534 230.006535 
L 220.073514 228.452746 
L 220.723473 223.318962 
L 221.048452 233.021658 
L 221.373432 236.323915 
L 221.698411 230.846863 
L 222.023391 239.549133 
L 222.34837 242.462802 
L 222.67335 243.812633 
L 223.323309 251.167092 
L 223.973268 256.597741 
L 224.623227 250.809741 
L 224.948206 250.570731 
L 225.273186 254.825671 
L 225.598165 247.977899 
L 225.923145 248.02244 
L 226.248124 247.55867 
L 226.573104 250.461568 
L 226.898084 247.16985 
L 227.223063 253.365519 
L 227.548043 254.033083 
L 227.873022 255.664813 
L 228.198002 255.740171 
L 228.522981 262.370665 
L 228.847961 261.221085 
L 229.17294 261.426014 
L 229.49792 265.688714 
L 229.822899 257.397737 
L 230.147879 253.067515 
L 230.472858 256.281499 
L 230.797838 260.892591 
L 231.122817 259.06258 
L 231.447797 254.582571 
L 231.772776 264.310266 
L 232.097756 261.797859 
L 232.422735 262.069453 
L 232.747715 265.525766 
L 233.072695 254.734499 
L 233.397674 254.47214 
L 233.722654 258.661936 
L 234.047633 267.909944 
L 234.372613 267.701663 
L 234.697592 264.180639 
L 235.022572 267.146529 
L 235.347551 272.762513 
L 235.672531 268.102537 
L 235.99751 265.625232 
L 236.32249 259.498536 
L 236.647469 260.949162 
L 236.972449 271.667469 
L 237.297428 275.908612 
L 237.622408 271.230243 
L 237.947387 274.910456 
L 238.272367 276.785187 
L 238.597346 277.356395 
L 238.922326 276.727358 
L 239.247305 277.958958 
L 240.222244 292.317666 
L 240.547224 286.663896 
L 240.872203 291.916884 
L 241.197183 291.538337 
L 241.522162 293.023961 
L 241.847142 295.488 
L 242.497101 287.740333 
L 242.82208 286.862812 
L 243.14706 278.942689 
L 243.472039 280.202143 
L 243.797019 277.24619 
L 244.121998 275.624205 
L 244.446978 272.257255 
L 245.096937 268.68466 
L 245.421916 267.959501 
L 246.071876 255.885919 
L 246.396855 262.182134 
L 246.721835 266.040978 
L 247.046814 261.740987 
L 247.371794 260.302178 
L 247.696773 256.427733 
L 248.021753 260.597197 
L 248.346732 261.251301 
L 248.671712 256.025974 
L 248.996691 259.871384 
L 249.64665 248.393599 
L 249.97163 242.947003 
L 250.296609 243.829039 
L 250.621589 243.482174 
L 250.946568 243.683566 
L 251.271548 237.337156 
L 251.596527 244.952547 
L 251.921507 240.637457 
L 252.246486 233.461938 
L 252.571466 241.891129 
L 252.896446 241.446527 
L 253.221425 237.528875 
L 253.546405 239.194092 
L 253.871384 239.840975 
L 254.196364 236.806324 
L 254.521343 242.662033 
L 254.846323 246.429704 
L 255.496282 239.738951 
L 255.821261 229.979975 
L 256.146241 228.377241 
L 256.47122 233.644157 
L 256.7962 235.383843 
L 257.121179 233.049278 
L 257.446159 232.326105 
L 257.771138 222.522182 
L 258.096118 219.794344 
L 258.421097 218.532959 
L 258.746077 212.856069 
L 259.071057 211.833876 
L 259.396036 205.216919 
L 259.721016 201.79508 
L 260.045995 201.222432 
L 260.695954 190.535307 
L 261.020934 191.619163 
L 261.345913 193.590349 
L 261.670893 190.812009 
L 261.995872 195.485266 
L 262.320852 188.422821 
L 262.645831 192.938397 
L 262.970811 189.778327 
L 263.29579 194.210408 
L 263.62077 192.722314 
L 263.945749 192.507512 
L 264.270729 190.794533 
L 265.245667 177.545136 
L 265.570647 175.835727 
L 265.895627 175.161206 
L 266.220606 172.330301 
L 266.545586 176.955453 
L 266.870565 175.382915 
L 267.520524 187.016362 
L 267.845504 187.318974 
L 268.170483 188.071992 
L 268.495463 194.95548 
L 268.820442 186.323719 
L 269.145422 188.525365 
L 269.470401 193.85267 
L 269.795381 193.432564 
L 270.12036 193.527484 
L 270.44534 184.160921 
L 270.770319 188.925128 
L 271.095299 189.320679 
L 271.420278 180.43368 
L 271.745258 174.869825 
L 272.070238 171.330629 
L 272.395217 163.86863 
L 272.720197 163.614306 
L 273.045176 162.406522 
L 273.370156 158.832523 
L 273.695135 163.43265 
L 274.020115 164.019851 
L 274.345094 158.740079 
L 274.670074 162.419379 
L 275.320033 153.574864 
L 275.645012 158.270561 
L 275.969992 158.724012 
L 276.294971 156.412878 
L 276.619951 151.2449 
L 276.94493 153.513573 
L 277.26991 149.380305 
L 277.919869 148.282109 
L 278.244848 154.143997 
L 278.569828 149.152351 
L 278.894808 150.459421 
L 279.219787 146.481511 
L 279.544767 149.710971 
L 279.869746 149.544973 
L 280.194726 141.753304 
L 280.519705 144.954044 
L 280.844685 139.847625 
L 281.169664 138.917977 
L 281.494644 140.285738 
L 281.819623 138.234318 
L 282.144603 144.294394 
L 282.469582 140.819488 
L 282.794562 146.280302 
L 283.119541 147.849627 
L 283.444521 145.356018 
L 283.7695 153.804439 
L 284.09448 150.625798 
L 284.419459 151.459895 
L 284.744439 153.105823 
L 285.394398 169.989144 
L 285.719378 168.726055 
L 286.044357 164.524336 
L 286.694316 176.186454 
L 287.019296 173.423338 
L 287.344275 166.291888 
L 287.669255 172.930444 
L 287.994234 170.623229 
L 288.644193 179.582718 
L 288.969173 176.210311 
L 289.294152 178.068227 
L 289.944111 169.345446 
L 290.269091 168.242337 
L 290.59407 160.137609 
L 290.91905 160.130977 
L 291.244029 164.435017 
L 291.569009 160.804647 
L 291.893989 161.72573 
L 292.218968 166.608189 
L 292.543948 162.796799 
L 292.868927 168.719761 
L 293.193907 161.468039 
L 293.518886 166.663618 
L 293.843866 166.717465 
L 294.168845 171.523236 
L 294.493825 171.276055 
L 294.818804 178.082987 
L 295.143784 173.83007 
L 295.468763 176.970955 
L 295.793743 177.576524 
L 296.118722 172.310662 
L 296.443702 173.465746 
L 296.768681 172.760384 
L 297.41864 167.330573 
L 297.74362 171.296209 
L 298.0686 161.449918 
L 298.393579 165.653593 
L 298.718559 166.015578 
L 299.043538 165.098557 
L 299.368518 170.738784 
L 299.693497 168.972869 
L 300.018477 168.458319 
L 300.343456 163.476825 
L 300.668436 160.327257 
L 300.993415 160.809057 
L 301.318395 162.055155 
L 301.643374 149.572137 
L 301.968354 148.883034 
L 302.293333 146.200526 
L 302.618313 139.648926 
L 302.943292 143.583748 
L 303.268272 148.888935 
L 303.593251 157.239326 
L 303.918231 153.107316 
L 304.24321 150.970239 
L 304.56819 154.375124 
L 304.89317 162.860298 
L 305.218149 167.676471 
L 306.193088 152.182832 
L 306.518067 155.893705 
L 306.843047 157.177066 
L 307.168026 150.827321 
L 307.493006 152.064675 
L 307.817985 150.13805 
L 308.142965 148.916678 
L 308.467944 154.249207 
L 308.792924 150.896626 
L 309.117903 156.385929 
L 309.767862 146.440949 
L 310.092842 146.71515 
L 310.417821 144.711787 
L 310.742801 144.349436 
L 311.067781 135.936359 
L 311.39276 135.407524 
L 311.71774 121.717473 
L 312.042719 123.130481 
L 312.367699 122.58321 
L 312.692678 121.495725 
L 313.017658 129.643319 
L 313.342637 130.83617 
L 313.667617 129.720802 
L 313.992596 120.911789 
L 314.317576 120.676279 
L 314.967535 128.613437 
L 315.292514 129.40593 
L 315.617494 128.042729 
L 315.942473 135.423768 
L 316.267453 135.701195 
L 316.592432 134.425008 
L 316.917412 138.985706 
L 317.242391 137.681549 
L 317.567371 134.545468 
L 317.892351 138.267975 
L 318.21733 132.213508 
L 318.54231 123.239775 
L 318.867289 121.534558 
L 319.192269 120.556676 
L 319.517248 116.860431 
L 319.842228 122.678571 
L 320.167207 125.851217 
L 320.492187 127.309721 
L 320.817166 128.247126 
L 321.467125 120.720231 
L 321.792105 120.678023 
L 322.117084 117.38858 
L 322.442064 126.015606 
L 322.767043 118.53225 
L 323.092023 113.945036 
L 323.417002 111.267305 
L 323.741982 102.773311 
L 324.066962 108.702094 
L 324.391941 103.692009 
L 324.716921 101.054383 
L 325.0419 96.858371 
L 325.36688 95.832934 
L 325.691859 98.578183 
L 326.016839 98.270638 
L 326.341818 104.748414 
L 326.666798 102.202431 
L 326.991777 107.581681 
L 327.316757 101.282422 
L 327.641736 109.076516 
L 328.291695 111.28157 
L 328.616675 111.314608 
L 328.941654 114.155214 
L 329.591613 126.904787 
L 330.241572 121.455058 
L 330.566552 124.541999 
L 330.891532 119.233893 
L 331.216511 118.774896 
L 331.541491 122.023609 
L 331.86647 119.306613 
L 332.19145 130.336656 
L 332.516429 129.855299 
L 332.841409 124.929918 
L 333.166388 123.07713 
L 333.491368 115.853716 
L 334.466306 134.085993 
L 334.791286 135.214802 
L 335.116265 137.346035 
L 335.441245 141.245123 
L 335.766224 132.493322 
L 336.416183 121.778662 
L 337.066143 109.278603 
L 337.391122 113.627007 
L 337.716102 109.355009 
L 338.041081 116.412621 
L 338.366061 114.861577 
L 338.69104 116.189449 
L 339.340999 110.312339 
L 339.665979 109.847758 
L 340.315938 108.368846 
L 340.640917 107.113904 
L 340.965897 108.982784 
L 341.615856 114.399815 
L 341.940835 115.910677 
L 342.590794 124.346026 
L 342.915774 124.477515 
L 343.240753 124.171107 
L 343.565733 125.037233 
L 343.890713 122.259257 
L 344.215692 118.380222 
L 344.540672 120.360965 
L 344.865651 117.908361 
L 345.51561 108.465925 
L 345.84059 105.522493 
L 346.165569 105.505868 
L 346.490549 110.951282 
L 346.815528 111.27217 
L 347.140508 111.413369 
L 347.465487 114.80606 
L 347.790467 113.652493 
L 348.115446 108.755997 
L 348.440426 109.889771 
L 348.765405 113.678911 
L 349.090385 114.748059 
L 349.415364 122.231567 
L 349.740344 121.98161 
L 350.065324 114.674246 
L 350.390303 116.295572 
L 350.715283 109.750118 
L 351.040262 120.189956 
L 351.365242 118.416558 
L 351.690221 119.820333 
L 352.015201 108.43664 
L 352.34018 113.5293 
L 352.66516 113.409331 
L 352.990139 114.160454 
L 353.315119 119.527578 
L 353.640098 117.360747 
L 353.965078 116.131293 
L 354.290057 116.877591 
L 354.940016 108.368091 
L 355.264996 110.977503 
L 355.589975 114.554332 
L 355.914955 102.637267 
L 356.239934 102.875124 
L 356.564914 105.790681 
L 356.889894 113.000103 
L 357.214873 115.655312 
L 357.539853 121.665225 
L 357.864832 118.252729 
L 358.189812 118.114262 
L 358.514791 113.915284 
L 358.839771 113.926549 
L 359.16475 110.201296 
L 359.48973 108.76715 
L 359.814709 108.551434 
L 360.139689 114.236635 
L 360.464668 115.434995 
L 360.789648 110.825474 
L 361.114627 110.874331 
L 361.439607 104.129524 
L 361.764586 101.227838 
L 362.089566 95.662444 
L 362.414545 98.1911 
L 362.739525 92.74647 
L 363.064505 92.057464 
L 363.389484 98.201022 
L 363.714464 100.64085 
L 364.039443 100.030752 
L 364.689402 107.22677 
L 365.014382 113.415859 
L 365.664341 108.672971 
L 365.98932 103.266931 
L 366.3143 102.483614 
L 366.639279 95.916521 
L 366.964259 95.657536 
L 367.289238 88.674521 
L 367.614218 90.115866 
L 367.939197 82.180379 
L 368.264177 81.974416 
L 368.589156 79.237329 
L 368.914136 87.876626 
L 369.239115 86.577397 
L 369.564095 80.892832 
L 369.889075 77.7464 
L 370.539034 86.709295 
L 371.838952 70.564006 
L 372.163931 63.355313 
L 372.488911 69.312942 
L 372.81389 72.319365 
L 373.463849 62.376857 
L 373.788829 56.789764 
L 374.113808 59.972764 
L 374.438788 67.333876 
L 374.763767 68.275122 
L 375.088747 72.107643 
L 375.413726 63.490126 
L 376.063686 69.581631 
L 376.388665 71.86752 
L 376.713645 76.193917 
L 377.038624 69.243741 
L 377.363604 67.131871 
L 377.688583 75.650154 
L 378.013563 78.375805 
L 378.338542 74.93722 
L 378.663522 77.303382 
L 378.988501 73.497287 
L 379.313481 72.804055 
L 379.63846 69.756044 
L 379.96344 69.450926 
L 380.288419 70.385889 
L 380.613399 74.176558 
L 380.938378 69.233782 
L 381.588337 74.624409 
L 381.913317 73.554254 
L 382.238296 82.482145 
L 382.563276 83.495403 
L 382.888256 83.201379 
L 383.213235 86.082703 
L 383.538215 81.118732 
L 383.863194 82.398103 
L 384.188174 84.141242 
L 384.513153 84.223504 
L 384.838133 87.126772 
L 385.163112 87.442965 
L 385.488092 86.269514 
L 385.813071 87.006407 
L 386.138051 77.275715 
L 386.46303 79.040636 
L 387.112989 68.404886 
L 387.437969 69.312671 
L 387.762948 67.083876 
L 388.087928 63.07382 
L 388.737887 69.806175 
L 389.062867 72.012754 
L 389.387846 68.481258 
L 390.037805 65.675874 
L 390.362785 62.308307 
L 390.687764 67.010955 
L 391.012744 67.038362 
L 391.662703 60.571168 
L 391.987682 59.549654 
L 392.312662 64.315035 
L 392.637641 62.830764 
L 392.962621 75.441788 
L 393.61258 62.472743 
L 393.937559 65.937687 
L 394.262539 73.231108 
L 394.587518 70.717323 
L 394.912498 65.680315 
L 395.237477 65.774382 
L 395.562457 58.943576 
L 395.887437 59.086913 
L 396.212416 53.568 
L 396.537396 55.935003 
L 396.862375 57.287685 
L 397.512334 54.799141 
L 397.837314 56.836378 
L 398.162293 62.350004 
L 398.487273 58.165212 
L 398.487273 58.165212 
" clip-path="url(#p3dd63fc9da)" style="fill: none; stroke: #1f77b4; stroke-width: 1.5; stroke-linecap: square"/>
   </g>
   <g id="patch_3">
    <path d="M 57.6 307.584 
L 57.6 41.472 
" style="fill: none; stroke: #000000; stroke-width: 0.8; stroke-linejoin: miter; stroke-linecap: square"/>
   </g>
   <g id="patch_4">
    <path d="M 414.72 307.584 
L 414.72 41.472 
" style="fill: none; stroke: #000000; stroke-width: 0.8; stroke-linejoin: miter; stroke-linecap: square"/>
   </g>
   <g id="patch_5">
    <path d="M 57.6 307.584 
L 414.72 307.584 
" style="fill: none; stroke: #000000; stroke-width: 0.8; stroke-linejoin: miter; stroke-linecap: square"/>
   </g>
   <g id="patch_6">
    <path d="M 57.6 41.472 
L 414.72 41.472 
" style="fill: none; stroke: #000000; stroke-width: 0.8; stroke-linejoin: miter; stroke-linecap: square"/>
   </g>
   <g id="legend_1">
    <g id="patch_7">
     <path d="M 64.6 64.150125 
L 102.51875 64.150125 
Q 104.51875 64.150125 104.51875 62.150125 
L 104.51875 48.472 
Q 104.51875 46.472 102.51875 46.472 
L 64.6 46.472 
Q 62.6 46.472 62.6 48.472 
L 62.6 62.150125 
Q 62.6 64.150125 64.6 64.150125 
z
" style="fill: #ffffff; opacity: 0.8; stroke: #cccccc; stroke-linejoin: miter"/>
    </g>
    <g id="line2d_13">
     <path d="M 66.6 54.570438 
L 76.6 54.570438 
L 86.6 54.570438 
" style="fill: none; stroke: #1f77b4; stroke-width: 1.5; stroke-linecap: square"/>
    </g>
    <g id="text_12">
     <!-- y -->
     <g transform="translate(94.6 58.070438) scale(0.1 -0.1)">
      <defs>
       <path id="DejaVuSans-79" d="M 2059 -325 
Q 1816 -950 1584 -1140 
Q 1353 -1331 966 -1331 
L 506 -1331 
L 506 -850 
L 844 -850 
Q 1081 -850 1212 -737 
Q 1344 -625 1503 -206 
L 1606 56 
L 191 3500 
L 800 3500 
L 1894 763 
L 2988 3500 
L 3597 3500 
L 2059 -325 
z
" transform="scale(0.015625)"/>
      </defs>
      <use xlink:href="#DejaVuSans-79"/>
     </g>
    </g>
   </g>
  </g>
 </g>
 <defs>
  <clipPath id="p3dd63fc9da">
   <rect x="57.6" y="41.472" width="357.12" height="266.112"/>
  </clipPath>
 </defs>
</svg>
