<?xml version="1.0" encoding="utf-8" standalone="no"?>
<!DOCTYPE svg PUBLIC "-//W3C//DTD SVG 1.1//EN"
  "http://www.w3.org/Graphics/SVG/1.1/DTD/svg11.dtd">
<svg xmlns:xlink="http://www.w3.org/1999/xlink" width="460.8pt" height="345.6pt" viewBox="0 0 460.8 345.6" xmlns="http://www.w3.org/2000/svg" version="1.1">
 <metadata>
  <rdf:RDF xmlns:dc="http://purl.org/dc/elements/1.1/" xmlns:cc="http://creativecommons.org/ns#" xmlns:rdf="http://www.w3.org/1999/02/22-rdf-syntax-ns#">
   <cc:Work>
    <dc:type rdf:resource="http://purl.org/dc/dcmitype/StillImage"/>
    <dc:date>2023-11-06T23:21:26.385424</dc:date>
    <dc:format>image/svg+xml</dc:format>
    <dc:creator>
     <cc:Agent>
      <dc:title>Matplotlib v3.8.1, https://matplotlib.org/</dc:title>
     </cc:Agent>
    </dc:creator>
   </cc:Work>
  </rdf:RDF>
 </metadata>
 <defs>
  <style type="text/css">*{stroke-linejoin: round; stroke-linecap: butt}</style>
 </defs>
 <g id="figure_1">
  <g id="patch_1">
   <path d="M 0 345.6 
L 460.8 345.6 
L 460.8 0 
L 0 0 
z
" style="fill: #ffffff"/>
  </g>
  <g id="axes_1">
   <g id="patch_2">
    <path d="M 57.6 307.584 
L 414.72 307.584 
L 414.72 41.472 
L 57.6 41.472 
z
" style="fill: #ffffff"/>
   </g>
   <g id="matplotlib.axis_1">
    <g id="xtick_1">
     <g id="line2d_1">
      <defs>
       <path id="ma525997a0d" d="M 0 0 
L 0 3.5 
" style="stroke: #000000; stroke-width: 0.8"/>
      </defs>
      <g>
       <use xlink:href="#ma525997a0d" x="73.832727" y="307.584" style="stroke: #000000; stroke-width: 0.8"/>
      </g>
     </g>
     <g id="text_1">
      <!-- 0 -->
      <g transform="translate(70.651477 322.182437) scale(0.1 -0.1)">
       <defs>
        <path id="DejaVuSans-30" d="M 2034 4250 
Q 1547 4250 1301 3770 
Q 1056 3291 1056 2328 
Q 1056 1369 1301 889 
Q 1547 409 2034 409 
Q 2525 409 2770 889 
Q 3016 1369 3016 2328 
Q 3016 3291 2770 3770 
Q 2525 4250 2034 4250 
z
M 2034 4750 
Q 2819 4750 3233 4129 
Q 3647 3509 3647 2328 
Q 3647 1150 3233 529 
Q 2819 -91 2034 -91 
Q 1250 -91 836 529 
Q 422 1150 422 2328 
Q 422 3509 836 4129 
Q 1250 4750 2034 4750 
z
" transform="scale(0.015625)"/>
       </defs>
       <use xlink:href="#DejaVuSans-30"/>
      </g>
     </g>
    </g>
    <g id="xtick_2">
     <g id="line2d_2">
      <g>
       <use xlink:href="#ma525997a0d" x="138.828632" y="307.584" style="stroke: #000000; stroke-width: 0.8"/>
      </g>
     </g>
     <g id="text_2">
      <!-- 200 -->
      <g transform="translate(129.284882 322.182437) scale(0.1 -0.1)">
       <defs>
        <path id="DejaVuSans-32" d="M 1228 531 
L 3431 531 
L 3431 0 
L 469 0 
L 469 531 
Q 828 903 1448 1529 
Q 2069 2156 2228 2338 
Q 2531 2678 2651 2914 
Q 2772 3150 2772 3378 
Q 2772 3750 2511 3984 
Q 2250 4219 1831 4219 
Q 1534 4219 1204 4116 
Q 875 4013 500 3803 
L 500 4441 
Q 881 4594 1212 4672 
Q 1544 4750 1819 4750 
Q 2544 4750 2975 4387 
Q 3406 4025 3406 3419 
Q 3406 3131 3298 2873 
Q 3191 2616 2906 2266 
Q 2828 2175 2409 1742 
Q 1991 1309 1228 531 
z
" transform="scale(0.015625)"/>
       </defs>
       <use xlink:href="#DejaVuSans-32"/>
       <use xlink:href="#DejaVuSans-30" x="63.623047"/>
       <use xlink:href="#DejaVuSans-30" x="127.246094"/>
      </g>
     </g>
    </g>
    <g id="xtick_3">
     <g id="line2d_3">
      <g>
       <use xlink:href="#ma525997a0d" x="203.824537" y="307.584" style="stroke: #000000; stroke-width: 0.8"/>
      </g>
     </g>
     <g id="text_3">
      <!-- 400 -->
      <g transform="translate(194.280787 322.182437) scale(0.1 -0.1)">
       <defs>
        <path id="DejaVuSans-34" d="M 2419 4116 
L 825 1625 
L 2419 1625 
L 2419 4116 
z
M 2253 4666 
L 3047 4666 
L 3047 1625 
L 3713 1625 
L 3713 1100 
L 3047 1100 
L 3047 0 
L 2419 0 
L 2419 1100 
L 313 1100 
L 313 1709 
L 2253 4666 
z
" transform="scale(0.015625)"/>
       </defs>
       <use xlink:href="#DejaVuSans-34"/>
       <use xlink:href="#DejaVuSans-30" x="63.623047"/>
       <use xlink:href="#DejaVuSans-30" x="127.246094"/>
      </g>
     </g>
    </g>
    <g id="xtick_4">
     <g id="line2d_4">
      <g>
       <use xlink:href="#ma525997a0d" x="268.820442" y="307.584" style="stroke: #000000; stroke-width: 0.8"/>
      </g>
     </g>
     <g id="text_4">
      <!-- 600 -->
      <g transform="translate(259.276692 322.182437) scale(0.1 -0.1)">
       <defs>
        <path id="DejaVuSans-36" d="M 2113 2584 
Q 1688 2584 1439 2293 
Q 1191 2003 1191 1497 
Q 1191 994 1439 701 
Q 1688 409 2113 409 
Q 2538 409 2786 701 
Q 3034 994 3034 1497 
Q 3034 2003 2786 2293 
Q 2538 2584 2113 2584 
z
M 3366 4563 
L 3366 3988 
Q 3128 4100 2886 4159 
Q 2644 4219 2406 4219 
Q 1781 4219 1451 3797 
Q 1122 3375 1075 2522 
Q 1259 2794 1537 2939 
Q 1816 3084 2150 3084 
Q 2853 3084 3261 2657 
Q 3669 2231 3669 1497 
Q 3669 778 3244 343 
Q 2819 -91 2113 -91 
Q 1303 -91 875 529 
Q 447 1150 447 2328 
Q 447 3434 972 4092 
Q 1497 4750 2381 4750 
Q 2619 4750 2861 4703 
Q 3103 4656 3366 4563 
z
" transform="scale(0.015625)"/>
       </defs>
       <use xlink:href="#DejaVuSans-36"/>
       <use xlink:href="#DejaVuSans-30" x="63.623047"/>
       <use xlink:href="#DejaVuSans-30" x="127.246094"/>
      </g>
     </g>
    </g>
    <g id="xtick_5">
     <g id="line2d_5">
      <g>
       <use xlink:href="#ma525997a0d" x="333.816347" y="307.584" style="stroke: #000000; stroke-width: 0.8"/>
      </g>
     </g>
     <g id="text_5">
      <!-- 800 -->
      <g transform="translate(324.272597 322.182437) scale(0.1 -0.1)">
       <defs>
        <path id="DejaVuSans-38" d="M 2034 2216 
Q 1584 2216 1326 1975 
Q 1069 1734 1069 1313 
Q 1069 891 1326 650 
Q 1584 409 2034 409 
Q 2484 409 2743 651 
Q 3003 894 3003 1313 
Q 3003 1734 2745 1975 
Q 2488 2216 2034 2216 
z
M 1403 2484 
Q 997 2584 770 2862 
Q 544 3141 544 3541 
Q 544 4100 942 4425 
Q 1341 4750 2034 4750 
Q 2731 4750 3128 4425 
Q 3525 4100 3525 3541 
Q 3525 3141 3298 2862 
Q 3072 2584 2669 2484 
Q 3125 2378 3379 2068 
Q 3634 1759 3634 1313 
Q 3634 634 3220 271 
Q 2806 -91 2034 -91 
Q 1263 -91 848 271 
Q 434 634 434 1313 
Q 434 1759 690 2068 
Q 947 2378 1403 2484 
z
M 1172 3481 
Q 1172 3119 1398 2916 
Q 1625 2713 2034 2713 
Q 2441 2713 2670 2916 
Q 2900 3119 2900 3481 
Q 2900 3844 2670 4047 
Q 2441 4250 2034 4250 
Q 1625 4250 1398 4047 
Q 1172 3844 1172 3481 
z
" transform="scale(0.015625)"/>
       </defs>
       <use xlink:href="#DejaVuSans-38"/>
       <use xlink:href="#DejaVuSans-30" x="63.623047"/>
       <use xlink:href="#DejaVuSans-30" x="127.246094"/>
      </g>
     </g>
    </g>
    <g id="xtick_6">
     <g id="line2d_6">
      <g>
       <use xlink:href="#ma525997a0d" x="398.812252" y="307.584" style="stroke: #000000; stroke-width: 0.8"/>
      </g>
     </g>
     <g id="text_6">
      <!-- 1000 -->
      <g transform="translate(386.087252 322.182437) scale(0.1 -0.1)">
       <defs>
        <path id="DejaVuSans-31" d="M 794 531 
L 1825 531 
L 1825 4091 
L 703 3866 
L 703 4441 
L 1819 4666 
L 2450 4666 
L 2450 531 
L 3481 531 
L 3481 0 
L 794 0 
L 794 531 
z
" transform="scale(0.015625)"/>
       </defs>
       <use xlink:href="#DejaVuSans-31"/>
       <use xlink:href="#DejaVuSans-30" x="63.623047"/>
       <use xlink:href="#DejaVuSans-30" x="127.246094"/>
       <use xlink:href="#DejaVuSans-30" x="190.869141"/>
      </g>
     </g>
    </g>
   </g>
   <g id="matplotlib.axis_2">
    <g id="ytick_1">
     <g id="line2d_7">
      <defs>
       <path id="m92b538478c" d="M 0 0 
L -3.5 0 
" style="stroke: #000000; stroke-width: 0.8"/>
      </defs>
      <g>
       <use xlink:href="#m92b538478c" x="57.6" y="279.251615" style="stroke: #000000; stroke-width: 0.8"/>
      </g>
     </g>
     <g id="text_7">
      <!-- −10 -->
      <g transform="translate(29.495313 283.050834) scale(0.1 -0.1)">
       <defs>
        <path id="DejaVuSans-2212" d="M 678 2272 
L 4684 2272 
L 4684 1741 
L 678 1741 
L 678 2272 
z
" transform="scale(0.015625)"/>
       </defs>
       <use xlink:href="#DejaVuSans-2212"/>
       <use xlink:href="#DejaVuSans-31" x="83.789062"/>
       <use xlink:href="#DejaVuSans-30" x="147.412109"/>
      </g>
     </g>
    </g>
    <g id="ytick_2">
     <g id="line2d_8">
      <g>
       <use xlink:href="#m92b538478c" x="57.6" y="248.249818" style="stroke: #000000; stroke-width: 0.8"/>
      </g>
     </g>
     <g id="text_8">
      <!-- −5 -->
      <g transform="translate(35.857813 252.049037) scale(0.1 -0.1)">
       <defs>
        <path id="DejaVuSans-35" d="M 691 4666 
L 3169 4666 
L 3169 4134 
L 1269 4134 
L 1269 2991 
Q 1406 3038 1543 3061 
Q 1681 3084 1819 3084 
Q 2600 3084 3056 2656 
Q 3513 2228 3513 1497 
Q 3513 744 3044 326 
Q 2575 -91 1722 -91 
Q 1428 -91 1123 -41 
Q 819 9 494 109 
L 494 744 
Q 775 591 1075 516 
Q 1375 441 1709 441 
Q 2250 441 2565 725 
Q 2881 1009 2881 1497 
Q 2881 1984 2565 2268 
Q 2250 2553 1709 2553 
Q 1456 2553 1204 2497 
Q 953 2441 691 2322 
L 691 4666 
z
" transform="scale(0.015625)"/>
       </defs>
       <use xlink:href="#DejaVuSans-2212"/>
       <use xlink:href="#DejaVuSans-35" x="83.789062"/>
      </g>
     </g>
    </g>
    <g id="ytick_3">
     <g id="line2d_9">
      <g>
       <use xlink:href="#m92b538478c" x="57.6" y="217.248021" style="stroke: #000000; stroke-width: 0.8"/>
      </g>
     </g>
     <g id="text_9">
      <!-- 0 -->
      <g transform="translate(44.2375 221.04724) scale(0.1 -0.1)">
       <use xlink:href="#DejaVuSans-30"/>
      </g>
     </g>
    </g>
    <g id="ytick_4">
     <g id="line2d_10">
      <g>
       <use xlink:href="#m92b538478c" x="57.6" y="186.246224" style="stroke: #000000; stroke-width: 0.8"/>
      </g>
     </g>
     <g id="text_10">
      <!-- 5 -->
      <g transform="translate(44.2375 190.045442) scale(0.1 -0.1)">
       <use xlink:href="#DejaVuSans-35"/>
      </g>
     </g>
    </g>
    <g id="ytick_5">
     <g id="line2d_11">
      <g>
       <use xlink:href="#m92b538478c" x="57.6" y="155.244426" style="stroke: #000000; stroke-width: 0.8"/>
      </g>
     </g>
     <g id="text_11">
      <!-- 10 -->
      <g transform="translate(37.875 159.043645) scale(0.1 -0.1)">
       <use xlink:href="#DejaVuSans-31"/>
       <use xlink:href="#DejaVuSans-30" x="63.623047"/>
      </g>
     </g>
    </g>
    <g id="ytick_6">
     <g id="line2d_12">
      <g>
       <use xlink:href="#m92b538478c" x="57.6" y="124.242629" style="stroke: #000000; stroke-width: 0.8"/>
      </g>
     </g>
     <g id="text_12">
      <!-- 15 -->
      <g transform="translate(37.875 128.041848) scale(0.1 -0.1)">
       <use xlink:href="#DejaVuSans-31"/>
       <use xlink:href="#DejaVuSans-35" x="63.623047"/>
      </g>
     </g>
    </g>
    <g id="ytick_7">
     <g id="line2d_13">
      <g>
       <use xlink:href="#m92b538478c" x="57.6" y="93.240832" style="stroke: #000000; stroke-width: 0.8"/>
      </g>
     </g>
     <g id="text_13">
      <!-- 20 -->
      <g transform="translate(37.875 97.040051) scale(0.1 -0.1)">
       <use xlink:href="#DejaVuSans-32"/>
       <use xlink:href="#DejaVuSans-30" x="63.623047"/>
      </g>
     </g>
    </g>
    <g id="ytick_8">
     <g id="line2d_14">
      <g>
       <use xlink:href="#m92b538478c" x="57.6" y="62.239035" style="stroke: #000000; stroke-width: 0.8"/>
      </g>
     </g>
     <g id="text_14">
      <!-- 25 -->
      <g transform="translate(37.875 66.038254) scale(0.1 -0.1)">
       <use xlink:href="#DejaVuSans-32"/>
       <use xlink:href="#DejaVuSans-35" x="63.623047"/>
      </g>
     </g>
    </g>
   </g>
   <g id="line2d_15">
    <path d="M 73.832727 225.359162 
L 74.482686 237.67513 
L 74.807666 243.349722 
L 75.132645 254.486448 
L 75.457625 257.364882 
L 75.782604 250.155922 
L 76.107584 249.059537 
L 76.432563 241.302872 
L 76.757543 251.048525 
L 77.082523 251.844123 
L 77.407502 238.394044 
L 77.732482 231.92832 
L 78.057461 229.903437 
L 78.382441 228.988934 
L 79.0324 247.196398 
L 79.357379 254.069868 
L 79.682359 256.879406 
L 80.332318 267.92965 
L 80.982277 257.326139 
L 81.307256 257.261606 
L 82.282195 273.561439 
L 82.607174 266.037374 
L 82.932154 263.911351 
L 83.257133 256.834109 
L 83.582113 246.600436 
L 83.907093 258.850505 
L 84.232072 261.286373 
L 84.557052 256.135217 
L 84.882031 268.856596 
L 85.207011 262.439138 
L 85.53199 263.679787 
L 85.85697 257.967955 
L 86.181949 262.868985 
L 86.506929 260.764911 
L 86.831908 272.825728 
L 87.156888 276.076999 
L 87.481867 277.435338 
L 87.806847 270.635814 
L 88.131826 282.981302 
L 88.456806 286.163802 
L 88.781785 277.320742 
L 89.106765 281.556316 
L 89.431744 283.551193 
L 89.756724 290.02781 
L 90.081704 289.414901 
L 90.406683 289.747289 
L 90.731663 287.080589 
L 91.056642 282.409 
L 91.381622 293.377193 
L 91.706601 294.945071 
L 92.031581 293.939197 
L 93.006519 278.293975 
L 93.331499 266.645706 
L 93.656478 265.69366 
L 93.981458 262.463682 
L 94.306437 257.238855 
L 94.631417 273.479871 
L 94.956396 282.011537 
L 95.281376 283.551556 
L 95.606355 284.270289 
L 95.931335 289.430318 
L 96.256314 292.430368 
L 96.581294 290.817632 
L 96.906274 295.488 
L 97.556233 280.403715 
L 97.881212 280.409258 
L 98.206192 278.79383 
L 98.531171 287.531225 
L 98.856151 292.753357 
L 99.18113 289.330719 
L 99.50611 287.480689 
L 100.156069 260.348681 
L 100.481048 259.422496 
L 100.806028 274.832807 
L 101.455987 261.434261 
L 102.430925 277.699151 
L 102.755905 278.438504 
L 103.080885 282.633962 
L 103.405864 283.145299 
L 104.055823 268.87132 
L 104.380803 269.598848 
L 104.705782 264.39181 
L 105.030762 264.061459 
L 105.355741 265.626892 
L 105.680721 261.015869 
L 106.0057 260.178509 
L 106.33068 257.30729 
L 106.655659 262.384747 
L 106.980639 262.434333 
L 107.305618 264.301571 
L 107.630598 271.117248 
L 108.280557 275.110795 
L 108.605536 274.245374 
L 109.255495 255.339859 
L 109.580475 264.804381 
L 109.905455 260.324866 
L 110.230434 254.289594 
L 110.555414 238.514755 
L 110.880393 245.839868 
L 111.530352 237.812412 
L 111.855332 249.612494 
L 112.180311 246.591438 
L 112.505291 241.474152 
L 112.83027 232.720881 
L 113.15525 220.175905 
L 113.480229 227.759452 
L 113.805209 229.127726 
L 114.130188 226.609318 
L 114.455168 227.899377 
L 114.780147 217.980149 
L 115.105127 216.846284 
L 115.755086 231.016264 
L 116.080066 226.944408 
L 116.405045 229.103492 
L 116.730025 239.736197 
L 117.055004 224.218849 
L 117.379984 233.087029 
L 117.704963 236.171942 
L 118.029943 232.84311 
L 118.354922 226.422517 
L 118.679902 222.347124 
L 119.004881 234.898137 
L 119.329861 230.429013 
L 119.65484 220.520985 
L 119.97982 221.523108 
L 120.304799 232.701639 
L 120.629779 220.6592 
L 120.954758 218.368564 
L 121.279738 217.082756 
L 121.604717 212.835955 
L 121.929697 216.437216 
L 122.254676 225.640251 
L 122.579656 218.909951 
L 122.904636 217.320473 
L 123.554595 209.073486 
L 123.879574 212.41035 
L 124.204554 223.495476 
L 124.529533 218.989168 
L 124.854513 217.868241 
L 125.504472 201.470815 
L 125.829451 201.5723 
L 126.154431 194.233271 
L 126.47941 196.19678 
L 127.129369 214.108746 
L 127.454349 220.337059 
L 127.779328 218.021371 
L 128.429287 211.757954 
L 128.754267 216.267194 
L 129.079247 217.015829 
L 129.404226 216.890589 
L 129.729206 217.159032 
L 130.054185 212.512366 
L 130.704144 218.045238 
L 131.029124 209.092244 
L 131.354103 210.301571 
L 131.679083 209.330766 
L 132.004062 210.950402 
L 132.329042 211.208132 
L 132.654021 209.848349 
L 132.979001 212.377777 
L 133.30398 221.430866 
L 133.62896 221.343413 
L 133.953939 224.366946 
L 134.603898 220.558845 
L 134.928878 225.983881 
L 135.253857 227.447268 
L 135.578837 226.567169 
L 136.553776 207.405056 
L 137.203735 219.781227 
L 137.528714 217.359416 
L 137.853694 215.883353 
L 138.178673 217.741571 
L 138.503653 215.470982 
L 139.153612 220.346514 
L 139.478591 215.487589 
L 140.12855 233.997018 
L 140.45353 224.709241 
L 140.778509 226.570088 
L 141.103489 214.215383 
L 141.428468 215.562502 
L 141.753448 206.396348 
L 142.078428 205.093398 
L 142.403407 211.54814 
L 142.728387 200.098918 
L 143.053366 207.843295 
L 143.378346 205.501121 
L 143.703325 211.006094 
L 144.028305 214.071678 
L 144.353284 213.205343 
L 145.003243 209.989886 
L 145.328223 209.662203 
L 145.653202 197.438363 
L 145.978182 200.186458 
L 146.628141 179.487742 
L 146.95312 177.301993 
L 147.2781 173.505278 
L 147.603079 163.234058 
L 147.928059 163.065234 
L 148.253038 164.931642 
L 148.578018 161.452201 
L 148.902998 149.108542 
L 149.227977 154.121181 
L 149.552957 152.874467 
L 150.202916 146.848936 
L 150.527895 153.560131 
L 151.502834 122.982618 
L 151.827813 129.992371 
L 152.477772 125.905737 
L 152.802752 118.065785 
L 153.127731 119.094927 
L 153.452711 113.340089 
L 153.77769 116.558822 
L 154.10267 110.898544 
L 154.427649 116.080925 
L 154.752629 114.940199 
L 155.727568 134.548162 
L 156.052547 129.887063 
L 156.377527 128.831801 
L 156.702506 124.944742 
L 157.027486 126.134208 
L 157.677445 141.029932 
L 158.002424 140.656139 
L 158.327404 137.570511 
L 158.977363 142.803893 
L 159.302342 139.040737 
L 159.627322 140.74404 
L 159.952301 133.936522 
L 160.277281 138.643998 
L 160.60226 134.90088 
L 160.92724 144.917662 
L 161.902179 156.665601 
L 162.227158 158.410537 
L 162.552138 159.306714 
L 162.877117 148.4035 
L 163.202097 154.390931 
L 163.527076 154.393401 
L 163.852056 154.590026 
L 164.502015 146.3341 
L 165.151974 130.436048 
L 165.476953 136.013645 
L 165.801933 130.134842 
L 166.126912 130.14124 
L 166.451892 129.059096 
L 167.101851 137.382886 
L 167.42683 135.518494 
L 167.75181 130.071664 
L 168.07679 129.78797 
L 168.401769 132.915126 
L 168.726749 123.421485 
L 169.051728 127.741802 
L 169.376708 127.25339 
L 170.026667 120.917251 
L 170.351646 134.134297 
L 170.676626 134.424637 
L 171.001605 130.647123 
L 171.326585 132.076172 
L 171.651564 124.551391 
L 172.301523 116.777287 
L 172.626503 116.867905 
L 172.951482 116.616461 
L 173.276462 117.09658 
L 173.601441 132.656011 
L 173.926421 121.173352 
L 174.2514 126.71428 
L 174.57638 122.972608 
L 174.90136 139.737169 
L 175.226339 141.380288 
L 175.551319 138.013006 
L 175.876298 142.533973 
L 176.201278 135.702703 
L 176.526257 132.250663 
L 176.851237 126.794555 
L 177.176216 126.265208 
L 177.501196 124.659977 
L 177.826175 111.13822 
L 178.151155 109.652258 
L 178.476134 105.540137 
L 179.126093 102.406345 
L 179.451073 110.42212 
L 179.776052 103.619615 
L 180.101032 103.395544 
L 180.426011 100.961518 
L 180.750991 106.267718 
L 181.075971 105.140241 
L 181.40095 102.224483 
L 181.72593 87.615095 
L 182.050909 88.71916 
L 182.700868 78.608977 
L 183.025848 76.638991 
L 183.350827 76.62328 
L 183.675807 93.82111 
L 184.000786 88.711424 
L 184.325766 95.3368 
L 184.975725 102.565606 
L 185.300704 90.138346 
L 185.950663 101.478002 
L 186.600622 86.871849 
L 187.250581 74.966617 
L 187.575561 74.944149 
L 187.900541 84.436769 
L 188.22552 88.905605 
L 188.5505 98.944855 
L 189.200459 90.784188 
L 189.525438 93.705475 
L 190.175397 107.28889 
L 190.500377 116.97662 
L 190.825356 120.61654 
L 191.150336 117.15241 
L 191.475315 125.633259 
L 191.800295 123.439176 
L 192.125274 112.121578 
L 192.450254 116.443147 
L 192.775233 116.201607 
L 193.100213 117.749608 
L 193.425192 116.75569 
L 194.075152 128.563432 
L 194.725111 111.832344 
L 195.05009 125.301879 
L 195.37507 133.677939 
L 195.700049 131.668642 
L 196.350008 142.154087 
L 196.674988 145.2785 
L 196.999967 143.325096 
L 197.324947 142.335754 
L 197.649926 146.936248 
L 197.974906 147.641607 
L 198.299885 145.929223 
L 198.624865 136.133347 
L 198.949844 133.694943 
L 199.274824 133.428245 
L 199.599803 130.911882 
L 199.924783 123.539716 
L 200.574742 134.239237 
L 200.899722 132.062834 
L 201.224701 124.097745 
L 201.87466 128.939688 
L 202.19964 129.577676 
L 202.524619 124.595164 
L 202.849599 130.572494 
L 203.174578 138.633746 
L 203.499558 136.909435 
L 203.824537 134.452013 
L 204.149517 143.367962 
L 204.474496 134.120149 
L 204.799476 145.504452 
L 205.124455 148.317025 
L 205.774414 139.759339 
L 206.099394 148.162842 
L 206.424373 144.529825 
L 207.074333 157.065171 
L 207.399312 156.903919 
L 207.724292 156.156598 
L 208.049271 146.200699 
L 208.374251 140.611735 
L 208.69923 142.098682 
L 209.674169 155.538771 
L 209.999148 157.188804 
L 210.324128 151.585559 
L 210.649107 148.604047 
L 210.974087 149.800726 
L 211.299066 142.605575 
L 211.624046 153.318868 
L 211.949025 155.168026 
L 212.274005 159.434914 
L 212.598984 161.923072 
L 212.923964 157.665478 
L 213.248943 138.571491 
L 213.573923 145.85192 
L 213.898903 140.732967 
L 214.223882 143.870718 
L 214.548862 152.902378 
L 215.198821 150.226933 
L 215.5238 139.655613 
L 215.84878 147.105086 
L 216.173759 147.899662 
L 216.498739 146.637989 
L 216.823718 130.41332 
L 217.148698 133.359682 
L 217.473677 139.733465 
L 217.798657 143.14691 
L 218.123636 138.282892 
L 218.448616 138.415013 
L 219.098575 134.951123 
L 219.423554 134.88088 
L 219.748534 137.976425 
L 220.073514 136.265449 
L 220.398493 141.393517 
L 220.723473 143.707725 
L 221.048452 132.512104 
L 221.373432 129.070593 
L 221.698411 133.094581 
L 222.023391 128.964456 
L 222.34837 133.28351 
L 222.67335 134.06424 
L 222.998329 135.461713 
L 223.323309 123.002752 
L 223.648288 130.058213 
L 223.973268 129.622662 
L 224.298247 132.433008 
L 224.623227 132.41534 
L 224.948206 132.273812 
L 225.273186 140.846099 
L 225.598165 135.647073 
L 225.923145 137.549107 
L 226.573104 145.175967 
L 226.898084 144.669555 
L 227.223063 144.585129 
L 227.548043 137.605721 
L 227.873022 133.823127 
L 228.198002 135.546364 
L 228.522981 139.217568 
L 228.847961 128.351121 
L 229.17294 147.879363 
L 229.49792 146.322591 
L 229.822899 146.099806 
L 230.147879 140.014978 
L 230.472858 123.140729 
L 230.797838 120.243747 
L 231.447797 107.049638 
L 231.772776 98.662726 
L 232.097756 103.059134 
L 232.422735 91.272822 
L 232.747715 98.821658 
L 233.072695 97.252061 
L 233.397674 98.810212 
L 233.722654 99.738658 
L 234.047633 99.123822 
L 235.022572 114.196846 
L 235.347551 120.370073 
L 235.672531 121.290937 
L 236.32249 111.860228 
L 236.647469 118.936043 
L 236.972449 120.827867 
L 237.297428 116.376017 
L 237.622408 114.898731 
L 238.272367 107.287756 
L 238.597346 113.035077 
L 238.922326 93.937712 
L 239.247305 108.369244 
L 239.572285 104.959071 
L 239.897265 114.294826 
L 240.547224 100.559394 
L 240.872203 101.827208 
L 241.522162 117.488341 
L 241.847142 115.348083 
L 242.172121 115.452297 
L 242.82208 105.106044 
L 243.14706 108.490216 
L 243.472039 109.367589 
L 243.797019 115.17598 
L 244.121998 110.181066 
L 244.446978 115.895839 
L 244.771957 113.244851 
L 245.421916 119.315578 
L 245.746896 114.46707 
L 246.071876 112.850618 
L 246.396855 114.209709 
L 247.046814 132.083374 
L 247.371794 134.138382 
L 247.696773 138.270222 
L 248.021753 137.761969 
L 248.346732 131.239576 
L 248.671712 136.210373 
L 248.996691 129.378946 
L 249.321671 134.154022 
L 249.64665 136.157918 
L 249.97163 142.781251 
L 250.296609 132.102768 
L 250.621589 133.625948 
L 250.946568 133.16441 
L 251.271548 126.337407 
L 251.596527 116.01412 
L 251.921507 111.004138 
L 252.246486 99.01542 
L 252.571466 108.727757 
L 252.896446 104.628887 
L 253.221425 111.48523 
L 253.546405 104.682299 
L 253.871384 118.436364 
L 254.196364 126.9972 
L 254.521343 125.389439 
L 254.846323 122.26859 
L 255.171302 121.932548 
L 255.496282 126.661223 
L 255.821261 120.813755 
L 256.146241 119.938607 
L 256.47122 115.390778 
L 256.7962 107.641706 
L 257.121179 108.436308 
L 257.446159 116.707156 
L 257.771138 101.062122 
L 258.096118 102.911292 
L 258.421097 107.794407 
L 258.746077 105.544128 
L 259.071057 106.850543 
L 259.396036 105.177034 
L 259.721016 102.125043 
L 260.045995 100.245485 
L 260.370975 101.735032 
L 260.695954 102.325332 
L 261.020934 87.77673 
L 261.345913 86.358502 
L 261.670893 92.235722 
L 261.995872 84.164827 
L 262.320852 90.57917 
L 262.645831 89.530156 
L 262.970811 86.980091 
L 263.62077 103.044715 
L 263.945749 107.329565 
L 264.270729 103.449896 
L 264.595708 103.055325 
L 264.920688 108.43083 
L 265.245667 117.279077 
L 265.570647 111.069201 
L 265.895627 115.030111 
L 266.220606 117.506682 
L 266.545586 109.11899 
L 266.870565 106.627406 
L 267.195545 99.566282 
L 267.520524 110.898445 
L 267.845504 108.620441 
L 268.170483 121.325593 
L 268.495463 118.362014 
L 268.820442 109.227004 
L 269.145422 109.719431 
L 269.470401 131.819828 
L 270.12036 119.364037 
L 270.44534 123.483163 
L 270.770319 119.151878 
L 271.095299 124.898465 
L 271.420278 125.950828 
L 271.745258 116.432027 
L 272.070238 117.008669 
L 272.395217 115.214143 
L 272.720197 114.059227 
L 273.045176 127.008887 
L 273.370156 121.911431 
L 273.695135 129.528698 
L 274.020115 130.131901 
L 274.345094 129.979144 
L 274.995053 147.262328 
L 275.320033 149.411343 
L 275.645012 147.869745 
L 275.969992 135.634517 
L 276.294971 141.372981 
L 276.619951 136.048507 
L 276.94493 127.169247 
L 277.26991 134.561175 
L 277.919869 122.679318 
L 278.244848 130.358913 
L 278.569828 122.344476 
L 279.544767 112.392457 
L 279.869746 100.39837 
L 280.194726 103.954148 
L 280.519705 96.736107 
L 280.844685 93.6143 
L 281.169664 94.744571 
L 281.494644 85.470796 
L 281.819623 88.861007 
L 282.144603 87.976852 
L 282.794562 92.769316 
L 283.119541 93.211794 
L 283.444521 75.64635 
L 283.7695 67.522605 
L 284.09448 82.232013 
L 284.419459 80.651935 
L 284.744439 83.954601 
L 285.069419 76.243871 
L 285.394398 80.972309 
L 285.719378 88.408791 
L 286.044357 91.628357 
L 286.694316 87.886822 
L 287.019296 93.012259 
L 287.344275 93.304569 
L 287.669255 98.67428 
L 288.319214 94.400101 
L 288.644193 97.187771 
L 288.969173 96.477594 
L 289.619132 113.417088 
L 289.944111 117.803531 
L 290.269091 119.763539 
L 290.59407 118.420721 
L 290.91905 119.575073 
L 291.569009 111.901285 
L 291.893989 101.394505 
L 292.218968 97.367579 
L 292.543948 87.357871 
L 292.868927 96.014754 
L 293.193907 91.248691 
L 293.518886 107.692888 
L 294.168845 94.451518 
L 294.493825 95.208535 
L 294.818804 91.503623 
L 295.143784 98.94832 
L 295.468763 89.958423 
L 295.793743 85.729859 
L 296.118722 85.34721 
L 296.443702 91.625589 
L 296.768681 94.694771 
L 297.093661 95.897149 
L 297.41864 100.441875 
L 297.74362 113.062848 
L 298.0686 110.803461 
L 298.393579 116.894786 
L 299.043538 109.735422 
L 299.368518 112.022326 
L 299.693497 106.607486 
L 300.018477 103.111838 
L 300.343456 112.794942 
L 300.668436 114.269553 
L 300.993415 114.316971 
L 301.318395 115.28698 
L 302.293333 140.511568 
L 302.618313 134.173673 
L 302.943292 140.878573 
L 303.268272 137.772012 
L 303.593251 147.279205 
L 303.918231 161.455553 
L 304.24321 169.011839 
L 304.89317 160.370963 
L 305.218149 145.848644 
L 305.543129 142.273191 
L 305.868108 134.81776 
L 306.193088 143.489003 
L 306.518067 135.313187 
L 306.843047 139.880279 
L 307.493006 123.758648 
L 307.817985 120.132517 
L 308.142965 113.916796 
L 308.467944 111.912353 
L 308.792924 104.889715 
L 309.117903 103.027198 
L 310.092842 113.09768 
L 310.417821 122.256037 
L 310.742801 116.902814 
L 311.067781 125.894541 
L 311.39276 122.631775 
L 311.71774 115.258243 
L 312.042719 123.760034 
L 312.367699 114.591938 
L 313.017658 105.784991 
L 313.342637 100.420234 
L 313.667617 100.404874 
L 313.992596 103.506562 
L 314.317576 100.91122 
L 314.967535 84.641419 
L 315.292514 89.182945 
L 315.617494 77.700645 
L 315.942473 93.731762 
L 316.267453 97.000152 
L 316.592432 98.282632 
L 316.917412 103.289872 
L 317.242391 106.372003 
L 317.567371 120.03994 
L 317.892351 116.354298 
L 318.21733 119.522465 
L 318.54231 118.429547 
L 319.192269 90.370407 
L 319.517248 88.085109 
L 319.842228 86.992592 
L 320.167207 81.928875 
L 320.492187 90.685177 
L 320.817166 83.295668 
L 321.142146 82.71867 
L 321.792105 91.00517 
L 322.117084 89.92618 
L 322.442064 92.5463 
L 322.767043 88.162935 
L 323.092023 91.189077 
L 323.417002 89.19726 
L 323.741982 91.704313 
L 324.066962 91.573732 
L 324.391941 92.79091 
L 324.716921 84.134809 
L 325.0419 81.540443 
L 325.691859 58.006912 
L 326.016839 59.865952 
L 326.341818 53.568 
L 326.666798 64.279945 
L 326.991777 70.3162 
L 327.316757 58.266735 
L 327.641736 55.937684 
L 327.966716 62.351491 
L 328.291695 63.483387 
L 328.616675 64.036938 
L 328.941654 63.310522 
L 329.591613 71.575081 
L 329.916593 71.211679 
L 330.241572 71.435654 
L 330.566552 78.282448 
L 330.891532 79.107195 
L 331.216511 75.010785 
L 331.541491 72.479505 
L 331.86647 65.376945 
L 332.19145 69.635773 
L 332.516429 79.295531 
L 333.166388 70.167989 
L 333.491368 76.47192 
L 334.466306 57.925593 
L 334.791286 55.783338 
L 335.116265 61.587132 
L 335.441245 74.270502 
L 335.766224 77.060505 
L 336.091204 67.289625 
L 336.416183 68.342968 
L 337.066143 78.122683 
L 337.391122 76.309752 
L 337.716102 77.81994 
L 338.041081 77.879508 
L 338.366061 81.546078 
L 338.69104 94.093543 
L 339.01602 92.916187 
L 339.340999 94.667957 
L 339.665979 95.499905 
L 339.990958 95.29756 
L 340.315938 95.439735 
L 340.640917 88.939373 
L 340.965897 96.517742 
L 341.290876 92.697462 
L 341.615856 84.616514 
L 341.940835 80.501234 
L 342.265815 82.525278 
L 342.590794 75.889286 
L 342.915774 83.504563 
L 343.240753 84.951409 
L 343.890713 91.260429 
L 344.215692 85.184123 
L 344.540672 74.679088 
L 344.865651 82.690638 
L 345.190631 75.71549 
L 345.51561 76.164013 
L 345.84059 74.291936 
L 346.165569 81.209551 
L 346.490549 90.684458 
L 347.140508 81.625592 
L 347.465487 87.001145 
L 347.790467 87.240825 
L 348.115446 88.242294 
L 348.765405 88.533108 
L 349.090385 92.594466 
L 349.415364 102.265086 
L 349.740344 105.137183 
L 350.065324 101.850647 
L 350.390303 101.888944 
L 351.040262 86.170174 
L 351.365242 89.690833 
L 351.690221 97.374355 
L 352.015201 108.428209 
L 352.34018 111.539564 
L 352.66516 112.187315 
L 352.990139 135.88853 
L 353.315119 141.836424 
L 353.640098 144.188382 
L 353.965078 136.878885 
L 354.290057 142.570682 
L 354.615037 132.893941 
L 354.940016 130.674161 
L 355.264996 126.035075 
L 355.589975 132.333817 
L 355.914955 124.689371 
L 356.239934 122.621639 
L 356.564914 137.582585 
L 356.889894 140.795124 
L 357.214873 141.819053 
L 357.539853 144.956774 
L 357.864832 136.152403 
L 358.189812 132.331033 
L 358.514791 137.773451 
L 358.839771 126.644669 
L 359.16475 119.747641 
L 359.48973 119.552285 
L 360.139689 132.792406 
L 360.464668 137.146468 
L 360.789648 151.779262 
L 361.114627 159.139519 
L 361.439607 152.493138 
L 361.764586 155.087563 
L 362.089566 150.214913 
L 362.414545 151.052451 
L 362.739525 156.583049 
L 363.064505 170.722242 
L 363.389484 165.396153 
L 363.714464 156.466091 
L 364.039443 163.041426 
L 364.364423 160.847966 
L 364.689402 165.690184 
L 365.014382 164.972734 
L 365.339361 163.857129 
L 365.664341 161.306471 
L 365.98932 155.203256 
L 366.3143 157.772336 
L 366.639279 161.885844 
L 366.964259 161.396723 
L 367.289238 155.534722 
L 367.614218 147.038239 
L 367.939197 135.402286 
L 368.264177 142.60767 
L 368.589156 142.600788 
L 369.239115 146.853058 
L 369.564095 141.286188 
L 369.889075 144.601483 
L 370.214054 144.8758 
L 370.539034 149.075251 
L 371.513972 177.334719 
L 371.838952 177.302694 
L 372.163931 182.896561 
L 372.488911 180.550735 
L 372.81389 179.596258 
L 373.13887 193.568123 
L 373.463849 193.376712 
L 373.788829 199.633863 
L 374.113808 201.749963 
L 374.763767 194.781657 
L 375.088747 201.44504 
L 375.413726 197.883419 
L 375.738706 206.887118 
L 376.063686 207.51636 
L 376.388665 197.634763 
L 377.363604 219.679939 
L 377.688583 211.572083 
L 378.013563 211.736867 
L 378.338542 207.972651 
L 378.663522 214.914532 
L 378.988501 212.622678 
L 379.313481 203.920784 
L 379.63846 207.055064 
L 379.96344 214.786088 
L 380.288419 213.512827 
L 380.613399 203.449554 
L 380.938378 203.43925 
L 381.263358 198.652186 
L 381.588337 210.156927 
L 381.913317 214.318527 
L 382.238296 220.623174 
L 382.563276 222.435471 
L 382.888256 227.357188 
L 383.213235 226.243719 
L 383.538215 232.336314 
L 383.863194 236.001147 
L 384.188174 233.366139 
L 384.513153 233.57377 
L 384.838133 238.229018 
L 385.163112 240.944363 
L 385.488092 237.994834 
L 385.813071 240.895565 
L 386.138051 236.356808 
L 386.46303 235.621805 
L 386.78801 227.232303 
L 387.112989 225.165768 
L 387.437969 224.941595 
L 387.762948 222.757934 
L 388.087928 235.088358 
L 388.412907 233.515873 
L 388.737887 247.129003 
L 389.062867 246.817947 
L 389.387846 241.70898 
L 390.037805 249.404245 
L 390.362785 245.109933 
L 391.012744 261.493776 
L 391.337723 256.10465 
L 391.662703 262.333791 
L 391.987682 262.691351 
L 392.312662 254.986346 
L 392.637641 250.926829 
L 392.962621 256.203283 
L 393.937559 239.653456 
L 394.262539 247.95448 
L 394.587518 252.312849 
L 394.912498 253.13582 
L 395.237477 260.660739 
L 395.562457 248.557898 
L 395.887437 252.209834 
L 396.212416 246.228948 
L 397.187355 273.188499 
L 398.162293 263.213646 
L 398.487273 263.389598 
L 398.487273 263.389598 
" clip-path="url(#pe0c7894d67)" style="fill: none; stroke: #1f77b4; stroke-width: 1.5; stroke-linecap: square"/>
   </g>
   <g id="patch_3">
    <path d="M 57.6 307.584 
L 57.6 41.472 
" style="fill: none; stroke: #000000; stroke-width: 0.8; stroke-linejoin: miter; stroke-linecap: square"/>
   </g>
   <g id="patch_4">
    <path d="M 414.72 307.584 
L 414.72 41.472 
" style="fill: none; stroke: #000000; stroke-width: 0.8; stroke-linejoin: miter; stroke-linecap: square"/>
   </g>
   <g id="patch_5">
    <path d="M 57.6 307.584 
L 414.72 307.584 
" style="fill: none; stroke: #000000; stroke-width: 0.8; stroke-linejoin: miter; stroke-linecap: square"/>
   </g>
   <g id="patch_6">
    <path d="M 57.6 41.472 
L 414.72 41.472 
" style="fill: none; stroke: #000000; stroke-width: 0.8; stroke-linejoin: miter; stroke-linecap: square"/>
   </g>
   <g id="legend_1">
    <g id="patch_7">
     <path d="M 369.80125 64.150125 
L 407.72 64.150125 
Q 409.72 64.150125 409.72 62.150125 
L 409.72 48.472 
Q 409.72 46.472 407.72 46.472 
L 369.80125 46.472 
Q 367.80125 46.472 367.80125 48.472 
L 367.80125 62.150125 
Q 367.80125 64.150125 369.80125 64.150125 
z
" style="fill: #ffffff; opacity: 0.8; stroke: #cccccc; stroke-linejoin: miter"/>
    </g>
    <g id="line2d_16">
     <path d="M 371.80125 54.570438 
L 381.80125 54.570438 
L 391.80125 54.570438 
" style="fill: none; stroke: #1f77b4; stroke-width: 1.5; stroke-linecap: square"/>
    </g>
    <g id="text_15">
     <!-- y -->
     <g transform="translate(399.80125 58.070438) scale(0.1 -0.1)">
      <defs>
       <path id="DejaVuSans-79" d="M 2059 -325 
Q 1816 -950 1584 -1140 
Q 1353 -1331 966 -1331 
L 506 -1331 
L 506 -850 
L 844 -850 
Q 1081 -850 1212 -737 
Q 1344 -625 1503 -206 
L 1606 56 
L 191 3500 
L 800 3500 
L 1894 763 
L 2988 3500 
L 3597 3500 
L 2059 -325 
z
" transform="scale(0.015625)"/>
      </defs>
      <use xlink:href="#DejaVuSans-79"/>
     </g>
    </g>
   </g>
  </g>
 </g>
 <defs>
  <clipPath id="pe0c7894d67">
   <rect x="57.6" y="41.472" width="357.12" height="266.112"/>
  </clipPath>
 </defs>
</svg>
